<?xml version="1.0" encoding="UTF-8" standalone="no"?>
<!-- Created with Inkscape (http://www.inkscape.org/) -->

<svg
   xmlns:dc="http://purl.org/dc/elements/1.1/"
   xmlns:cc="http://creativecommons.org/ns#"
   xmlns:rdf="http://www.w3.org/1999/02/22-rdf-syntax-ns#"
   xmlns:svg="http://www.w3.org/2000/svg"
   xmlns="http://www.w3.org/2000/svg"
   xmlns:sodipodi="http://sodipodi.sourceforge.net/DTD/sodipodi-0.dtd"
   xmlns:inkscape="http://www.inkscape.org/namespaces/inkscape"
   width="130mm"
   height="80mm"
   viewBox="0 0 129.99999 80.000003"
   version="1.1"
   id="svg8"
   inkscape:version="0.92.2 (5c3e80d, 2017-08-06)"
   sodipodi:docname="cracha_primos.svg"
   inkscape:export-filename="C:\Users\moraesgp\Desktop\cracha.png"
   inkscape:export-xdpi="655.47998"
   inkscape:export-ydpi="655.47998">
  <defs
     id="defs2">
    <inkscape:path-effect
       effect="skeletal"
       id="path-effect4616"
       is_visible="true"
       pattern="M 0,5 C 0,2.24 2.24,0 5,0 7.76,0 10,2.24 10,5 10,7.76 7.76,10 5,10 2.24,10 0,7.76 0,5 Z"
       copytype="single_stretched"
       prop_scale="0.26458333"
       scale_y_rel="false"
       spacing="0"
       normal_offset="0"
       tang_offset="0"
       prop_units="false"
       vertical_pattern="false"
       fuse_tolerance="0" />
    <inkscape:path-effect
       effect="skeletal"
       id="path-effect825"
       is_visible="true"
       pattern="M 0,5 C 0,2.24 2.24,0 5,0 7.76,0 10,2.24 10,5 10,7.76 7.76,10 5,10 2.24,10 0,7.76 0,5 Z"
       copytype="single_stretched"
       prop_scale="0.26458333"
       scale_y_rel="false"
       spacing="0"
       normal_offset="0"
       tang_offset="0"
       prop_units="false"
       vertical_pattern="false"
       fuse_tolerance="0" />
    <inkscape:path-effect
       fuse_tolerance="0"
       vertical_pattern="false"
       prop_units="false"
       tang_offset="0"
       normal_offset="0"
       spacing="0"
       scale_y_rel="false"
       prop_scale="0.26458334"
       copytype="single_stretched"
       pattern="M 0,5 C 0,2.24 2.24,0 5,0 7.76,0 10,2.24 10,5 10,7.76 7.76,10 5,10 2.24,10 0,7.76 0,5 Z"
       is_visible="true"
       id="path-effect880"
       effect="skeletal" />
    <inkscape:path-effect
       fuse_tolerance="0"
       vertical_pattern="false"
       prop_units="false"
       tang_offset="0"
       normal_offset="0"
       spacing="0"
       scale_y_rel="false"
       prop_scale="0.26458334"
       copytype="single_stretched"
       pattern="M 0,5 C 0,2.24 2.24,0 5,0 7.76,0 10,2.24 10,5 10,7.76 7.76,10 5,10 2.24,10 0,7.76 0,5 Z"
       is_visible="true"
       id="path-effect876"
       effect="skeletal" />
    <inkscape:path-effect
       fuse_tolerance="0"
       vertical_pattern="false"
       prop_units="false"
       tang_offset="0"
       normal_offset="0"
       spacing="0"
       scale_y_rel="false"
       prop_scale="0.26458334"
       copytype="single_stretched"
       pattern="M 0,5 C 0,2.24 2.24,0 5,0 7.76,0 10,2.24 10,5 10,7.76 7.76,10 5,10 2.24,10 0,7.76 0,5 Z"
       is_visible="true"
       id="path-effect872"
       effect="skeletal" />
    <inkscape:path-effect
       fuse_tolerance="0"
       vertical_pattern="false"
       prop_units="false"
       tang_offset="0"
       normal_offset="0"
       spacing="0"
       scale_y_rel="false"
       prop_scale="0.26458334"
       copytype="single_stretched"
       pattern="M 0,5 C 0,2.24 2.24,0 5,0 7.76,0 10,2.24 10,5 10,7.76 7.76,10 5,10 2.24,10 0,7.76 0,5 Z"
       is_visible="true"
       id="path-effect868"
       effect="skeletal" />
    <inkscape:path-effect
       fuse_tolerance="0"
       vertical_pattern="false"
       prop_units="false"
       tang_offset="0"
       normal_offset="0"
       spacing="0"
       scale_y_rel="false"
       prop_scale="0.26458334"
       copytype="single_stretched"
       pattern="M 0,5 C 0,2.24 2.24,0 5,0 7.76,0 10,2.24 10,5 10,7.76 7.76,10 5,10 2.24,10 0,7.76 0,5 Z"
       is_visible="true"
       id="path-effect6035"
       effect="skeletal" />
    <inkscape:path-effect
       fuse_tolerance="0"
       vertical_pattern="false"
       prop_units="false"
       tang_offset="0"
       normal_offset="0"
       spacing="0"
       scale_y_rel="false"
       prop_scale="0.26458333"
       copytype="single_stretched"
       pattern="M 0,5 C 0,2.24 2.24,0 5,0 7.76,0 10,2.24 10,5 10,7.76 7.76,10 5,10 2.24,10 0,7.76 0,5 Z"
       is_visible="true"
       id="path-effect5742"
       effect="skeletal" />
    <inkscape:path-effect
       only_selected="false"
       apply_with_weight="true"
       apply_no_weight="true"
       helper_size="0"
       steps="2"
       weight="33.333333"
       is_visible="true"
       id="path-effect5740"
       effect="bspline" />
    <inkscape:path-effect
       fuse_tolerance="0"
       vertical_pattern="false"
       prop_units="false"
       tang_offset="0"
       normal_offset="0"
       spacing="0"
       scale_y_rel="false"
       prop_scale="0.26458333"
       copytype="single_stretched"
       pattern="M 0,5 C 0,2.24 2.24,0 5,0 7.76,0 10,2.24 10,5 10,7.76 7.76,10 5,10 2.24,10 0,7.76 0,5 Z"
       is_visible="true"
       id="path-effect5736"
       effect="skeletal" />
    <inkscape:path-effect
       only_selected="false"
       apply_with_weight="true"
       apply_no_weight="true"
       helper_size="0"
       steps="2"
       weight="33.333333"
       is_visible="true"
       id="path-effect5734"
       effect="bspline" />
    <inkscape:path-effect
       fuse_tolerance="0"
       vertical_pattern="false"
       prop_units="false"
       tang_offset="0"
       normal_offset="0"
       spacing="0"
       scale_y_rel="false"
       prop_scale="0.26458333"
       copytype="single_stretched"
       pattern="M 0,5 C 0,2.24 2.24,0 5,0 7.76,0 10,2.24 10,5 10,7.76 7.76,10 5,10 2.24,10 0,7.76 0,5 Z"
       is_visible="true"
       id="path-effect5730"
       effect="skeletal" />
    <inkscape:path-effect
       fuse_tolerance="0"
       vertical_pattern="false"
       prop_units="false"
       tang_offset="0"
       normal_offset="0"
       spacing="0"
       scale_y_rel="false"
       prop_scale="0.26458333"
       copytype="single_stretched"
       pattern="M 0,5 C 0,2.24 2.24,0 5,0 7.76,0 10,2.24 10,5 10,7.76 7.76,10 5,10 2.24,10 0,7.76 0,5 Z"
       is_visible="true"
       id="path-effect5726"
       effect="skeletal" />
    <inkscape:path-effect
       fuse_tolerance="0"
       vertical_pattern="false"
       prop_units="false"
       tang_offset="0"
       normal_offset="0"
       spacing="0"
       scale_y_rel="false"
       prop_scale="0.26458333"
       copytype="single_stretched"
       pattern="M 0,5 C 0,2.24 2.24,0 5,0 7.76,0 10,2.24 10,5 10,7.76 7.76,10 5,10 2.24,10 0,7.76 0,5 Z"
       is_visible="true"
       id="path-effect5722"
       effect="skeletal" />
    <inkscape:path-effect
       fuse_tolerance="0"
       vertical_pattern="false"
       prop_units="false"
       tang_offset="0"
       normal_offset="0"
       spacing="0"
       scale_y_rel="false"
       prop_scale="0.26458333"
       copytype="single_stretched"
       pattern="M 0,5 C 0,2.24 2.24,0 5,0 7.76,0 10,2.24 10,5 10,7.76 7.76,10 5,10 2.24,10 0,7.76 0,5 Z"
       is_visible="true"
       id="path-effect5718"
       effect="skeletal" />
    <inkscape:path-effect
       fuse_tolerance="0"
       vertical_pattern="false"
       prop_units="false"
       tang_offset="0"
       normal_offset="0"
       spacing="0"
       scale_y_rel="false"
       prop_scale="0.26458333"
       copytype="single_stretched"
       pattern="M 0,5 C 0,2.24 2.24,0 5,0 7.76,0 10,2.24 10,5 10,7.76 7.76,10 5,10 2.24,10 0,7.76 0,5 Z"
       is_visible="true"
       id="path-effect5714"
       effect="skeletal" />
    <inkscape:path-effect
       fuse_tolerance="0"
       vertical_pattern="false"
       prop_units="false"
       tang_offset="0"
       normal_offset="0"
       spacing="0"
       scale_y_rel="false"
       prop_scale="0.26458333"
       copytype="single_stretched"
       pattern="M 0,5 C 0,2.24 2.24,0 5,0 7.76,0 10,2.24 10,5 10,7.76 7.76,10 5,10 2.24,10 0,7.76 0,5 Z"
       is_visible="true"
       id="path-effect5710"
       effect="skeletal" />
    <inkscape:path-effect
       fuse_tolerance="0"
       vertical_pattern="false"
       prop_units="false"
       tang_offset="0"
       normal_offset="0"
       spacing="0"
       scale_y_rel="false"
       prop_scale="0.26458333"
       copytype="single_stretched"
       pattern="M 0,5 C 0,2.24 2.24,0 5,0 7.76,0 10,2.24 10,5 10,7.76 7.76,10 5,10 2.24,10 0,7.76 0,5 Z"
       is_visible="true"
       id="path-effect5706"
       effect="skeletal" />
    <inkscape:path-effect
       is_visible="true"
       id="path-effect5700"
       effect="spiro" />
    <inkscape:path-effect
       is_visible="true"
       id="path-effect5696"
       effect="spiro" />
    <inkscape:path-effect
       fuse_tolerance="0"
       vertical_pattern="false"
       prop_units="false"
       tang_offset="0"
       normal_offset="0"
       spacing="0"
       scale_y_rel="false"
       prop_scale="0.26458333"
       copytype="single_stretched"
       pattern="M 0,5 C 0,2.24 2.24,0 5,0 7.76,0 10,2.24 10,5 10,7.76 7.76,10 5,10 2.24,10 0,7.76 0,5 Z"
       is_visible="true"
       id="path-effect5692"
       effect="skeletal" />
    <inkscape:path-effect
       is_visible="true"
       id="path-effect5690"
       effect="spiro" />
    <inkscape:path-effect
       fuse_tolerance="0"
       vertical_pattern="false"
       prop_units="false"
       tang_offset="0"
       normal_offset="0"
       spacing="0"
       scale_y_rel="false"
       prop_scale="0.26458333"
       copytype="single_stretched"
       pattern="M 0,5 C 0,2.24 2.24,0 5,0 7.76,0 10,2.24 10,5 10,7.76 7.76,10 5,10 2.24,10 0,7.76 0,5 Z"
       is_visible="true"
       id="path-effect5686"
       effect="skeletal" />
    <inkscape:path-effect
       is_visible="true"
       id="path-effect5684"
       effect="spiro" />
    <inkscape:path-effect
       simplifyJustCoalesce="false"
       simplifyindividualpaths="false"
       simplify_just_coalesce="false"
       simplify_individual_paths="false"
       helper_size="0"
       smooth_angles="360"
       threshold="0.0155"
       steps="1"
       is_visible="true"
       id="path-effect5682"
       effect="simplify" />
    <inkscape:path-effect
       end_linecap_type="zerowidth"
       miter_limit="4"
       linejoin_type="extrp_arc"
       start_linecap_type="zerowidth"
       interpolator_beta="0.2"
       interpolator_type="CubicBezierJohan"
       sort_points="true"
       offset_points="0,0.13229166"
       is_visible="true"
       id="path-effect5678"
       effect="powerstroke" />
    <inkscape:path-effect
       is_visible="true"
       id="path-effect5676"
       effect="spiro" />
    <inkscape:path-effect
       simplifyJustCoalesce="false"
       simplifyindividualpaths="false"
       simplify_just_coalesce="false"
       simplify_individual_paths="false"
       helper_size="0"
       smooth_angles="360"
       threshold="0.0155"
       steps="1"
       is_visible="true"
       id="path-effect5674"
       effect="simplify" />
    <inkscape:path-effect
       fuse_tolerance="0"
       vertical_pattern="false"
       prop_units="false"
       tang_offset="0"
       normal_offset="0"
       spacing="0"
       scale_y_rel="false"
       prop_scale="0.26458333"
       copytype="single_stretched"
       pattern="M 0,5 C 0,2.24 2.24,0 5,0 7.76,0 10,2.24 10,5 10,7.76 7.76,10 5,10 2.24,10 0,7.76 0,5 Z"
       is_visible="true"
       id="path-effect5670"
       effect="skeletal" />
    <inkscape:path-effect
       is_visible="true"
       id="path-effect5668"
       effect="spiro" />
    <inkscape:path-effect
       simplifyJustCoalesce="false"
       simplifyindividualpaths="false"
       simplify_just_coalesce="false"
       simplify_individual_paths="false"
       helper_size="0"
       smooth_angles="360"
       threshold="0.0155"
       steps="1"
       is_visible="true"
       id="path-effect5666"
       effect="simplify" />
    <inkscape:path-effect
       fuse_tolerance="0"
       vertical_pattern="false"
       prop_units="false"
       tang_offset="0"
       normal_offset="0"
       spacing="0"
       scale_y_rel="false"
       prop_scale="0.26458333"
       copytype="single_stretched"
       pattern="M 0,5 C 0,2.24 2.24,0 5,0 7.76,0 10,2.24 10,5 10,7.76 7.76,10 5,10 2.24,10 0,7.76 0,5 Z"
       is_visible="true"
       id="path-effect5662"
       effect="skeletal" />
    <inkscape:path-effect
       is_visible="true"
       id="path-effect5660"
       effect="spiro" />
    <inkscape:path-effect
       simplifyJustCoalesce="false"
       simplifyindividualpaths="false"
       simplify_just_coalesce="false"
       simplify_individual_paths="false"
       helper_size="0"
       smooth_angles="360"
       threshold="0.0155"
       steps="1"
       is_visible="true"
       id="path-effect5658"
       effect="simplify" />
    <inkscape:path-effect
       fuse_tolerance="0"
       vertical_pattern="false"
       prop_units="false"
       tang_offset="0"
       normal_offset="0"
       spacing="0"
       scale_y_rel="false"
       prop_scale="0.26458333"
       copytype="single_stretched"
       pattern="M 0,5 C 0,2.24 2.24,0 5,0 7.76,0 10,2.24 10,5 10,7.76 7.76,10 5,10 2.24,10 0,7.76 0,5 Z"
       is_visible="true"
       id="path-effect5654"
       effect="skeletal" />
    <inkscape:path-effect
       is_visible="true"
       id="path-effect5652"
       effect="spiro" />
    <inkscape:path-effect
       fuse_tolerance="0"
       vertical_pattern="false"
       prop_units="false"
       tang_offset="0"
       normal_offset="0"
       spacing="0"
       scale_y_rel="false"
       prop_scale="0.26458334"
       copytype="single_stretched"
       pattern="M 0,5 C 0,2.24 2.24,0 5,0 7.76,0 10,2.24 10,5 10,7.76 7.76,10 5,10 2.24,10 0,7.76 0,5 Z"
       is_visible="true"
       id="path-effect880-8"
       effect="skeletal" />
    <inkscape:path-effect
       fuse_tolerance="0"
       vertical_pattern="false"
       prop_units="false"
       tang_offset="0"
       normal_offset="0"
       spacing="0"
       scale_y_rel="false"
       prop_scale="0.26458334"
       copytype="single_stretched"
       pattern="M 0,5 C 0,2.24 2.24,0 5,0 7.76,0 10,2.24 10,5 10,7.76 7.76,10 5,10 2.24,10 0,7.76 0,5 Z"
       is_visible="true"
       id="path-effect876-7"
       effect="skeletal" />
    <inkscape:path-effect
       fuse_tolerance="0"
       vertical_pattern="false"
       prop_units="false"
       tang_offset="0"
       normal_offset="0"
       spacing="0"
       scale_y_rel="false"
       prop_scale="0.26458334"
       copytype="single_stretched"
       pattern="M 0,5 C 0,2.24 2.24,0 5,0 7.76,0 10,2.24 10,5 10,7.76 7.76,10 5,10 2.24,10 0,7.76 0,5 Z"
       is_visible="true"
       id="path-effect872-7"
       effect="skeletal" />
    <inkscape:path-effect
       fuse_tolerance="0"
       vertical_pattern="false"
       prop_units="false"
       tang_offset="0"
       normal_offset="0"
       spacing="0"
       scale_y_rel="false"
       prop_scale="0.26458334"
       copytype="single_stretched"
       pattern="M 0,5 C 0,2.24 2.24,0 5,0 7.76,0 10,2.24 10,5 10,7.76 7.76,10 5,10 2.24,10 0,7.76 0,5 Z"
       is_visible="true"
       id="path-effect868-0"
       effect="skeletal" />
    <inkscape:path-effect
       fuse_tolerance="0"
       vertical_pattern="false"
       prop_units="false"
       tang_offset="0"
       normal_offset="0"
       spacing="0"
       scale_y_rel="false"
       prop_scale="0.26458334"
       copytype="single_stretched"
       pattern="M 0,5 C 0,2.24 2.24,0 5,0 7.76,0 10,2.24 10,5 10,7.76 7.76,10 5,10 2.24,10 0,7.76 0,5 Z"
       is_visible="true"
       id="path-effect6035-8"
       effect="skeletal" />
    <inkscape:path-effect
       fuse_tolerance="0"
       vertical_pattern="false"
       prop_units="false"
       tang_offset="0"
       normal_offset="0"
       spacing="0"
       scale_y_rel="false"
       prop_scale="0.26458333"
       copytype="single_stretched"
       pattern="M 0,5 C 0,2.24 2.24,0 5,0 7.76,0 10,2.24 10,5 10,7.76 7.76,10 5,10 2.24,10 0,7.76 0,5 Z"
       is_visible="true"
       id="path-effect5742-2"
       effect="skeletal" />
    <inkscape:path-effect
       only_selected="false"
       apply_with_weight="true"
       apply_no_weight="true"
       helper_size="0"
       steps="2"
       weight="33.333333"
       is_visible="true"
       id="path-effect5740-8"
       effect="bspline" />
    <inkscape:path-effect
       fuse_tolerance="0"
       vertical_pattern="false"
       prop_units="false"
       tang_offset="0"
       normal_offset="0"
       spacing="0"
       scale_y_rel="false"
       prop_scale="0.26458333"
       copytype="single_stretched"
       pattern="M 0,5 C 0,2.24 2.24,0 5,0 7.76,0 10,2.24 10,5 10,7.76 7.76,10 5,10 2.24,10 0,7.76 0,5 Z"
       is_visible="true"
       id="path-effect5736-3"
       effect="skeletal" />
    <inkscape:path-effect
       only_selected="false"
       apply_with_weight="true"
       apply_no_weight="true"
       helper_size="0"
       steps="2"
       weight="33.333333"
       is_visible="true"
       id="path-effect5734-9"
       effect="bspline" />
    <inkscape:path-effect
       fuse_tolerance="0"
       vertical_pattern="false"
       prop_units="false"
       tang_offset="0"
       normal_offset="0"
       spacing="0"
       scale_y_rel="false"
       prop_scale="0.26458333"
       copytype="single_stretched"
       pattern="M 0,5 C 0,2.24 2.24,0 5,0 7.76,0 10,2.24 10,5 10,7.76 7.76,10 5,10 2.24,10 0,7.76 0,5 Z"
       is_visible="true"
       id="path-effect5730-6"
       effect="skeletal" />
    <inkscape:path-effect
       fuse_tolerance="0"
       vertical_pattern="false"
       prop_units="false"
       tang_offset="0"
       normal_offset="0"
       spacing="0"
       scale_y_rel="false"
       prop_scale="0.26458333"
       copytype="single_stretched"
       pattern="M 0,5 C 0,2.24 2.24,0 5,0 7.76,0 10,2.24 10,5 10,7.76 7.76,10 5,10 2.24,10 0,7.76 0,5 Z"
       is_visible="true"
       id="path-effect5726-0"
       effect="skeletal" />
    <inkscape:path-effect
       fuse_tolerance="0"
       vertical_pattern="false"
       prop_units="false"
       tang_offset="0"
       normal_offset="0"
       spacing="0"
       scale_y_rel="false"
       prop_scale="0.26458333"
       copytype="single_stretched"
       pattern="M 0,5 C 0,2.24 2.24,0 5,0 7.76,0 10,2.24 10,5 10,7.76 7.76,10 5,10 2.24,10 0,7.76 0,5 Z"
       is_visible="true"
       id="path-effect5722-4"
       effect="skeletal" />
    <inkscape:path-effect
       fuse_tolerance="0"
       vertical_pattern="false"
       prop_units="false"
       tang_offset="0"
       normal_offset="0"
       spacing="0"
       scale_y_rel="false"
       prop_scale="0.26458333"
       copytype="single_stretched"
       pattern="M 0,5 C 0,2.24 2.24,0 5,0 7.76,0 10,2.24 10,5 10,7.76 7.76,10 5,10 2.24,10 0,7.76 0,5 Z"
       is_visible="true"
       id="path-effect5718-0"
       effect="skeletal" />
    <inkscape:path-effect
       fuse_tolerance="0"
       vertical_pattern="false"
       prop_units="false"
       tang_offset="0"
       normal_offset="0"
       spacing="0"
       scale_y_rel="false"
       prop_scale="0.26458333"
       copytype="single_stretched"
       pattern="M 0,5 C 0,2.24 2.24,0 5,0 7.76,0 10,2.24 10,5 10,7.76 7.76,10 5,10 2.24,10 0,7.76 0,5 Z"
       is_visible="true"
       id="path-effect5714-8"
       effect="skeletal" />
    <inkscape:path-effect
       fuse_tolerance="0"
       vertical_pattern="false"
       prop_units="false"
       tang_offset="0"
       normal_offset="0"
       spacing="0"
       scale_y_rel="false"
       prop_scale="0.26458333"
       copytype="single_stretched"
       pattern="M 0,5 C 0,2.24 2.24,0 5,0 7.76,0 10,2.24 10,5 10,7.76 7.76,10 5,10 2.24,10 0,7.76 0,5 Z"
       is_visible="true"
       id="path-effect5710-6"
       effect="skeletal" />
    <inkscape:path-effect
       fuse_tolerance="0"
       vertical_pattern="false"
       prop_units="false"
       tang_offset="0"
       normal_offset="0"
       spacing="0"
       scale_y_rel="false"
       prop_scale="0.26458333"
       copytype="single_stretched"
       pattern="M 0,5 C 0,2.24 2.24,0 5,0 7.76,0 10,2.24 10,5 10,7.76 7.76,10 5,10 2.24,10 0,7.76 0,5 Z"
       is_visible="true"
       id="path-effect5706-9"
       effect="skeletal" />
    <inkscape:path-effect
       is_visible="true"
       id="path-effect5700-5"
       effect="spiro" />
    <inkscape:path-effect
       is_visible="true"
       id="path-effect5696-0"
       effect="spiro" />
    <inkscape:path-effect
       fuse_tolerance="0"
       vertical_pattern="false"
       prop_units="false"
       tang_offset="0"
       normal_offset="0"
       spacing="0"
       scale_y_rel="false"
       prop_scale="0.26458333"
       copytype="single_stretched"
       pattern="M 0,5 C 0,2.24 2.24,0 5,0 7.76,0 10,2.24 10,5 10,7.76 7.76,10 5,10 2.24,10 0,7.76 0,5 Z"
       is_visible="true"
       id="path-effect5692-5"
       effect="skeletal" />
    <inkscape:path-effect
       is_visible="true"
       id="path-effect5690-8"
       effect="spiro" />
    <inkscape:path-effect
       fuse_tolerance="0"
       vertical_pattern="false"
       prop_units="false"
       tang_offset="0"
       normal_offset="0"
       spacing="0"
       scale_y_rel="false"
       prop_scale="0.26458333"
       copytype="single_stretched"
       pattern="M 0,5 C 0,2.24 2.24,0 5,0 7.76,0 10,2.24 10,5 10,7.76 7.76,10 5,10 2.24,10 0,7.76 0,5 Z"
       is_visible="true"
       id="path-effect5686-6"
       effect="skeletal" />
    <inkscape:path-effect
       is_visible="true"
       id="path-effect5684-0"
       effect="spiro" />
    <inkscape:path-effect
       simplifyJustCoalesce="false"
       simplifyindividualpaths="false"
       simplify_just_coalesce="false"
       simplify_individual_paths="false"
       helper_size="0"
       smooth_angles="360"
       threshold="0.0155"
       steps="1"
       is_visible="true"
       id="path-effect5682-1"
       effect="simplify" />
    <inkscape:path-effect
       end_linecap_type="zerowidth"
       miter_limit="4"
       linejoin_type="extrp_arc"
       start_linecap_type="zerowidth"
       interpolator_beta="0.2"
       interpolator_type="CubicBezierJohan"
       sort_points="true"
       offset_points="0,0.13229166"
       is_visible="true"
       id="path-effect5678-3"
       effect="powerstroke" />
    <inkscape:path-effect
       is_visible="true"
       id="path-effect5676-0"
       effect="spiro" />
    <inkscape:path-effect
       simplifyJustCoalesce="false"
       simplifyindividualpaths="false"
       simplify_just_coalesce="false"
       simplify_individual_paths="false"
       helper_size="0"
       smooth_angles="360"
       threshold="0.0155"
       steps="1"
       is_visible="true"
       id="path-effect5674-8"
       effect="simplify" />
    <inkscape:path-effect
       fuse_tolerance="0"
       vertical_pattern="false"
       prop_units="false"
       tang_offset="0"
       normal_offset="0"
       spacing="0"
       scale_y_rel="false"
       prop_scale="0.26458333"
       copytype="single_stretched"
       pattern="M 0,5 C 0,2.24 2.24,0 5,0 7.76,0 10,2.24 10,5 10,7.76 7.76,10 5,10 2.24,10 0,7.76 0,5 Z"
       is_visible="true"
       id="path-effect5670-9"
       effect="skeletal" />
    <inkscape:path-effect
       is_visible="true"
       id="path-effect5668-9"
       effect="spiro" />
    <inkscape:path-effect
       simplifyJustCoalesce="false"
       simplifyindividualpaths="false"
       simplify_just_coalesce="false"
       simplify_individual_paths="false"
       helper_size="0"
       smooth_angles="360"
       threshold="0.0155"
       steps="1"
       is_visible="true"
       id="path-effect5666-6"
       effect="simplify" />
    <inkscape:path-effect
       fuse_tolerance="0"
       vertical_pattern="false"
       prop_units="false"
       tang_offset="0"
       normal_offset="0"
       spacing="0"
       scale_y_rel="false"
       prop_scale="0.26458333"
       copytype="single_stretched"
       pattern="M 0,5 C 0,2.24 2.24,0 5,0 7.76,0 10,2.24 10,5 10,7.76 7.76,10 5,10 2.24,10 0,7.76 0,5 Z"
       is_visible="true"
       id="path-effect5662-3"
       effect="skeletal" />
    <inkscape:path-effect
       is_visible="true"
       id="path-effect5660-1"
       effect="spiro" />
    <inkscape:path-effect
       simplifyJustCoalesce="false"
       simplifyindividualpaths="false"
       simplify_just_coalesce="false"
       simplify_individual_paths="false"
       helper_size="0"
       smooth_angles="360"
       threshold="0.0155"
       steps="1"
       is_visible="true"
       id="path-effect5658-7"
       effect="simplify" />
    <inkscape:path-effect
       fuse_tolerance="0"
       vertical_pattern="false"
       prop_units="false"
       tang_offset="0"
       normal_offset="0"
       spacing="0"
       scale_y_rel="false"
       prop_scale="0.26458333"
       copytype="single_stretched"
       pattern="M 0,5 C 0,2.24 2.24,0 5,0 7.76,0 10,2.24 10,5 10,7.76 7.76,10 5,10 2.24,10 0,7.76 0,5 Z"
       is_visible="true"
       id="path-effect5654-8"
       effect="skeletal" />
    <inkscape:path-effect
       is_visible="true"
       id="path-effect5652-9"
       effect="spiro" />
    <filter
       style="color-interpolation-filters:sRGB;"
       inkscape:label="Feather"
       id="filter1018">
      <feGaussianBlur
         stdDeviation="4"
         result="blur"
         id="feGaussianBlur1010" />
      <feComposite
         in="SourceGraphic"
         in2="blur"
         operator="atop"
         result="composite1"
         id="feComposite1012" />
      <feComposite
         in2="composite1"
         operator="in"
         result="composite2"
         id="feComposite1014" />
      <feComposite
         in2="composite2"
         operator="in"
         result="composite3"
         id="feComposite1016" />
    </filter>
  </defs>
  <sodipodi:namedview
     id="base"
     pagecolor="#ffffff"
     bordercolor="#666666"
     borderopacity="1.0"
     inkscape:pageopacity="1"
     inkscape:pageshadow="2"
     inkscape:zoom="2.7577724"
     inkscape:cx="245.66929"
     inkscape:cy="151.1811"
     inkscape:document-units="mm"
     inkscape:current-layer="layer1"
     showgrid="true"
     units="mm"
     inkscape:window-width="1920"
     inkscape:window-height="1002"
     inkscape:window-x="-6"
     inkscape:window-y="-6"
     inkscape:window-maximized="1"
     inkscape:snap-global="false"
     showguides="true"
     inkscape:guide-bbox="true" />
  <metadata
     id="metadata5">
    <rdf:RDF>
      <cc:Work
         rdf:about="">
        <dc:format>image/svg+xml</dc:format>
        <dc:type
           rdf:resource="http://purl.org/dc/dcmitype/StillImage" />
        <dc:title />
      </cc:Work>
    </rdf:RDF>
  </metadata>
  <g
     inkscape:groupmode="layer"
     id="layer3"
     inkscape:label="background"
     transform="translate(0,-978.33339)"
     sodipodi:insensitive="true" />
  <g
     inkscape:groupmode="layer"
     id="layer2"
     inkscape:label="traco"
     style="display:inline"
     transform="translate(0,-978.33339)" />
  <g
     inkscape:label="Layer 1"
     inkscape:groupmode="layer"
     id="layer1"
     transform="translate(0,-217.00003)"
     style="display:inline">
    <g
       inkscape:label="Layer 1"
       id="layer1-6"
       transform="matrix(0.81718323,-0.01912633,0.03109595,0.80241405,239.94375,-282.14288)"
       style="display:inline" />
    <text
       id="text918"
       y="-221.23634"
       x="329.49503"
       style="font-style:normal;font-weight:normal;font-size:8.57389832px;line-height:1.25;font-family:sans-serif;letter-spacing:0px;word-spacing:0px;fill:#000000;fill-opacity:1;stroke:none;stroke-width:0.21434745"
       xml:space="preserve"
       transform="matrix(1.0087037,-0.0236089,0.0383838,0.99047307,0,0)"><tspan
         style="stroke-width:0.21434745"
         y="-213.41412"
         x="329.49503"
         id="tspan916"
         sodipodi:role="line" /></text>
    <flowRoot
       transform="matrix(0.21621306,-0.00506051,0.00822747,0.21230538,240.75224,-261.28011)"
       style="font-style:normal;font-weight:normal;font-size:40px;line-height:1.25;font-family:sans-serif;letter-spacing:0px;word-spacing:0px;fill:#000000;fill-opacity:1;stroke:none"
       id="flowRoot920"
       xml:space="preserve"><flowRegion
         id="flowRegion922"><rect
           y="333.3934"
           x="174.52002"
           height="63.790077"
           width="315.33963"
           id="rect924" /></flowRegion><flowPara
         id="flowPara926" /></flowRoot>    <g
       transform="matrix(0.48848714,-0.01143313,0.01858821,0.47965857,246.17244,-244.71099)"
       id="g6563"
       style="display:inline">
      <g
         id="g6567" />
    </g>
    <flowRoot
       xml:space="preserve"
       id="flowRoot951"
       style="font-style:normal;font-variant:normal;font-weight:bold;font-stretch:normal;font-size:29.33333397px;line-height:1.25;font-family:Chiller;-inkscape-font-specification:'Chiller Bold';letter-spacing:0px;word-spacing:0px;fill:#000000;fill-opacity:1;stroke:none"><flowRegion
         id="flowRegion953"><rect
           id="rect955"
           width="729.72345"
           height="1026.501"
           x="-1417.549"
           y="355.23462" /></flowRegion><flowPara
         id="flowPara957" /></flowRoot>    <flowRoot
       xml:space="preserve"
       id="flowRoot134"
       style="font-style:normal;font-weight:normal;font-size:40px;line-height:1.25;font-family:sans-serif;letter-spacing:0px;word-spacing:0px;fill:#000000;fill-opacity:1;stroke:none"><flowRegion
         id="flowRegion136"><rect
           id="rect138"
           width="355.5163"
           height="274.04382"
           x="-1059.1423"
           y="885.34137" /></flowRegion><flowPara
         id="flowPara140" /></flowRoot>    <flowRoot
       xml:space="preserve"
       id="flowRoot142"
       style="font-style:normal;font-variant:normal;font-weight:normal;font-stretch:normal;font-size:40px;line-height:1.25;font-family:Chiller;-inkscape-font-specification:Chiller;letter-spacing:0px;word-spacing:0px;fill:#000000;fill-opacity:1;stroke:none"><flowRegion
         id="flowRegion144"
         style="font-style:normal;font-variant:normal;font-weight:normal;font-stretch:normal;font-family:Chiller;-inkscape-font-specification:Chiller"><rect
           id="rect146"
           width="496.24152"
           height="155.53838"
           x="-748.06555"
           y="868.05933"
           style="font-style:normal;font-variant:normal;font-weight:normal;font-stretch:normal;font-family:Chiller;-inkscape-font-specification:Chiller" /></flowRegion><flowPara
         id="flowPara148" /></flowRoot>    <flowRoot
       xml:space="preserve"
       id="flowRoot952"
       style="font-style:normal;font-variant:normal;font-weight:bold;font-stretch:normal;font-size:29.33333397px;line-height:1.25;font-family:Chiller;-inkscape-font-specification:'Chiller Bold';letter-spacing:0px;word-spacing:0px;fill:#000000;fill-opacity:1;stroke:none"><flowRegion
         id="flowRegion954"><rect
           id="rect956"
           width="154.70851"
           height="128.92377"
           x="-979.82062"
           y="327.46637" /></flowRegion><flowPara
         id="flowPara958" /></flowRoot>    <g
       aria-label="S"
       style="font-style:normal;font-variant:normal;font-weight:bold;font-stretch:normal;font-size:50.79999924px;line-height:1.25;font-family:'Bauhaus 93';-inkscape-font-specification:'Bauhaus 93 Bold';letter-spacing:0px;word-spacing:0px;fill:#000000;fill-opacity:1;stroke:none;stroke-width:0.26458332;stroke-opacity:1"
       id="text962"
       transform="matrix(4.5091605,0,0,4.5091605,582.40113,756.62115)" />
    <text
       xml:space="preserve"
       style="font-style:normal;font-variant:normal;font-weight:bold;font-stretch:normal;font-size:50.79999924px;line-height:1.25;font-family:'Bauhaus 93';-inkscape-font-specification:'Bauhaus 93 Bold';letter-spacing:0px;word-spacing:0px;fill:#000000;fill-opacity:1;stroke:none;stroke-width:0.26458332"
       x="-237.4131"
       y="-125.97742"
       id="text1153"><tspan
         sodipodi:role="line"
         id="tspan1151"
         x="-237.4131"
         y="-79.281082"
         style="stroke-width:0.26458332" /></text>
    <flowRoot
       xml:space="preserve"
       id="flowRoot1006"
       style="font-style:normal;font-variant:normal;font-weight:bold;font-stretch:normal;font-size:16px;line-height:1.25;font-family:'Bauhaus 93';-inkscape-font-specification:'Bauhaus 93 Bold';letter-spacing:0px;word-spacing:0px;fill:#000000;fill-opacity:1;stroke:none"><flowRegion
         id="flowRegion1008"><rect
           id="rect1010"
           width="59.753525"
           height="40.77774"
           x="26.646841"
           y="62.540642" /></flowRegion><flowPara
         id="flowPara1012" /></flowRoot>    <text
       xml:space="preserve"
       style="font-style:normal;font-variant:normal;font-weight:bold;font-stretch:normal;font-size:4.23333311px;line-height:1.25;font-family:'Bauhaus 93';-inkscape-font-specification:'Bauhaus 93 Bold';letter-spacing:0px;word-spacing:0px;fill:#000000;fill-opacity:1;stroke:none;stroke-width:0.26458332"
       x="23.113766"
       y="262.556"
       id="text1134"><tspan
         sodipodi:role="line"
         id="tspan1132"
         x="23.113766"
         y="266.44736"
         style="stroke-width:0.26458332" /></text>
    <rect
       style="opacity:1;fill:none;fill-opacity:1;stroke:#000000;stroke-width:0.7;stroke-linejoin:round;stroke-miterlimit:4;stroke-dasharray:none;stroke-dashoffset:0;stroke-opacity:1"
       id="rect1144"
       width="129.78973"
       height="79.789726"
       x="0.10513594"
       y="217.10516" />
    <g
       id="g1034"
       transform="translate(-4.2333335)">
      <g
         transform="matrix(0.85864051,0,0,0.85864051,20.271308,41.709194)"
         id="g1029">
        <flowRoot
           xml:space="preserve"
           id="flowRoot138"
           style="font-style:normal;font-weight:normal;font-size:40px;line-height:1.25;font-family:sans-serif;letter-spacing:0px;word-spacing:0px;fill:#000000;fill-opacity:1;stroke:none"
           transform="matrix(0.08581457,0,0,0.08581457,262.52993,201.01202)"><flowRegion
             id="flowRegion140"><rect
               id="rect142"
               width="981.11145"
               height="401.52246"
               x="-1969.2059"
               y="854.5191" /></flowRegion><flowPara
             id="flowPara144"
             style="font-style:normal;font-variant:normal;font-weight:normal;font-stretch:semi-expanded;font-size:192px;font-family:Chiller;-inkscape-font-specification:'Chiller Semi-Expanded'">Swart</flowPara></flowRoot>        <flowRoot
           xml:space="preserve"
           id="flowRoot150"
           style="font-style:normal;font-variant:normal;font-weight:normal;font-stretch:normal;font-size:40px;line-height:1.25;font-family:Chiller;-inkscape-font-specification:Chiller;letter-spacing:0px;word-spacing:0px;fill:#000000;fill-opacity:1;stroke:none"
           transform="matrix(0.12099803,0,0,0.12099803,226.63073,195.59938)"><flowRegion
             id="flowRegion152"><rect
               id="rect154"
               width="474"
               height="144"
               x="-894"
               y="738" /></flowRegion><flowPara
             id="flowPara160">2018</flowPara></flowRoot>      </g>
      <g
         transform="translate(3.7041668,7.1585323e-6)"
         id="g1069">
        <path
           id="path1155-4-1"
           style="display:inline;opacity:1;fill:none;fill-opacity:1;stroke:#000000;stroke-width:0.46726838;stroke-miterlimit:4;stroke-dasharray:0.93453678, 0.46726839;stroke-dashoffset:0;stroke-opacity:1"
           d="m 88.753214,282.08139 c 7.526466,0 27.174286,-6.10096 27.174286,-13.62743 0,-7.52647 -5.78219,-9.80074 -13.62743,-13.62611 -8.323419,-3.82537 -13.626111,-6.10096 -13.626111,-13.62743 0,-7.52646 19.330361,-13.62611 26.856821,-13.62611"
           inkscape:connector-curvature="0"
           sodipodi:nodetypes="cscsc" />
        <g
           id="g980"
           transform="matrix(0.12394366,0,0,0.12394366,71.341932,256.2282)">
          <path
             style="opacity:1;fill:#009c3b;fill-opacity:1;stroke:none;stroke-width:1.5;stroke-miterlimit:4;stroke-dasharray:none;stroke-opacity:1"
             d="m 81.135772,94.786379 c -0.538824,-0.03487 -1.218591,0.460735 -1.919779,1.437121 -1.1322,1.576565 -2.455476,2.165117 -5.374865,2.389518 -2.550411,0.196041 -2.509642,0.179168 -3.33158,1.35599 -0.33032,0.472942 -0.741133,0.857842 -0.913123,0.855242 -0.171989,-0.003 -0.838239,-0.36112 -1.480531,-0.79633 -0.6423,-0.435213 -1.629651,-0.929505 -2.194179,-1.09864 -1.411822,-0.422994 -1.899486,0.0695 -1.858285,1.8774 0.03879,1.70305 0.338195,2.26794 1.992127,3.76101 1.25167,1.12994 1.334079,1.27665 1.057299,1.88413 -0.18674,0.40985 -1.182862,1.15593 -2.636531,1.97507 -1.285012,0.7241 -3.229258,1.834 -4.320667,2.46652 -1.921481,1.11358 -2.059122,1.15069 -4.347022,1.1746 -2.311889,0.0242 -2.38116,0.007 -3.197219,-0.80925 -0.467911,-0.46791 -0.985605,-1.37663 -1.179775,-2.07016 -0.502391,-1.79435 -1.329647,-2.35725 -3.178617,-2.16317 -0.802521,0.0842 -2.887575,0.22497 -4.633825,0.31264 -1.74625,0.0877 -3.32383,0.28099 -3.505729,0.42943 -0.659281,0.53799 -0.377859,1.51836 0.60203,2.09651 0.513091,0.30273 1.048639,0.7666 1.190107,1.03095 0.365982,0.68383 -0.348033,1.31103 -1.492414,1.31103 -0.910389,0 -2.217952,0.93374 -2.217952,1.58388 0,0.52444 0.715269,1.97491 1.66243,3.37034 1.38112,2.03477 1.444998,2.6685 0.476456,4.73821 -0.44881,0.95909 -0.815969,2.0474 -0.815969,2.41846 0,0.37105 -0.171543,1.28067 -0.381373,2.02106 -0.209831,0.74039 -0.642441,2.47727 -0.961181,3.85971 -0.838682,3.63743 -0.739762,3.52341 -2.87631,3.30885 -1.330221,-0.13359 -2.111195,-0.0719 -3.029272,0.23977 -0.680382,0.231 -1.742128,0.42013 -2.359547,0.42013 -0.79516,0 -1.254675,0.15434 -1.575614,0.52917 -0.249201,0.29104 -0.621208,0.52917 -0.826307,0.52917 -0.205111,0 -0.963499,0.64595 -1.685169,1.43557 -1.086239,1.18851 -1.436171,1.83761 -2.0345,3.77031 -0.53775,1.73701 -0.929649,2.51668 -1.530139,3.04633 -1.10233,0.97228 -1.787275,2.0681 -1.788005,2.86029 -3.44e-4,0.3638 0.355846,1.19723 0.791166,1.85208 0.43532,0.65485 0.792097,1.42437 0.792717,1.70998 6.08e-4,0.28561 0.489872,1.50604 1.087272,2.71198 0.97033,1.95878 1.20975,2.24718 2.24534,2.70526 0.818911,0.36225 1.291187,0.7894 1.608687,1.45521 0.570032,1.19538 0.880137,1.18852 4.055568,-0.0878 1.382451,-0.55568 2.580153,-0.97471 2.661851,-0.93121 0.08173,0.0435 0.0455,1.05728 -0.08061,2.25309 -0.424662,4.02702 0.129069,4.38605 6.19652,4.01733 3.581281,-0.21765 3.953468,-0.28979 4.905127,-0.9493 0.56642,-0.39252 1.287229,-0.71365 1.60197,-0.71365 0.314751,0 1.161568,-0.52328 1.881539,-1.16272 1.460659,-1.29728 2.309667,-1.62918 4.735626,-1.8526 1.624732,-0.14962 1.667717,-0.13735 1.939417,0.57102 0.19485,0.50857 0.192262,1.15123 -0.0083,2.15749 -0.41339,2.07432 -0.353626,4.42875 0.138494,5.46582 0.56752,1.19596 2.368272,3.21281 3.297473,3.69332 0.41267,0.2134 1.142986,0.38807 1.623158,0.38808 0.607668,4e-5 1.516181,0.42195 2.989479,1.38803 1.164172,0.76338 2.473198,1.44796 2.908869,1.52136 0.545719,0.0919 0.991743,0.44198 1.433502,1.12551 0.59622,0.92249 0.731721,0.99219 1.927532,0.99219 1.479179,0 4.143128,1.19856 4.823478,2.16989 0.563309,0.80424 0.583364,4.65186 0.02791,5.38624 -0.213651,0.28247 -0.391875,0.97387 -0.396875,1.53634 -0.0069,0.83452 0.15998,1.17735 0.90847,1.86293 1.131631,1.03654 2.923183,1.67642 5.124752,1.8309 2.14263,0.15034 2.36193,0.36408 1.95027,1.90324 -0.649232,2.42741 -0.556199,2.61451 2.043803,4.10208 0.68203,0.39021 0.701088,3.22843 0.03204,4.78368 -0.318731,0.74091 -0.513099,1.52069 -0.431499,1.73323 0.08156,0.21254 -0.07691,0.82832 -0.352433,1.36839 -0.551931,1.08186 -1.082106,5.40014 -1.082106,8.81703 0,1.89088 0.05408,2.09965 0.639239,2.48306 0.351409,0.23025 1.572971,0.51278 2.714564,0.62787 4.091318,0.41243 5.571347,2.09644 5.222936,5.94123 -0.22083,2.43693 0.09775,2.88982 1.76785,2.51458 0.86764,-0.19495 1.234136,-0.15829 1.741496,0.17415 0.97338,0.63778 1.016777,1.05542 0.394808,3.79563 l -0.573093,2.52647 0.909506,0.93637 c 1.3511,1.39103 1.546976,2.12741 1.195276,4.49017 -0.163981,1.10161 -0.425551,2.26723 -0.581358,2.59054 -0.176692,0.36664 -1.288304,1.07625 -2.954343,1.88515 -1.741289,0.84544 -3.363831,1.89142 -4.66018,3.00499 -2.515511,2.16081 -5.022951,5.00386 -5.022951,5.69526 0,0.29202 0.535787,1.32978 1.190625,2.30632 0.85176,1.2702 1.190625,2.04179 1.190625,2.71094 0,0.87426 0.04752,0.92704 0.727604,0.81029 0.400182,-0.0687 0.941089,-0.21549 1.201478,-0.3266 0.36671,-0.15648 0.873729,0.20889 2.248959,1.62006 0.976529,1.00206 2.3412,2.32878 3.032889,2.94866 0.6917,0.61987 1.469094,1.57078 1.727544,2.11305 0.462079,0.96957 0.492747,0.9845 1.825728,0.9033 0.76231,-0.0464 1.431407,0.0404 1.529104,0.19844 0.441211,0.71389 1.017765,0.15769 1.970424,-1.9017 0.772481,-1.66987 1.504291,-2.70808 3.114541,-4.41781 l 2.10478,-2.23501 0.82269,0.34106 c 1.23984,0.51357 1.81577,0.16767 2.87476,-1.72599 0.52922,-0.94633 1.82045,-2.57607 2.86959,-3.62148 2.29865,-2.29049 2.64327,-3.1445 3.20652,-7.95352 0.26798,-2.28805 0.61264,-3.91513 1.04955,-4.95319 0.35784,-0.85018 0.6506,-1.78508 0.6506,-2.07739 0,-0.47591 0.0716,-0.49841 0.68575,-0.21859 0.63592,0.28974 0.75129,0.23358 1.58233,-0.76688 0.59913,-0.72127 1.40199,-1.2837 2.42259,-1.69705 0.83972,-0.34009 2.15169,-1.05539 2.91559,-1.58957 1.13012,-0.79028 1.72168,-1.00654 3.175,-1.16065 1.68288,-0.17846 3.44576,-0.71437 3.76152,-1.1436 0.0779,-0.10583 0.53755,-0.51787 1.02165,-0.91571 1.022,-0.83987 2.13032,-0.93089 3.64215,-0.29921 3.25244,1.35895 8.94731,-1.27006 11.49697,-5.30716 0.71653,-1.13455 1.44691,-1.9162 2.20607,-2.3611 0.66699,-0.39088 1.89744,-1.62575 2.9838,-2.99465 2.40658,-3.03255 2.30402,-2.82469 2.48873,-5.03535 0.15393,-1.84207 0.20794,-1.96413 1.46503,-3.30729 2.1025,-2.24646 2.90688,-4.96769 4.21835,-14.2658 0.36673,-2.6001 0.74054,-4.93514 0.83044,-5.18883 0.30697,-0.86586 1.00728,-1.44093 2.67426,-2.19676 2.23715,-1.01437 4.21944,-3.06643 5.02708,-5.20434 0.80346,-2.12686 1.50544,-2.82771 3.37912,-3.3724 2.31147,-0.67196 3.33415,-1.28523 4.21628,-2.52853 0.43656,-0.61531 1.71445,-2.1166 2.84014,-3.33623 3.2411,-3.51157 3.75901,-5.07212 3.01945,-9.10022 -0.22612,-1.23161 -0.49164,-2.98446 -0.59014,-3.89537 -0.20657,-1.91034 -1.23345,-3.7791 -2.41019,-4.3863 -0.40847,-0.21077 -1.57603,-0.58954 -2.59468,-0.84181 -3.08697,-0.76446 -2.84992,-0.54182 -7.90236,-7.42228 -0.83833,-1.14164 -1.61084,-1.8885 -2.21382,-2.14044 -0.50937,-0.21283 -1.2239,-0.74086 -1.58801,-1.17357 -1.17159,-1.39235 -1.80826,-1.56405 -5.54282,-1.49345 -3.26219,0.0617 -3.44559,0.0359 -4.84569,-0.68317 -0.80037,-0.41107 -1.69334,-0.96874 -1.98438,-1.2392 -1.36899,-1.27218 -2.95098,-1.34098 -6.27248,-0.27285 -1.3397,0.43083 -2.46881,0.75012 -2.50941,0.70952 -0.0406,-0.0406 0.17619,-1.04593 0.48162,-2.23397 0.30544,-1.18804 0.49206,-2.32445 0.41496,-2.52543 -0.0771,-0.20098 -1.01328,-0.8629 -2.08049,-1.47071 -1.0672,-0.60781 -2.3455,-1.39794 -2.84014,-1.75597 -1.43122,-1.03594 -5.54667,-2.23922 -7.63622,-2.23242 -2.09991,0.007 -3.3664,0.50765 -5.67666,2.24431 -0.87038,0.65427 -1.6818,1.18959 -1.80299,1.18959 -0.12119,0 -0.4678,-0.34798 -0.77049,-0.77308 l -0.55036,-0.77256 1.39216,-0.64131 c 1.73257,-0.79784 4.69946,-3.25281 4.69946,-3.88865 0,-0.31662 -0.46059,-0.6786 -1.38906,-1.0914 -1.17601,-0.52286 -1.83705,-0.61917 -4.30982,-0.62787 l -2.92075,-0.0104 -2.09651,1.38906 c -2.00495,1.32843 -3.57136,1.80287 -3.57136,1.08159 0,-0.58149 1.61084,-2.81684 2.89646,-4.01939 0.70801,-0.66227 1.9497,-1.62808 2.75952,-2.14613 1.49509,-0.95639 2.01694,-1.58408 2.01694,-2.42672 0,-0.2573 0.37774,-0.85762 0.83974,-1.33429 l 0.84026,-0.86713 -1.0387,-0.42788 c -2.57613,-1.06155 -2.73736,-1.18348 -2.8975,-2.19004 -0.1361,-0.85544 -1.29589,-6.03303 -1.62367,-7.24918 -0.4235,-1.57129 -3.79305,0.93203 -3.79305,2.81792 0,0.79136 -0.11329,0.95039 -0.8599,1.20665 -0.47294,0.16233 -1.09825,0.67413 -1.38958,1.13739 -0.73986,1.17655 -1.56172,1.51014 -3.72793,1.51464 -2.24464,0.005 -4.16019,-0.52287 -5.10511,-1.40611 -0.98264,-0.9185 -4.043107,-1.44106 -4.952157,-0.84543 -0.348761,0.22852 -0.634069,0.53014 -0.634069,0.67024 0,0.1401 -0.473937,0.56857 -1.053166,0.95188 -0.996331,0.65934 -1.171197,0.68734 -3.241146,0.51883 -1.612741,-0.13128 -2.674924,-0.0654 -4.040063,0.25115 -1.018651,0.2362 -2.51792,0.49365 -3.33158,0.57206 -1.374341,0.13244 -1.54573,0.0844 -2.416389,-0.68006 -1.31218,-1.15211 -2.381875,-3.50137 -2.422076,-5.32009 -0.02625,-1.18661 0.153271,-1.83532 0.97255,-3.51503 l 1.004592,-2.060341 -0.950847,-1.111044 c -0.818965,-0.956828 -0.929738,-1.240867 -0.794747,-2.041266 0.10101,-0.598924 0.02593,-1.108543 -0.210839,-1.431951 -0.175426,-0.239641 -0.391218,-0.365009 -0.636137,-0.380857 z"
             id="rect1456"
             inkscape:connector-curvature="0" />
          <path
             style="fill:#ffdf00;fill-opacity:1;stroke:none;stroke-width:0.26458332px;stroke-linecap:butt;stroke-linejoin:miter;stroke-opacity:1"
             d="M 104.5054,116.12668 34.022887,161.4371 c 0.733878,0.77039 2.402327,0.79287 5.806363,0.58601 3.581281,-0.21765 3.953468,-0.28979 4.905127,-0.9493 0.56642,-0.39252 1.287229,-0.71365 1.60197,-0.71365 0.314751,0 1.161568,-0.52328 1.881539,-1.16272 1.460659,-1.29728 2.309667,-1.62918 4.735626,-1.8526 1.624732,-0.14962 1.667717,-0.13735 1.939417,0.57102 0.19485,0.50857 0.192262,1.15123 -0.0083,2.15749 -0.41339,2.07432 -0.353626,4.42875 0.138494,5.46582 0.56752,1.19596 2.368272,3.21281 3.297473,3.69332 0.41267,0.2134 1.142986,0.38807 1.623158,0.38808 0.607668,4e-5 1.516181,0.42195 2.989479,1.38803 1.164172,0.76338 2.473198,1.44796 2.908869,1.52136 0.545719,0.0919 0.991743,0.44198 1.433502,1.12551 0.59622,0.92249 0.731721,0.99219 1.927532,0.99219 1.479179,0 4.143128,1.19856 4.823478,2.16989 0.563309,0.80424 0.583364,4.65186 0.02791,5.38624 -0.213651,0.28247 -0.391875,0.97387 -0.396875,1.53634 -0.0069,0.83452 0.15998,1.17735 0.90847,1.86293 1.131631,1.03654 2.923183,1.67642 5.124752,1.8309 2.14263,0.15034 2.36193,0.36408 1.95027,1.90324 -0.649232,2.42741 -0.556199,2.61451 2.043803,4.10208 0.658556,0.37678 0.69696,3.03248 0.09663,4.61522 l 20.723796,13.32218 74.08334,-47.625 -53.34506,-34.293 c -0.41434,0.28109 -0.73193,0.47439 -0.80254,0.47439 -0.12119,0 -0.4678,-0.34798 -0.77049,-0.77308 l -0.55036,-0.77256 0.26665,-0.12299 -6.1867,-3.9765 c -1.3428,0.70667 -2.27583,0.86602 -2.27583,0.31057 0,-0.2352 0.26971,-0.74551 0.66869,-1.3441 z"
             id="path5826"
             inkscape:connector-curvature="0" />
          <circle
             style="opacity:1;fill:#21468b;fill-opacity:1;stroke:none;stroke-width:0.72760397;stroke-miterlimit:4;stroke-dasharray:none;stroke-opacity:1"
             id="path5840"
             cx="104.50543"
             cy="163.75153"
             r="29.104166" />
          <path
             inkscape:connector-curvature="0"
             style="opacity:1;fill:#ffffff;fill-opacity:1;stroke:none;stroke-width:0.52916664;stroke-miterlimit:4;stroke-dasharray:none;stroke-opacity:1"
             d="m 88.630425,153.16817 a 63.499999,31.75 0 0 0 -11.403438,0.54157 29.104166,29.104166 0 0 0 -1.33222,4.83433 63.499999,31.75 0 0 1 12.735658,-0.65525 63.499999,31.75 0 0 1 44.757995,9.27126 29.104166,29.104166 0 0 0 0.22117,-3.40857 29.104166,29.104166 0 0 0 -0.0439,-1.23662 63.499999,31.75 0 0 0 -44.935245,-9.34672 z"
             id="path5842" />
          <rect
             style="opacity:1;fill:none;fill-opacity:1;stroke:none;stroke-width:1.5;stroke-miterlimit:4;stroke-dasharray:none;stroke-opacity:1"
             id="rect1454"
             width="190.02863"
             height="180.67419"
             x="5.348434"
             y="88.3815" />
          <g
             transform="translate(-2.135113,33.26042)"
             style="display:inline"
             inkscape:label="mapa"
             id="layer2-9">
            <path
               sodipodi:insensitive="true"
               style="display:inline;fill:none;stroke:#000000;stroke-width:1.5;stroke-miterlimit:4;stroke-dasharray:none;stroke-opacity:1"
               d="m 99.454283,226.8312 c -0.0977,-0.15803 -0.76692,-0.24488 -1.52923,-0.19844 -1.33298,0.0812 -1.36338,0.0662 -1.82546,-0.90338 -0.25845,-0.54227 -1.03583,-1.49312 -1.72753,-2.11299 -0.69169,-0.61988 -2.05661,-1.94691 -3.03314,-2.94897 -1.37523,-1.41117 -1.88225,-1.77637 -2.24896,-1.61989 -0.26039,0.11111 -0.80087,0.25823 -1.20105,0.32692 -0.68009,0.11675 -0.7276,0.0638 -0.7276,-0.81046 0,-0.66915 -0.33887,-1.4407 -1.19063,-2.7109 -0.65484,-0.97654 -1.19062,-2.01445 -1.19062,-2.30647 0,-0.6914 2.50724,-3.53423 5.02275,-5.69504 1.29635,-1.11357 2.91868,-2.15982 4.65997,-3.00526 1.66604,-0.8089 2.77788,-1.51817 2.95457,-1.88481 0.15581,-0.32331 0.41745,-1.48915 0.58143,-2.59076 0.3517,-2.36276 0.1557,-3.09895 -1.1954,-4.48998 l -0.90975,-0.93665 0.57339,-2.5262 c 0.62197,-2.74021 0.5785,-3.15815 -0.39488,-3.79593 -0.50736,-0.33244 -0.8739,-0.36909 -1.74154,-0.17414 -1.6701,0.37524 -1.98836,-0.0775 -1.76753,-2.51442 0.34841,-3.8448 -1.13198,-5.52862 -5.2233,-5.94106 -1.14159,-0.11509 -2.36313,-0.39764 -2.71454,-0.62789 -0.58516,-0.38341 -0.63892,-0.59238 -0.63892,-2.48325 0,-3.4169 0.52976,-7.73503 1.08169,-8.81689 0.27552,-0.54007 0.43421,-1.15583 0.35265,-1.36837 -0.0816,-0.21254 0.11249,-0.99264 0.43122,-1.73355 0.66905,-1.55525 0.65013,-4.39359 -0.0319,-4.7838 -2.6,-1.48757 -2.69303,-1.67428 -2.0438,-4.10169 0.41166,-1.53916 0.19255,-1.75302 -1.95008,-1.90336 -2.20157,-0.15448 -3.99303,-0.79459 -5.12466,-1.83113 -0.74849,-0.68558 -0.91567,-1.02827 -0.90881,-1.86279 0.005,-0.56246 0.18323,-1.25377 0.39688,-1.53624 0.55546,-0.73438 0.53581,-4.58225 -0.0275,-5.38649 -0.68035,-0.97133 -3.34466,-2.16971 -4.82384,-2.16971 -1.19581,0 -1.33117,-0.0697 -1.92739,-0.99219 -0.44176,-0.68353 -0.88767,-1.03367 -1.43339,-1.12555 -0.43567,-0.0734 -1.74463,-0.75794 -2.9088,-1.52132 -1.4733,-0.96608 -2.38203,-1.38796 -2.9897,-1.38799 -0.48017,-2e-5 -1.21068,-0.17464 -1.62335,-0.38804 -0.9292,-0.4805 -2.72988,-2.49743 -3.2974,-3.69339 -0.49212,-1.03707 -0.5517,-3.3913 -0.13831,-5.46562 0.20053,-1.00626 0.20285,-1.64898 0.008,-2.15755 -0.2717,-0.70837 -0.31453,-0.72098 -1.93926,-0.57136 -2.42596,0.22342 -3.27502,0.55562 -4.73568,1.8529 -0.71997,0.63944 -1.56655,1.16261 -1.8813,1.16261 -0.31474,0 -1.03569,0.32116 -1.60211,0.71368 -0.95166,0.65951 -1.32406,0.73157 -4.90534,0.94921 -6.06745,0.36872 -6.62089,0.01 -6.19623,-4.01702 0.12611,-1.19581 0.16243,-2.20976 0.0807,-2.25323 -0.0817,-0.0435 -1.27966,0.37562 -2.66211,0.9313 -3.17543,1.27637 -3.48557,1.28308 -4.0556,0.0877 -0.3175,-0.66581 -0.78975,-1.09303 -1.60866,-1.45528 -1.03559,-0.45808 -1.27506,-0.74662 -2.24539,-2.7054 -0.5974,-1.20594 -1.08669,-2.4263 -1.08731,-2.71191 -6.2e-4,-0.28561 -0.3573,-1.05507 -0.79262,-1.70991 -0.43532,-0.65485 -0.79121,-1.48829 -0.79087,-1.85209 7.3e-4,-0.79219 0.6856,-1.88772 1.78793,-2.86 0.60049,-0.52965 0.99211,-1.3095 1.52986,-3.04651 0.59833,-1.9327 0.94865,-2.5818 2.03489,-3.77031 0.72167,-0.78962 1.47993,-1.43568 1.68504,-1.43568 0.2051,0 0.5768,-0.23812 0.826,-0.52916 0.32094,-0.37483 0.7805,-0.52917 1.57566,-0.52917 0.61742,0 1.67926,-0.189 2.35964,-0.42 0.91808,-0.31169 1.69926,-0.37357 3.02948,-0.23998 2.13655,0.21456 2.03738,0.32865 2.87606,-3.308774 0.31874,-1.382448 0.75122,-3.119318 0.96105,-3.859712 0.20983,-0.740394 0.38151,-1.649762 0.38151,-2.020816 0,-0.371055 0.36721,-1.459355 0.81602,-2.418446 0.96854,-2.069708 0.90479,-2.703885 -0.47633,-4.73866 -0.94716,-1.39543 -1.66261,-2.84562 -1.66261,-3.370061 0,-0.65014 1.30765,-1.583972 2.21804,-1.583972 1.14438,0 1.85842,-0.627286 1.49244,-1.311124 -0.14147,-0.264343 -0.67701,-0.728309 -1.1901,-1.031036 -0.97989,-0.578152 -1.26143,-1.558271 -0.60215,-2.096264 0.1819,-0.148436 1.75948,-0.341615 3.50573,-0.429286 1.74625,-0.08767 3.83161,-0.228323 4.63413,-0.31256 1.84897,-0.194075 2.67582,0.368658 3.17821,2.163009 0.19417,0.69353 0.71223,1.602313 1.18014,2.070223 0.81606,0.816062 0.88493,0.833497 3.19682,0.809333 2.2879,-0.02391 2.42568,-0.06115 4.34716,-1.17473 1.09141,-0.632518 3.03574,-1.742475 4.32075,-2.466573 1.45367,-0.81914 2.44977,-1.565412 2.63651,-1.975265 0.27678,-0.607471 0.19453,-0.754059 -1.05714,-1.883997 -1.65393,-1.493073 -1.95322,-2.058174 -1.99201,-3.761224 -0.0412,-1.807902 0.44617,-2.300324 1.85799,-1.877331 0.56453,0.169135 1.55192,0.663601 2.19422,1.098815 0.64229,0.435213 1.30853,0.793463 1.48052,0.796111 0.17199,0.0026 0.58297,-0.382138 0.91329,-0.855081 0.82194,-1.176822 0.78085,-1.160095 3.33126,-1.356135 2.91939,-0.224402 4.24296,-0.812736 5.37516,-2.389299 1.01991,-1.420199 1.9946,-1.822926 2.55596,-1.056081 0.23676,0.32341 0.31173,0.832832 0.21072,1.431758 -0.13499,0.800397 -0.0245,1.084316 0.7945,2.041098 l 0.95129,1.111375 -1.00474,2.059944 c -0.81928,1.679716 -0.9988,2.328549 -0.97255,3.515153 0.0402,1.818723 1.10965,4.16796 2.42183,5.320067 0.87066,0.764446 1.04226,0.812756 2.4166,0.680311 0.81366,-0.07841 2.31282,-0.335826 3.33147,-0.572028 1.36514,-0.316546 2.42735,-0.382628 4.04009,-0.251344 2.06995,0.168504 2.24481,0.140512 3.24114,-0.518826 0.57923,-0.383316 1.053147,-0.811567 1.053147,-0.951668 0,-0.140102 0.28534,-0.441697 0.6341,-0.670213 0.90905,-0.595629 3.96973,-0.07324 4.95237,0.845251 0.94492,0.883247 2.86042,1.410882 5.10506,1.406216 2.16621,-0.0045 2.98787,-0.338428 3.72774,-1.514969 0.29133,-0.463264 0.91664,-0.975113 1.38958,-1.137442 0.74661,-0.256259 0.8599,-0.415224 0.8599,-1.206578 0,-1.885891 3.3698,-4.389135 3.7933,-2.81784 0.32778,1.216142 1.48717,6.393759 1.62327,7.249195 0.16014,1.006562 0.32178,1.128728 2.89791,2.190276 l 1.03845,0.427911 -0.84001,0.866666 c -0.462,0.476667 -0.84001,1.077185 -0.84001,1.334485 0,0.842639 -0.52157,1.470245 -2.01665,2.426639 -0.80983,0.51804 -2.0517,1.483743 -2.75971,2.146007 -1.28562,1.20255 -2.89655,3.438001 -2.89655,4.019487 0,0.72128 1.56644,0.246927 3.57139,-1.081498 l 2.09647,-1.389062 2.92076,0.01032 c 2.47277,0.0087 3.13381,0.10504 4.30982,0.627894 0.92847,0.4128 1.38906,0.774647 1.38906,1.091266 0,0.635833 -2.96697,3.090963 -4.69953,3.888806 l -1.39223,0.641122 0.55035,0.772901 c 0.3027,0.425098 0.64952,0.772904 0.77071,0.772904 0.12119,0 0.93247,-0.535313 1.80285,-1.189583 2.31026,-1.736656 3.57675,-2.237346 5.67666,-2.24419 2.08955,-0.0068 6.20542,1.196279 7.63664,2.232226 0.49464,0.358026 1.77251,1.14826 2.83971,1.756071 1.06721,0.60781 2.00348,1.269549 2.0806,1.470527 0.0771,0.200977 -0.10967,1.337441 -0.41511,2.525481 -0.30543,1.18804 -0.5221,2.1933 -0.48149,2.23391 0.0406,0.0406 1.16996,-0.27864 2.50965,-0.70947 3.3215,-1.06813 4.90324,-0.99932 6.27223,0.27286 0.29104,0.27046 1.18401,0.82808 1.98437,1.23915 1.40011,0.71909 1.5836,0.74497 4.8458,0.68332 3.73456,-0.0706 4.37119,0.10095 5.54278,1.4933 0.36411,0.43272 1.07879,0.9609 1.58817,1.17373 0.60298,0.25194 1.37543,0.99882 2.21376,2.14046 5.05244,6.88046 4.81523,6.65766 7.9022,7.42212 1.01865,0.25226 2.1863,0.63111 2.59477,0.84188 1.17674,0.6072 2.20362,2.47605 2.41019,4.38639 0.0985,0.91091 0.3641,2.66387 0.59022,3.89548 0.73956,4.0281 0.2218,5.58865 -3.0193,9.10022 -1.12569,1.21963 -2.4039,2.72094 -2.84046,3.33625 -0.88213,1.2433 -1.90479,1.85662 -4.21626,2.52858 -1.87368,0.54469 -2.57567,1.24521 -3.37913,3.37207 -0.80764,2.13791 -2.7899,4.19016 -5.02705,5.20453 -1.66698,0.75584 -2.36723,1.33113 -2.6742,2.19699 -0.0899,0.25369 -0.46358,2.5886 -0.83031,5.1887 -1.31147,9.29811 -2.11611,12.01904 -4.21861,14.2655 -1.25709,1.34316 -1.31116,1.46522 -1.46508,3.30729 -0.18472,2.21066 -0.0822,2.00316 -2.48878,5.03571 -1.08636,1.3689 -2.31647,2.60353 -2.98346,2.99441 -0.75916,0.4449 -1.48961,1.2267 -2.20614,2.36124 -2.54966,4.03711 -8.24463,6.66581 -11.49707,5.30686 -1.51183,-0.63168 -2.62005,-0.54062 -3.64205,0.29925 -0.4841,0.39784 -0.9439,0.80995 -1.02176,0.91578 -0.31576,0.42923 -2.07832,0.96512 -3.7612,1.14358 -1.45332,0.15411 -2.04488,0.37035 -3.175,1.16063 -0.7639,0.53418 -2.07594,1.24949 -2.91566,1.58958 -1.0206,0.41335 -1.82389,0.97606 -2.42302,1.69733 -0.83104,1.00046 -0.94618,1.05624 -1.5821,0.7665 -0.61414,-0.27982 -0.68583,-0.25693 -0.68583,0.21898 0,0.29231 -0.29277,1.22707 -0.65061,2.07725 -0.43691,1.03806 -0.78169,2.66492 -1.04967,4.95297 -0.56325,4.80902 -0.90761,5.66326 -3.20626,7.95375 -1.04914,1.04541 -2.34052,2.67501 -2.86974,3.62134 -1.05899,1.89366 -1.63498,2.23945 -2.87482,1.72589 l -0.82252,-0.34069 -2.10486,2.2349 c -1.61025,1.70973 -2.34214,2.74784 -3.11462,4.41772 -0.95266,2.05939 -1.528967,2.61569 -1.970177,1.9018 z"
               id="path1486"
               inkscape:connector-curvature="0" />
          </g>
        </g>
        <g
           id="g971"
           transform="matrix(0.12394366,0,0,0.12394366,64.357539,258.28471)">
          <path
             inkscape:connector-curvature="0"
             id="rect5228"
             d="m 426.20921,-273.02431 c -0.19273,0.0103 -0.41314,0.0326 -0.6577,0.0662 -1.93008,0.26455 -2.19413,0.42036 -2.19413,1.29337 0,0.60081 0.14437,0.65868 1.10642,0.44738 1.2938,-0.28417 2.65418,-1.10768 2.65418,-1.60654 0,-0.16339 -0.33055,-0.23246 -0.90877,-0.20032 z m -5.89996,0.62833 c -2.7198,0 -2.7637,0.0134 -2.7637,0.85469 0,0.80377 0.10693,0.8545 1.79483,0.84933 1.85769,-0.005 3.34679,-0.53424 3.59167,-1.27668 0.10498,-0.31828 -0.56477,-0.42734 -2.6228,-0.42734 z m -3.66111,1.07436 c -0.15723,-0.009 -0.39757,0.0217 -0.72648,0.0995 -3.01,0.71209 -4.55104,1.3045 -4.85098,1.86494 -0.18591,0.3474 -0.24092,0.72927 -0.12219,0.848 0.4153,0.4153 1.16271,0.20673 3.52889,-0.98488 1.97483,-0.99451 2.8521,-1.78774 2.17076,-1.82755 z m 15.67872,0 c -0.70792,0.005 -1.87677,0.20782 -2.78906,0.49479 -1.04264,0.32795 -2.55181,0.59627 -3.35396,0.59627 -1.08588,0 -1.46877,0.13783 -1.49836,0.54084 -0.0318,0.43371 -0.0703,0.4226 -0.19564,-0.0567 -0.21052,-0.80556 -0.36539,-0.78394 -4.73347,0.65369 -3.78255,1.24494 -3.81026,1.26201 -5.14344,3.16233 -1.3237,1.88681 -1.34046,1.94961 -1.34078,5.05663 -2.9e-4,2.92929 0.0525,3.17051 0.76721,3.49618 0.42223,0.19234 1.23039,0.25729 1.7955,0.14423 1.18362,-0.23673 1.20357,-0.17864 0.51347,1.47299 -0.47781,1.14357 -0.46457,1.30782 0.18429,2.35772 0.11569,0.18718 0.24101,0.3668 0.36725,0.53684 h 19.77585 l 0.26374,-1.87629 c 0.22349,-1.59268 0.63552,-2.95835 1.08171,-3.58499 0.61396,-0.86218 0.72114,-1.50353 0.72114,-4.32481 0,-3.03099 -0.0587,-3.32768 -0.68775,-3.49218 -0.37811,-0.0989 -0.77966,-0.54596 -0.89208,-0.99356 -0.13495,-0.53766 -0.45244,-0.81542 -0.93614,-0.81929 -1.1406,-0.008 -1.7018,-0.52782 -2.09597,-1.9404 -0.31959,-1.14534 -0.50425,-1.31577 -1.53041,-1.41423 -0.0802,-0.008 -0.17197,-0.0103 -0.2731,-0.0103 z m -21.89719,3.0802 c -0.52944,-0.009 -1.72594,0.47537 -2.82579,1.20323 -1.40559,0.93015 -1.6224,1.30882 -0.91277,1.59517 0.23504,0.095 0.65201,0.18479 0.92613,0.19965 0.53424,0.029 3.09087,-2.2991 3.09087,-2.81443 0,-0.12211 -0.10196,-0.18054 -0.27844,-0.18362 z m -4.07509,2.89055 -1.06769,1.86226 c -1.12922,1.96934 -1.31924,2.71629 -0.69042,2.71629 0.27799,0 0.27468,0.13132 -0.012,0.47675 -0.21767,0.26227 -0.63332,1.76224 -0.92346,3.33326 -0.16768,0.90798 -0.5519,2.45262 -1.00024,4.09646 h 8.82658 c 0.66427,-0.58775 1.27201,-1.44717 1.27201,-1.99649 0,-0.61209 -0.23641,-0.84667 -1.01093,-1.00157 -0.84259,-0.16852 -1.10275,-0.47559 -1.55645,-1.84157 -0.60477,-1.82076 -1.09918,-2.15385 -2.74233,-1.84559 -0.86901,0.16303 -1.19459,0.0698 -1.47098,-0.42066 -0.27963,-0.49616 -0.18671,-0.81102 0.43936,-1.48434 1.16724,-1.2553 1.33831,-2.16333 0.58291,-3.09621 z"
             style="display:inline;opacity:1;fill:#ae1c28;fill-opacity:1;stroke:none;stroke-width:0.26286697;stroke-miterlimit:4;stroke-dasharray:none;stroke-opacity:1" />
          <path
             inkscape:connector-curvature="0"
             id="rect5233"
             d="m 389.94204,-232.00096 c 0.27715,0.22714 0.60444,0.27401 1.05232,0.16159 0.53455,-0.13416 0.98465,-0.0265 1.25598,0.30047 0.52464,0.63214 0.0709,0.66867 -1.81285,0.14557 -1.18666,-0.32953 -1.39665,-0.27823 -2.45454,0.60028 -0.63611,0.52824 -1.16762,1.10543 -1.1812,1.28336 -0.0136,0.17792 0.38007,0.90709 0.87405,1.61988 0.69717,1.00604 1.06307,1.25436 1.63658,1.11042 0.40635,-0.10195 1.44453,0.11707 2.30697,0.48677 1.40152,0.60077 1.62316,0.61702 2.08662,0.15357 0.46347,-0.46347 0.84012,-0.42375 3.54693,0.37259 4.06323,1.19541 4.22915,1.1826 3.98762,-0.30582 -0.1949,-1.20099 0.31456,-1.6963 0.70311,-0.68375 0.28557,0.7442 2.05176,0.63566 2.78171,-0.17093 0.78543,-0.86789 1.18276,-0.87417 0.95818,-0.0154 -0.13373,0.5114 0.0462,0.72382 0.76721,0.90477 0.5361,0.13455 1.20864,0.0702 1.56046,-0.14958 0.52754,-0.32945 0.87428,-0.11525 2.36506,1.46097 l 1.74742,1.84759 1.80886,-0.18696 c 1.70469,-0.17595 1.8204,-0.1383 2.01918,0.65369 0.15115,0.60226 0.60513,0.97065 1.60319,1.30005 0.76588,0.25277 1.46862,0.58205 1.56113,0.73182 0.0926,0.14976 -0.54354,1.5064 -1.41356,3.01475 l -1.58183,2.74232 0.73316,1.18654 c 0.55548,0.89881 1.03912,1.23808 1.99448,1.39754 0.69371,0.11577 1.41516,0.26395 1.60319,0.32985 h 6.8e-4 c 0.93491,0.32784 1.36596,-0.13139 1.84358,-1.96509 0.49417,-1.89726 0.48663,-1.98252 -0.23972,-2.75568 -0.41222,-0.43879 -0.74918,-0.9541 -0.74918,-1.14514 0,-0.19104 0.6923,-0.84463 1.53843,-1.45228 1.73087,-1.24301 1.69123,-1.16835 1.11108,-2.09731 -0.36294,-0.58116 -0.28582,-0.95387 0.51281,-2.47925 1.42434,-2.72042 1.19382,-4.53795 -1.10507,-8.39723 h -26.77956 c 0.0233,0.0226 0.0464,0.0435 0.0701,0.0721 0.27613,0.33271 0.0776,0.57434 -0.8253,1.00493 -0.65389,0.31181 -1.18921,0.68799 -1.18921,0.83597 0,0.14801 0.69229,0.64755 1.53843,1.10976 0.84613,0.46223 1.53842,0.94133 1.53842,1.06434 0,0.12301 -0.29294,0.30028 -0.65102,0.39396 -0.45376,0.11861 -1.12727,-0.31396 -2.22284,-1.42625 -1.42865,-1.45046 -1.50181,-1.60077 -0.80193,-1.65193 0.42355,-0.031 1.10279,-0.4419 1.50971,-0.91278 0.20088,-0.23245 0.35896,-0.39061 0.49345,-0.4901 z"
             style="display:inline;opacity:1;fill:#21468b;fill-opacity:1;stroke:none;stroke-width:0.26286697;stroke-miterlimit:4;stroke-dasharray:none;stroke-opacity:1" />
          <path
             inkscape:connector-curvature="0"
             id="rect824-8"
             d="m 402.64578,-252.81158 c -0.32362,1.18413 -0.67538,2.41167 -1.02028,3.5102 -1.41363,4.5025 -1.63865,4.95889 -3.57964,7.26479 -1.22594,1.45642 -2.33531,2.46055 -2.71828,2.46055 -0.35586,0 -0.73112,0.13605 -0.83399,0.30247 -0.33269,0.53833 0.56169,2.58155 1.47767,3.37599 l 0.8914,0.77322 -1.06034,-0.57891 c -0.91324,-0.49881 -1.20949,-0.51761 -2.1367,-0.13354 -1.17802,0.48795 -1.42117,1.24856 -0.47809,1.49502 0.32906,0.086 -0.18578,0.17381 -1.1438,0.19564 -2.12763,0.0484 -3.1146,0.83624 -2.35171,1.87629 0.0617,0.0841 0.12558,0.15314 0.19164,0.21501 h 6.24318 c 0.15334,-0.0896 0.27585,-0.0868 0.39462,0 h 26.81027 c -0.0347,-0.058 -0.0652,-0.11202 -0.10083,-0.17094 -1.5529,-2.57069 -1.55777,-2.90591 -0.0441,-2.90591 0.83569,0 1.19655,-0.15466 1.19655,-0.51281 0,-0.63931 0.0569,-0.63801 1.48301,0.0421 1.10276,0.52587 1.28855,0.51476 3.51554,-0.213 2.2383,-0.73145 4.23201,-2.09358 4.23201,-2.89122 0,-0.20332 -0.38811,-0.60479 -0.8627,-0.89274 -0.82371,-0.49981 -0.83535,-0.55032 -0.2564,-1.10575 0.33356,-0.31999 1.42164,-1.20648 2.41781,-1.96977 1.34928,-1.03386 1.76064,-1.54667 1.61321,-2.01117 -0.10885,-0.34295 -0.0203,-1.01355 0.19698,-1.49035 0.62024,-1.36128 -0.57787,-2.78922 -2.78439,-3.31857 -1.71528,-0.41147 -1.72754,-0.42426 -1.62456,-1.65794 l 0.10349,-1.24329 2.08062,0.11351 2.08061,0.11351 0.0901,-0.64235 h -19.72643 c 0.27789,0.36699 0.5503,0.66262 0.70177,0.73449 0.22792,0.10816 -0.004,0.14116 -0.51481,0.0735 -0.96427,-0.12766 -1.39073,0.0979 -4.30278,2.27559 -1.71694,1.28396 -2.06371,2.28894 -0.78991,2.28894 0.3141,0 0.90695,0.23533 1.3174,0.52283 0.96693,0.67725 2.48259,0.33505 2.48259,-0.56022 0,-0.35568 0.11537,-0.65187 0.2564,-0.65703 0.14102,-0.006 0.94869,-0.6215 1.79483,-1.36883 1.48118,-1.30823 1.51364,-1.378 0.87471,-1.87028 -0.64922,-0.49967 -0.6473,-0.51081 0.0855,-0.51081 1.26184,0 0.96161,1.56403 -0.64902,3.38 -2.51106,2.83118 -3.15438,3.45779 -3.53023,3.43608 -0.20371,-0.0118 -1.52441,-0.44132 -2.93463,-0.95417 -1.84203,-0.66987 -2.52077,-1.07305 -2.4098,-1.43159 0.0849,-0.27448 0.21367,-1.4603 0.28578,-2.63549 0.10321,-1.68193 0.24849,-2.1367 0.68174,-2.1367 0.31206,0 0.73156,-0.2399 1.13646,-0.58626 z m -4.55986,18.49917 c 0.26556,-0.0365 2.39863,0.80812 2.6622,1.07169 0.088,0.088 -0.0581,0.15398 -0.32451,0.14623 -0.53887,-0.0152 -2.3644,-0.94069 -2.3644,-1.19856 0,-0.0107 0.009,-0.0169 0.0267,-0.0193 z m -3.74256,0.21567 c 0.0414,-0.0148 0.22414,0.14686 0.58893,0.47074 0.40342,0.3582 0.73382,0.70435 0.73382,0.76922 0,0.43096 -0.73043,-0.016 -1.06368,-0.65103 -0.20074,-0.38256 -0.30053,-0.5741 -0.25907,-0.58893 z"
             style="opacity:1;fill:#ffffff;fill-opacity:1;stroke:none;stroke-width:0.33112618;stroke-miterlimit:4;stroke-dasharray:none;stroke-dashoffset:0;stroke-opacity:1" />
          <path
             inkscape:connector-curvature="0"
             id="path826"
             d="m 420.45176,-211.7087 c -0.18802,-0.0659 -0.90946,-0.21464 -1.60318,-0.33044 -0.95535,-0.15946 -1.43922,-0.49838 -1.9947,-1.39719 l -0.73339,-1.18665 1.58185,-2.74247 c 0.87002,-1.50835 1.50613,-2.865 1.41357,-3.01476 -0.0925,-0.14977 -0.79492,-0.4791 -1.5608,-0.73187 -0.99807,-0.3294 -1.45223,-0.69757 -1.60338,-1.29983 -0.19878,-0.79199 -0.31478,-0.82952 -2.01947,-0.65359 l -1.80857,0.18666 -1.74715,-1.84735 c -1.49078,-1.57628 -1.83787,-1.79069 -2.36541,-1.46124 -0.35182,0.21971 -1.02425,0.2842 -1.56035,0.14965 -0.72098,-0.18095 -0.90108,-0.39329 -0.76735,-0.90469 0.22458,-0.85881 -0.17237,-0.85238 -0.95779,0.0155 -0.72995,0.80659 -2.49671,0.91514 -2.78229,0.17095 -0.38855,-1.01256 -0.89756,-0.51726 -0.70266,0.68373 0.24153,1.48842 0.0754,1.50116 -3.98782,0.30574 -2.70681,-0.79634 -3.0835,-0.83589 -3.54697,-0.37242 -0.46346,0.46345 -0.68507,0.44715 -2.08659,-0.15362 -0.86244,-0.36968 -1.90053,-0.5887 -2.30688,-0.48672 -0.57351,0.14394 -0.93979,-0.10453 -1.63696,-1.11057 -0.49397,-0.7128 -0.88702,-1.44158 -0.87345,-1.6195 0.0136,-0.17793 0.54514,-0.75571 1.18124,-1.28395 1.0579,-0.87851 1.26724,-0.9297 2.4539,-0.60018 1.88379,0.52312 2.33752,0.48672 1.81288,-0.14542 -0.27134,-0.32695 -0.72134,-0.43459 -1.25589,-0.30043 -0.58931,0.14791 -0.97032,0.022 -1.30227,-0.43065 -0.76289,-1.04005 0.22437,-1.82749 2.352,-1.87594 0.95801,-0.0218 1.47262,-0.10995 1.14357,-0.196 -0.94308,-0.24645 -0.69984,-1.0068 0.47818,-1.49475 0.92721,-0.38407 1.22346,-0.3656 2.1367,0.13321 l 1.06024,0.5791 -0.89122,-0.77297 c -0.91597,-0.79444 -1.81031,-2.83796 -1.47761,-3.37628 0.10286,-0.16643 0.47817,-0.3026 0.83402,-0.3026 0.38298,0 1.49217,-1.00405 2.71811,-2.46048 1.94099,-2.30589 2.16586,-2.76228 3.57949,-7.26478 0.82962,-2.64237 1.74578,-6.0897 2.03591,-7.66072 0.29014,-1.57102 0.70561,-3.07098 0.92327,-3.33326 0.28669,-0.34543 0.29001,-0.47685 0.012,-0.47685 -0.62882,0 -0.43897,-0.74717 0.69026,-2.71649 l 1.06758,-1.86181 0.64649,0.79837 c 0.7554,0.93288 0.5845,1.84088 -0.58274,3.09619 -0.62607,0.67331 -0.71939,0.98834 -0.43976,1.4845 0.27639,0.49044 0.60196,0.58349 1.47097,0.42047 1.64315,-0.30826 2.13812,0.0248 2.74289,1.84557 0.45371,1.36598 0.7134,1.6734 1.55599,1.84192 0.77453,0.1549 1.01139,0.38946 1.01139,1.00155 0,0.89914 -1.6264,2.63654 -2.46811,2.63654 -0.43325,0 -0.5783,0.45477 -0.68151,2.1367 -0.0721,1.17519 -0.20062,2.36129 -0.28558,2.63577 -0.11096,0.35854 0.56756,0.76164 2.40959,1.43151 1.41022,0.51286 2.7307,0.9421 2.9344,0.95389 0.37585,0.0217 1.01921,-0.60432 3.53027,-3.4355 1.61063,-1.81596 1.91114,-3.3805 0.6493,-3.3805 -0.73277,0 -0.73463,0.0116 -0.0854,0.51131 0.63893,0.49228 0.60638,0.56187 -0.8748,1.8701 -0.84614,0.74734 -1.6538,1.36338 -1.79483,1.36899 -0.14103,0.005 -0.2564,0.3012 -0.2564,0.65688 0,0.89527 -1.51578,1.23703 -2.48271,0.55978 -0.41046,-0.28749 -1.00328,-0.52272 -1.31738,-0.52272 -1.2738,0 -0.92709,-1.00457 0.78985,-2.28853 2.91206,-2.17772 3.33873,-2.40338 4.303,-2.27572 0.51117,0.0677 0.74293,0.0345 0.51501,-0.0737 -0.22793,-0.10815 -0.72829,-0.70456 -1.11193,-1.32531 -0.64886,-1.04989 -0.66169,-1.21437 -0.18388,-2.35794 0.69009,-1.65163 0.66979,-1.70987 -0.51382,-1.47314 -0.56511,0.11306 -1.37293,0.0481 -1.79515,-0.14428 -0.71473,-0.32566 -0.76765,-0.56673 -0.76736,-3.49603 3.2e-4,-3.10702 0.017,-3.17005 1.34073,-5.05686 1.33318,-1.90031 1.36096,-1.91738 5.14352,-3.16232 4.36807,-1.43764 4.52262,-1.45897 4.73313,-0.65341 0.12534,0.47935 0.16423,0.49068 0.196,0.057 0.0296,-0.40302 0.41221,-0.54131 1.4981,-0.54131 0.80214,0 2.31149,-0.2683 3.35412,-0.59626 1.04262,-0.32795 2.42072,-0.54589 3.06242,-0.48432 1.02616,0.0985 1.21051,0.26885 1.5301,1.41419 0.39417,1.41258 0.95545,1.93216 2.09606,1.94031 0.48369,0.004 0.80146,0.28141 0.93641,0.81907 0.11241,0.4476 0.51363,0.89473 0.89174,0.99361 0.62905,0.1645 0.68748,0.46129 0.68748,3.49227 0,2.82128 -0.10686,3.4626 -0.72082,4.32478 -0.44619,0.62663 -0.85836,1.9925 -1.08185,3.58518 l -0.36103,2.57289 -2.08048,-0.11371 -2.08046,-0.11371 -0.10375,1.24352 c -0.10299,1.23369 -0.0902,1.2468 1.62509,1.65828 2.20652,0.52934 3.40434,1.95696 2.7841,3.31824 -0.21724,0.47681 -0.30594,1.1475 -0.19709,1.49046 0.14743,0.4645 -0.26404,0.97751 -1.61332,2.01137 -0.99617,0.76329 -2.08413,1.64964 -2.41769,1.96964 -0.57895,0.55543 -0.56731,0.60559 0.2564,1.10539 0.47458,0.28795 0.86287,0.6899 0.86287,0.89321 0,0.79764 -1.99343,2.15945 -4.23172,2.89091 -2.22699,0.72775 -2.41303,0.73903 -3.51579,0.21317 -1.42612,-0.68008 -1.48305,-0.6817 -1.48305,-0.0424 0,0.35815 -0.36086,0.5128 -1.19655,0.5128 -1.5137,0 -1.50858,0.33523 0.0443,2.90592 2.42759,4.01863 2.69024,5.84797 1.23786,8.62195 -0.79863,1.52538 -0.87574,1.8982 -0.5128,2.47935 0.58015,0.92897 0.61961,0.85449 -1.11126,2.09749 -0.84613,0.60766 -1.53842,1.26113 -1.53842,1.45217 0,0.19104 0.33728,0.70638 0.74951,1.14517 0.72635,0.77316 0.73375,0.85831 0.23958,2.75558 -0.47762,1.83369 -0.90886,2.29341 -1.84377,1.96558 z m -22.73451,-16.20544 c 0,-0.12301 -0.69229,-0.60184 -1.53842,-1.06407 -0.84614,-0.46221 -1.53843,-0.96147 -1.53843,-1.10947 0,-0.14799 0.53501,-0.5242 1.1889,-0.83602 0.90294,-0.43058 1.10145,-0.67231 0.82532,-1.00502 -0.28633,-0.34502 -0.52074,-0.25621 -1.10342,0.41806 -0.40693,0.47088 -1.08641,0.88148 -1.50996,0.91244 -0.69989,0.0512 -0.62676,0.20184 0.80188,1.65229 1.09558,1.11229 1.76931,1.54439 2.22307,1.42573 0.35808,-0.0937 0.65106,-0.27092 0.65106,-0.39394 z m -2.05123,-4.94261 c 0,-0.0649 -0.33007,-0.41101 -0.73349,-0.76921 -0.72956,-0.64778 -0.73133,-0.64715 -0.32984,0.11797 0.33324,0.63505 1.06333,1.08221 1.06333,0.65125 z m 5.08204,-0.38393 c -0.28114,-0.28114 -2.68893,-1.22319 -2.68893,-1.05205 0,0.25787 1.82575,1.18315 2.36461,1.19837 0.26638,0.008 0.41232,-0.0583 0.32432,-0.14632 z m 5.94334,-32.20241 c -0.70963,-0.28634 -0.49311,-0.66482 0.91249,-1.59499 1.46646,-0.97047 3.10451,-1.50866 3.10451,-1.02002 0,0.51534 -2.55702,2.84337 -3.09126,2.81444 -0.27412,-0.0149 -0.6907,-0.10454 -0.92574,-0.19943 z m 4.25695,-3.06632 c -0.11874,-0.11874 -0.0638,-0.50011 0.12214,-0.84751 0.29994,-0.56044 1.84146,-1.15308 4.85147,-1.86517 1.75418,-0.41499 0.98613,0.50371 -1.44444,1.72771 -2.36618,1.19161 -3.11387,1.40027 -3.52918,0.98497 z m 6.5975,-3.0319 c 0,-0.84116 0.0437,-0.85468 2.76347,-0.85468 2.05803,0 2.72749,0.10905 2.62251,0.42734 -0.24489,0.74244 -1.73347,1.27177 -3.59116,1.27699 -1.6879,0.005 -1.79482,-0.0459 -1.79482,-0.84965 z m 5.81183,-0.12365 c 0,-0.87302 0.26374,-1.02846 2.19382,-1.29301 0.97824,-0.13408 1.56677,-0.0836 1.56677,0.13426 0,0.49886 -1.36072,1.32238 -2.65452,1.60656 -0.96205,0.2113 -1.10607,0.15298 -1.10607,-0.44781 z"
             style="display:inline;fill:none;stroke:#000000;stroke-width:0.32302898;stroke-miterlimit:4;stroke-dasharray:none;stroke-opacity:1"
             inkscape:label="mapa-holanda" />
        </g>
        <g
           transform="matrix(0.12394366,0,0,0.12394366,91.348259,233.66418)"
           id="g1652">
          <path
             inkscape:connector-curvature="0"
             id="path6634"
             d="m 57.613006,60.489368 a 7.1588659,3.1403168 40.607808 0 0 -7.50176,-2.32326 7.1588659,3.1403168 40.607808 0 0 -0.33013,1.69263 2.6623812,2.495888 35.557765 0 0 -1.2649,0.74679 2.6623812,2.495888 35.557765 0 0 -0.37645,0.5818 3.567008,2.6080702 39.956683 0 0 -2.98103,0.48 3.567008,2.6080702 39.956683 0 0 -0.41184,0.76492 5.3054541,2.195762 40.630388 0 0 -3.83447,-0.62761 5.3054541,2.195762 40.630388 0 0 0.53625,2.8465 4.9256056,2.7746904 40.445812 0 0 -0.36492,0.0916 4.1266258,2.657924 40.271223 0 0 -3.7699,0.0628 4.1266258,2.657924 40.271223 0 0 -0.41875,1.81243 5.0705464,4.2752068 39.018458 0 0 -4.86375,0.95682 5.0705464,4.2752068 39.018458 0 0 1.00567,6.514431 5.0705464,4.2752068 39.018458 0 0 0.78488,0.56897 4.0087875,2.7734406 40.121669 0 0 -0.34692,0.0227 4.0072463,4.6241787 43.651967 0 0 -5.19705,1.40795 4.0072463,4.6241787 43.651967 0 0 -0.0275,6.080989 4.0072463,4.6241787 43.651967 0 0 1.24395,0.69021 3.7308115,3.8350825 54.595279 0 0 0.3932,0.83045 2.4755564,4.3920955 41.825932 0 0 -0.94924,0.904272 2.4755564,4.3920955 41.825932 0 0 -1.03492,4.906656 2.4755564,4.3920955 41.825932 0 0 0.6761,0.32554 4.3035188,2.8890227 40.191541 0 0 1.84865,3.2257 4.3035188,2.8890227 40.191541 0 0 0.5319,0.409794 4.0389146,3.4951276 38.643518 0 0 -1.36785,0.891397 4.0389146,3.4951276 38.643518 0 0 -0.26038,0.349073 4.24448,2.5423916 40.378088 0 0 -2.23401,0.513779 4.24448,2.5423916 40.378088 0 0 1.52938,4.676582 4.24448,2.5423916 40.378088 0 0 3.34452,1.456769 3.3601459,1.6179181 40.562373 0 0 -0.21949,0.1704 3.3601459,1.6179181 40.562373 0 0 1.47245,3.40641 3.3601459,1.6179181 40.562373 0 0 3.61628,0.98268 3.3601459,1.6179181 40.562373 0 0 0.0154,-0.0201 4.3917521,1.9646226 40.599293 0 0 2.09187,2.75326 4.3917521,1.9646226 40.599293 0 0 4.62537,1.39859 3.0065255,1.877891 40.320767 0 0 0.49939,0.50331 3.0065255,1.877891 40.320767 0 0 3.52088,0.55692 3.0065255,1.877891 40.320767 0 0 0.29781,-1.17134 3.6800809,2.2197339 40.369263 0 0 1.16586,0.0164 3.0653924,1.4445714 40.574058 0 0 3.02072,0.71127 3.0653924,1.4445714 40.574058 0 0 -0.007,-1.35677 3.743493,2.5712157 40.13954 0 0 3.27329,-0.28988 3.743493,2.5712157 40.13954 0 0 0.46531,-1.17974 2.3281279,3.4097616 42.117524 0 0 2.64206,-1.44367 2.3281279,3.4097616 42.117524 0 0 1.0776,-2.92613 3.5371365,2.3689998 40.196499 0 0 1.64725,-0.59936 3.5371365,2.3689998 40.196499 0 0 -1.10849,-4.084884 3.5371365,2.3689998 40.196499 0 0 -0.0619,-0.0507 3.6807267,3.1625659 38.759085 0 0 0.0519,-0.16565 4.2739119,2.3401799 40.472018 0 0 2.44679,-0.31432 4.2739119,2.3401799 40.472018 0 0 -1.18117,-4.064629 3.7728573,2.1957098 40.41197 0 0 0.85107,-0.45543 3.7728573,2.1957098 40.41197 0 0 -1.40219,-4.108911 3.7728573,2.1957098 40.41197 0 0 -0.92473,-0.66096 3.5666262,2.4267711 40.161736 0 0 -0.66585,-1.645158 6.0128536,2.5424592 40.622505 0 0 -3.05693,-5.517833 6.0128536,2.5424592 40.622505 0 0 -6.23766,-2.022599 6.0128536,2.5424592 40.622505 0 0 -0.25904,1.334619 4.0086203,2.1090584 40.504493 0 0 -1.26759,-0.52792 5.3055427,2.8891124 40.476781 0 0 -2.44002,-3.617449 5.3055427,2.8891124 40.476781 0 0 -2.10513,-1.36865 3.0638726,3.3530683 45.121969 0 0 0.10142,-3.95518 4.9256056,2.7746904 40.445812 0 0 3.89681,0.016 4.9256056,2.7746904 40.445812 0 0 0.15083,-2.55163 5.3054541,2.195762 40.630388 0 0 0.98234,-0.36611 5.3054541,2.195762 40.630388 0 0 0.0568,-1.70703 3.567008,2.6080702 39.956683 0 0 0.2388,-0.0254 4.5981078,2.3113048 40.536433 0 0 0.0748,0.0678 4.5981078,2.3113048 40.536433 0 0 4.5169,1.60484 3.8908688,2.6578896 40.152548 0 0 0.64386,0.93481 3.6549079,1.849043 40.532227 0 0 1.72672,2.48523 3.6549079,1.849043 40.532227 0 0 3.9927,1.00193 3.6549079,1.849043 40.532227 0 0 0.2547,-0.85974 4.246191,2.2752573 40.4902 0 0 3.46074,0.18282 4.246191,2.2752573 40.4902 0 0 -1.70769,-4.47775 4.246191,2.2752573 40.4902 0 0 -1.0444,-0.75652 7.1588659,3.1403168 40.607808 0 0 -3.54836,-6.69653 z m -10.6574,26.262221 a 6.7202307,2.6580322 40.645572 0 0 3.2472,4.274389 4.5983379,3.235665 40.076844 0 0 1.93812,3.81368 4.5983379,3.235665 40.076844 0 0 1.25574,0.844071 3.6807267,3.1625659 38.759085 0 0 -0.17915,0.737518 2.6529914,2.0510997 39.715408 0 0 -0.89236,0.523092 2.6529914,2.0510997 39.715408 0 0 0.64945,3.269331 2.6529914,2.0510997 39.715408 0 0 0.0856,0.0697 2.9434483,4.0518628 42.292108 0 0 -0.0588,0.23705 2.0922846,2.7452571 42.484217 0 0 -2.77655,1.02256 2.0922846,2.7452571 42.484217 0 0 -0.69059,2.76655 3.743493,2.5712157 40.13954 0 0 -0.2365,0.50717 2.8296121,1.473453 40.512168 0 0 -0.73226,-0.775 2.8296121,1.473453 40.512168 0 0 -2.82509,-0.95033 4.4801848,2.0801845 40.58167 0 0 -2.08523,-2.75078 4.4801848,2.0801845 40.58167 0 0 -4.11753,-1.7154 5.3219085,2.9411779 40.463761 0 0 -1.6647,-0.434012 2.3875108,1.3867646 40.414122 0 0 -0.86002,-1.061648 2.3875108,1.3867646 40.414122 0 0 -0.62096,-0.438791 4.0389146,3.4951276 38.643518 0 0 -0.0131,-0.0479 1.6521484,1.5875356 32.018183 0 0 -10e-4,-2.00515 2.6528067,1.6178815 40.354717 0 0 0.93294,-0.3801 2.6528067,1.6178815 40.354717 0 0 -0.93668,-2.944601 2.6528067,1.6178815 40.354717 0 0 -0.51148,-0.377119 4.3035188,2.8890227 40.191541 0 0 -0.10098,-0.248801 2.7171089,4.162751 42.023796 0 0 1.0199,-0.92153 2.7171089,4.162751 42.023796 0 0 1.3191,-2.57265 3.4536346,2.1642279 40.315821 0 0 0.22546,-0.19917 3.4536346,2.1642279 40.315821 0 0 0.17853,-2.00664 5.0696352,1.8490704 40.668457 0 0 1.49412,1.5162 5.0696352,1.8490704 40.668457 0 0 5.06413,1.926061 5.0696352,1.8490704 40.668457 0 0 0.14461,-0.94997 5.0388171,2.7192081 40.48439 0 0 1.19284,-0.556951 5.0388171,2.7192081 40.48439 0 0 0.15666,-0.22252 3.4537295,2.4416259 40.063683 0 0 0.39891,0.0516 z"
             style="display:inline;fill:#ffffff;fill-opacity:1;stroke:#000000;stroke-width:0.57776856;stroke-miterlimit:4;stroke-dasharray:none;stroke-opacity:1" />
          <path
             inkscape:connector-curvature="0"
             id="path6720"
             d="m 103.19069,93.722087 a 6.7208622,4.6044916 65.842429 0 0 -6.112144,-4.684138 6.427361,2.3318561 66.825485 0 0 -0.52675,-1.417701 6.427361,2.3318561 66.825485 0 0 -4.67655,-5.05735 6.427361,2.3318561 66.825485 0 0 -0.72036,1.08949 3.140148,1.4015034 66.69524 0 0 -1.07711,-0.53024 4.2093946,3.4957941 64.041385 0 0 -4.78583,-2.34718 4.2093946,3.4957941 64.041385 0 0 -0.76986,0.45571 4.0505129,3.1317091 65.033886 0 0 -3.7305,-1.310879 4.0505129,3.1317091 65.033886 0 0 -1.38545,1.348129 3.719776,2.8433255 65.142523 0 0 -2.84078,-0.64971 3.719776,2.8433255 65.142523 0 0 -1.42499,1.67655 5.2594333,3.2641744 66.188703 0 0 -0.0843,0.0259 5.2594333,3.2641744 66.188703 0 0 -1.54346,4.06234 5.0864953,4.2530969 63.904379 0 0 -3.04778,-0.105211 5.0864953,4.2530969 63.904379 0 0 -1.97339,6.249421 5.0864953,4.2530969 63.904379 0 0 0.14077,0.306721 5.7891378,5.0095825 63.014249 0 0 -0.56885,0.177239 5.7891378,5.0095825 63.014249 0 0 -2.66651,6.41713 3.2701235,4.5498832 69.801608 0 0 -2.5391,0.423011 3.2701235,4.5498832 69.801608 0 0 -3.12973,3.900451 6.4281735,3.9636544 66.206237 0 0 0.37636,5.73725 6.4281735,3.9636544 66.206237 0 0 1.0122,1.83048 6.1943004,3.6722812 66.302123 0 0 -1.97413,-0.0666 6.1943004,3.6722812 66.302123 0 0 -0.99779,7.05661 6.1943004,3.6722812 66.302123 0 0 4.9738,4.4999 4.6753857,3.2056567 65.838888 0 0 0.40928,3.4194 4.6753857,3.2056567 65.838888 0 0 4.80567,3.12126 4.6753857,3.2056567 65.838888 0 0 1.65203,-2.68268 4.267223,3.3797711 64.76872 0 0 2.01548,1.09535 6.4877468,4.8371429 65.349248 0 0 0.3976,1.16905 6.4877468,4.8371429 65.349248 0 0 7.03038,4.18684 6.4877468,4.8371429 65.349248 0 0 2.37886,-6.54119 4.6186878,3.8453346 63.992181 0 0 3.30851,0.38987 4.6186878,3.8453346 63.992181 0 0 1.85336,-5.46337 4.5818597,4.4650401 10.142902 0 0 0.50918,-0.37227 6.720523,4.3132857 66.089508 0 0 4.97016,1.92247 6.720523,4.3132857 66.089508 0 0 1.38897,-7.77717 6.720523,4.3132857 66.089508 0 0 -0.39007,-0.80877 5.8435012,3.2060576 66.451366 0 0 1.21501,-2.30185 5.2591335,2.8563155 66.467818 0 0 2.52792,0.71279 5.2591335,2.8563155 66.467818 0 0 1.0688,-4.50224 4.9096695,3.6715494 65.32629 0 0 1.249,-0.18719 4.9096695,3.6715494 65.32629 0 0 1.499654,-5.87324 4.9096695,3.6715494 65.32629 0 0 -0.25138,-0.51678 6.7208622,4.6044916 65.842429 0 0 0.77378,-0.19289 6.7208622,4.6044916 65.842429 0 0 1.66001,-7.884672 z M 88.180576,88.643238 a 6.6026665,2.4484437 66.81495 0 0 1.15778,4.665329 6.6026665,2.4484437 66.81495 0 0 1.91068,3.34473 4.5003336,3.263742 65.540375 0 0 -0.39012,4.723933 4.5003336,3.263742 65.540375 0 0 1.64381,2.22588 5.2591335,2.8563155 66.467818 0 0 -0.62922,1.3357 5.8435012,3.2060576 66.451366 0 0 -3.20921,-1.12031 5.8435012,3.2060576 66.451366 0 0 -0.70115,6.56183 5.8435012,3.2060576 66.451366 0 0 0.0511,0.11412 6.720523,4.3132857 66.089508 0 0 -0.8099,0.18681 6.720523,4.3132857 66.089508 0 0 -2.00151,2.64266 4.5818597,4.4650401 10.142902 0 0 -2.46674,0.26043 4.5818597,4.4650401 10.142902 0 0 -2.82102,4.10073 5.3180062,3.4389539 66.064982 0 0 -3.80102,-1.34902 5.3180062,3.4389539 66.064982 0 0 -1.56434,4.78137 6.4877468,4.8371429 65.349248 0 0 -0.183,0.0587 6.4877468,4.8371429 65.349248 0 0 -0.0293,0.0135 4.267223,3.3797711 64.76872 0 0 -4.04655,-1.41299 4.267223,3.3797711 64.76872 0 0 -0.18597,0.0835 4.9086505,2.8562422 66.342411 0 0 -0.37867,-1.11631 4.9086505,2.8562422 66.342411 0 0 -1.13732,-1.90844 3.9691003,3.3778844 63.494654 0 0 -0.27489,-2.55247 3.9691003,3.3778844 63.494654 0 0 -0.83183,-1.29867 6.4281735,3.9636544 66.206237 0 0 -0.005,-6.41872 6.4281735,3.9636544 66.206237 0 0 -0.18439,-0.41019 3.9160156,2.9139504 65.364101 0 0 3.20797,0.97065 3.9160156,2.9139504 65.364101 0 0 1.54985,-3.29459 5.7891378,5.0095825 63.014249 0 0 0.52818,-0.16864 5.7891378,5.0095825 63.014249 0 0 2.40422,-7.17453 5.7891378,5.0095825 63.014249 0 0 -0.45944,-0.89036 5.0864953,4.2530969 63.904379 0 0 2.34775,-3.877091 5.2594333,3.2641744 66.188703 0 0 2.28961,0.282919 5.2594333,3.2641744 66.188703 0 0 1.55141,-3.987001 3.3945433,3.1428394 58.847166 0 0 2.19825,-0.01349 3.3945433,3.1428394 58.847166 0 0 0.92094,-0.588529 4.0505129,3.1317091 65.033886 0 0 0.12077,-0.0391 4.0505129,3.1317091 65.033886 0 0 0.45236,-0.238922 4.2093946,3.4957941 64.041385 0 0 3.77632,1.506792 z"
             style="display:inline;fill:#ffffff;fill-opacity:1;stroke:#000000;stroke-width:0.57776856;stroke-miterlimit:4;stroke-dasharray:none;stroke-opacity:1" />
          <path
             inkscape:transform-center-y="10.605148"
             inkscape:transform-center-x="-6.7971321"
             inkscape:connector-curvature="0"
             id="path6835"
             d="m 82.389446,130.69164 a 2.5855959,4.0099435 83.949674 0 0 -3.7284,2.98704 2.5855959,4.0099435 83.949674 0 0 4.24867,2.1579 2.5855959,4.0099435 83.949674 0 0 0.60767,-0.0957 2.1938369,3.1277586 83.90826 0 0 -0.62544,1.51545 2.1938369,3.1277586 83.90826 0 0 3.33171,1.85939 2.1938369,3.1277586 83.90826 0 0 0.65602,-0.12136 2.1154788,2.6465734 83.77905 0 0 -0.17026,0.93726 2.1154788,2.6465734 83.77905 0 0 2.5348,1.84716 1.7041411,2.4260181 83.907349 0 0 2.12402,0.58317 1.7041411,2.4260181 83.907349 0 0 0.29194,-0.0452 1.1556826,1.7042267 83.927137 0 0 -0.0109,0.23258 1.1556826,1.7042267 83.927137 0 0 1.81142,0.97344 1.1556826,1.7042267 83.927137 0 0 0.31468,-0.054 0.82268864,1.1628848 83.902846 0 0 1.15632,0.45259 0.82268864,1.1628848 83.902846 0 0 0.24082,-0.0446 0.58763257,0.72179336 83.747413 0 0 0.003,0.0587 0.58763257,0.72179336 83.747413 0 0 0.77701,0.50997 0.58763257,0.72179336 83.747413 0 0 0.65879,-0.65925 0.58763257,0.72179336 83.747413 0 0 -0.64933,-0.51359 0.82268864,1.1628848 83.902846 0 0 0.0441,-0.29009 0.82268864,1.1628848 83.902846 0 0 -0.96402,-0.70248 1.1556826,1.7042267 83.927137 0 0 -0.002,-0.0832 1.1556826,1.7042267 83.927137 0 0 -1.61666,-0.98562 1.7041411,2.4260181 83.907349 0 0 0.18712,-0.79569 1.7041411,2.4260181 83.907349 0 0 -1.72509,-1.42245 2.1154788,2.6465734 83.77905 0 0 -0.71343,-0.93194 2.272254,2.0851123 85.085801 0 0 -0.009,-0.32563 2.272254,2.0851123 85.085801 0 0 -2.30256,-2.04489 2.272254,2.0851123 85.085801 0 0 -0.14006,0.02 2.1938369,3.1277586 83.90826 0 0 -0.12255,-0.13396 1.6455146,1.6038452 87.296126 0 0 0.16009,-0.89941 1.6455146,1.6038452 87.296126 0 0 -1.76101,-1.47121 1.6455146,1.6038452 87.296126 0 0 -0.37658,0.0887 2.5855959,4.0099435 83.949674 0 0 0.0181,-0.4455 2.5855959,4.0099435 83.949674 0 0 -4.24842,-2.1577 z m 14.32414,13.71421 a 0.21546625,0.32079557 83.931885 0 0 -0.29743,0.24736 0.21546625,0.32079557 83.931885 0 0 0.34076,0.18124 0.21546625,0.32079557 83.931885 0 0 0.29741,-0.24758 0.21546625,0.32079557 83.931885 0 0 -0.34074,-0.18103 z m 0.66966,0.44241 a 0.17629055,0.26064645 83.928456 0 0 -0.24162,0.2023 0.17629055,0.26064645 83.928456 0 0 0.27707,0.1484 0.17629055,0.26064645 83.928456 0 0 0.24141,-0.20228 0.17629055,0.26064645 83.928456 0 0 -0.27685,-0.14844 z"
             style="display:inline;fill:#ffffff;fill-opacity:1;stroke:#000000;stroke-width:0.57776856;stroke-miterlimit:4;stroke-dasharray:none;stroke-opacity:1" />
          <path
             sodipodi:nodetypes="ccccccc"
             style="display:inline;fill:#ae1c28;fill-opacity:1;stroke:#000000;stroke-width:0.4286949;stroke-linecap:butt;stroke-linejoin:miter;stroke-miterlimit:4;stroke-dasharray:none;stroke-opacity:1"
             d="M 148.9252,190.308 61.584847,178.36023 c 0.983966,4.43357 2.296791,8.72705 2.296791,8.72705 1.186444,4.41367 4.842452,6.88225 13.398412,8.9522 l 32.48162,6.39207 c 15.54416,1.59485 18.93509,3.30826 30.90061,-4.41331 -0.0266,-0.007 5.14868,-3.19727 8.26292,-7.71024 z"
             id="path5989"
             inkscape:connector-curvature="0" />
          <path
             style="display:inline;fill:#ffffff;fill-opacity:1;stroke:#000000;stroke-width:0.4286949;stroke-linecap:butt;stroke-linejoin:miter;stroke-miterlimit:4;stroke-dasharray:none;stroke-opacity:1"
             d="M 152.26587,185.84006 60.642507,173.30639 c 0.170617,1.39211 0.531608,3.20315 0.94234,5.05384 L 148.9252,190.308 c 1.43574,-1.95365 2.6857,-3.63723 3.34067,-4.46794 z"
             id="path5987"
             inkscape:connector-curvature="0" />
          <path
             style="display:inline;fill:#009c3b;fill-opacity:1;stroke:#000000;stroke-width:0.42869493;stroke-linecap:butt;stroke-linejoin:miter;stroke-miterlimit:4;stroke-dasharray:none;stroke-opacity:1"
             d="m 93.158005,149.2401 c -0.581728,3.56963 -1.099931,8.1595 -1.099931,8.1595 l -6.077904,-0.93864 -5.984887,15.86864 c 0,0 -17.329487,-1.72322 -19.07709,-1.65274 -0.433818,0.0175 -0.466985,1.06862 -0.275676,2.62953 l 91.623363,12.53368 c 0.14892,-0.18886 0.68394,-0.93144 0.75942,-1.01594 1.04715,-1.17232 0.30045,-1.97076 0.30045,-1.97076 l -32.23364,-5.02838 -1.18753,-16.42096 -20.046834,-2.95088 0.846864,-8.18072 z"
             id="path5984"
             inkscape:connector-curvature="0" />
          <path
             style="display:inline;fill:#ae1c28;fill-opacity:1;stroke:#000000;stroke-width:0.4286949;stroke-linecap:butt;stroke-linejoin:miter;stroke-miterlimit:4;stroke-dasharray:none;stroke-opacity:1"
             d="m 100.91006,148.28827 -7.428535,-1.01618 c -0.111268,0.54904 -0.214461,1.29908 -0.323501,1.96801 l 7.546556,1.03233 z"
             id="path5982"
             inkscape:connector-curvature="0" />
          <path
             style="display:inline;fill:#009c3b;fill-opacity:1;stroke:#000000;stroke-width:0.4286949;stroke-linecap:butt;stroke-linejoin:miter;stroke-miterlimit:4;stroke-dasharray:none;stroke-opacity:1"
             d="m 95.60412,145.26499 c -0.690925,-0.0801 -1.22834,-0.11479 -1.433245,-0.0654 -0.208947,0.0504 -0.448138,0.88211 -0.689351,2.0725 l 7.428526,1.01618 0.22107,-2.13655 c 0,0 -3.454194,-0.64671 -5.526992,-0.88673 z"
             id="path5947"
             inkscape:connector-curvature="0" />
          <ellipse
             ry="2.3405833"
             rx="2.3825285"
             style="display:inline;opacity:1;fill:#ffffff;fill-opacity:1;stroke:#000000;stroke-width:0.42872015;stroke-miterlimit:4;stroke-dasharray:none;stroke-opacity:1"
             id="path5953"
             cx="114.72004"
             cy="150.81078"
             transform="matrix(0.99077279,0.13553334,-0.15070803,0.98857832,0,0)" />
          <ellipse
             ry="2.3405836"
             rx="2.3825285"
             style="display:inline;opacity:1;fill:#ffffff;fill-opacity:1;stroke:#000000;stroke-width:0.42872015;stroke-miterlimit:4;stroke-dasharray:none;stroke-opacity:1"
             id="path5953-5"
             cx="125.50828"
             cy="150.81078"
             transform="matrix(0.99077279,0.13553334,-0.15070803,0.98857832,0,0)" />
          <ellipse
             ry="2.3405836"
             rx="2.3825285"
             style="display:inline;opacity:1;fill:#ffffff;fill-opacity:1;stroke:#000000;stroke-width:0.42872015;stroke-miterlimit:4;stroke-dasharray:none;stroke-opacity:1"
             id="path5953-8"
             cx="136.29652"
             cy="150.81078"
             transform="matrix(0.99077279,0.13553334,-0.15070803,0.98857832,0,0)" />
          <rect
             transform="matrix(0.79268258,0.60963459,-0.62774072,0.7784225,0,0)"
             style="opacity:1;fill:#009c3b;fill-opacity:1;stroke:#000000;stroke-width:0.2786887;stroke-miterlimit:4;stroke-dasharray:none;stroke-opacity:1"
             id="rect5828"
             width="26.861124"
             height="17.986305"
             x="230.05753"
             y="29.599422" />
          <path
             style="fill:#ffdf00;fill-opacity:1;stroke:#000000;stroke-width:0.27865168;stroke-linecap:butt;stroke-linejoin:miter;stroke-miterlimit:4;stroke-dasharray:none;stroke-opacity:1"
             d="m 173.86346,172.17966 -15.01726,-1.34146 4.8556,13.94231 15.01726,1.34146 z"
             id="path5826-6"
             inkscape:connector-curvature="0" />
          <ellipse
             ry="4.9462342"
             rx="4.9245396"
             transform="matrix(0.79268258,0.60963459,-0.62774072,0.7784225,0,0)"
             style="opacity:1;fill:#21468b;fill-opacity:1;stroke:#000000;stroke-width:0.2786887;stroke-miterlimit:4;stroke-dasharray:none;stroke-opacity:1"
             id="path5840-9"
             cx="243.48808"
             cy="38.592575" />
          <path
             inkscape:connector-curvature="0"
             style="opacity:1;fill:#ffffff;fill-opacity:1;stroke:#000000;stroke-width:0.27865168;stroke-miterlimit:4;stroke-dasharray:none;stroke-opacity:1"
             d="m 167.78247,175.44245 a 10.745411,5.3939753 37.11806 0 0 -1.58726,-1.10465 4.8771599,4.9929577 77.82541 0 0 -0.69443,0.50212 10.745411,5.3939753 37.11806 0 1 1.77808,1.22703 10.745411,5.3939753 37.11806 0 1 5.01406,5.84342 4.8771599,4.9929577 77.82541 0 0 0.39331,-0.42811 4.8771599,4.9929577 77.82541 0 0 0.12604,-0.16813 10.745411,5.3939753 37.11806 0 0 -5.0298,-5.87168 z"
             id="path5842-5" />
          <path
             style="color:#000000;font-style:normal;font-variant:normal;font-weight:normal;font-stretch:normal;font-size:medium;line-height:normal;font-family:sans-serif;font-variant-ligatures:normal;font-variant-position:normal;font-variant-caps:normal;font-variant-numeric:normal;font-variant-alternates:normal;font-feature-settings:normal;text-indent:0;text-align:start;text-decoration:none;text-decoration-line:none;text-decoration-style:solid;text-decoration-color:#000000;letter-spacing:normal;word-spacing:normal;text-transform:none;writing-mode:lr-tb;direction:ltr;text-orientation:mixed;dominant-baseline:auto;baseline-shift:baseline;text-anchor:start;white-space:normal;shape-padding:0;clip-rule:nonzero;display:inline;overflow:visible;visibility:visible;opacity:1;isolation:auto;mix-blend-mode:normal;color-interpolation:sRGB;color-interpolation-filters:linearRGB;solid-color:#000000;solid-opacity:1;vector-effect:none;fill:#000000;fill-opacity:1;fill-rule:nonzero;stroke:#000000;stroke-width:0.21434745;stroke-linecap:butt;stroke-linejoin:miter;stroke-miterlimit:4;stroke-dasharray:none;stroke-dashoffset:0;stroke-opacity:1;color-rendering:auto;image-rendering:auto;shape-rendering:auto;text-rendering:auto;enable-background:accumulate"
             d="m 56.975657,148.39047 -0.20113,0.0801 9.060872,22.40959 0.201141,-0.0801 z"
             id="path5943"
             inkscape:connector-curvature="0" />
          <path
             style="display:inline;fill:none;stroke:#000000;stroke-width:0.45012969;stroke-linecap:butt;stroke-linejoin:miter;stroke-miterlimit:4;stroke-dasharray:none;stroke-opacity:1"
             d="m 163.78182,163.29188 -15.29995,18.86325"
             id="path5945"
             inkscape:connector-curvature="0"
             sodipodi:nodetypes="cc" />
          <rect
             transform="matrix(-0.93005546,0.36741917,0.37458624,0.92719208,0,0)"
             style="opacity:1;fill:#ae1c28;fill-opacity:1;stroke:none;stroke-width:0.37509677;stroke-miterlimit:4;stroke-dasharray:none;stroke-opacity:1"
             id="rect5228-6"
             width="27.555275"
             height="5.989193"
             x="2.9742448"
             y="158.95067" />
          <rect
             transform="matrix(-0.93005546,0.36741917,0.37458624,0.92719208,0,0)"
             style="opacity:1;fill:#21468b;fill-opacity:1;stroke:none;stroke-width:0.37509677;stroke-miterlimit:4;stroke-dasharray:none;stroke-opacity:1"
             id="rect5233-2"
             width="27.555275"
             height="5.9891982"
             x="2.9742448"
             y="170.92905" />
          <rect
             transform="matrix(-0.93005546,0.36741917,0.37458624,0.92719208,0,0)"
             style="opacity:1;fill:#ffffff;fill-opacity:0;stroke:none;stroke-width:0.37509677;stroke-miterlimit:4;stroke-dasharray:none;stroke-dashoffset:0;stroke-opacity:1"
             id="rect820"
             width="27.555275"
             height="5.9891949"
             x="2.9742448"
             y="164.93985" />
          <rect
             transform="matrix(-0.93005546,0.36741917,0.37458624,0.92719208,0,0)"
             style="opacity:1;fill:#ffffff;fill-opacity:0;stroke:none;stroke-width:0.37509677;stroke-miterlimit:4;stroke-dasharray:none;stroke-dashoffset:0;stroke-opacity:1"
             id="rect824"
             width="27.555275"
             height="5.9891949"
             x="2.9742448"
             y="164.93985" />
          <rect
             transform="matrix(-0.93005546,0.36741917,0.37458624,0.92719208,0,0)"
             style="opacity:1;fill:#ffffff;fill-opacity:0.99659867;stroke:#000000;stroke-width:0.37509677;stroke-miterlimit:4;stroke-dasharray:none;stroke-dashoffset:0;stroke-opacity:1"
             id="rect826"
             width="27.555275"
             height="5.9891949"
             x="2.9742448"
             y="164.93985" />
          <rect
             transform="matrix(-0.93005546,0.36741917,0.37458624,0.92719208,0,0)"
             style="opacity:1;fill:none;fill-opacity:1;stroke:#000000;stroke-width:0.37509677;stroke-miterlimit:4;stroke-dasharray:none;stroke-opacity:1"
             id="rect5235-2"
             width="27.555275"
             height="17.967585"
             x="2.9742448"
             y="158.95067" />
        </g>
      </g>
    </g>
    <g
       id="g1028"
       transform="translate(0,-2.4617581)">
      <flowRoot
         transform="matrix(0.26458333,0,0,0.26458333,-18.150635,218.33783)"
         style="font-style:normal;font-variant:normal;font-weight:bold;font-stretch:normal;font-size:16px;line-height:1.25;font-family:'Bauhaus 93';-inkscape-font-specification:'Bauhaus 93 Bold';text-align:center;letter-spacing:0px;word-spacing:0px;text-anchor:middle;fill:#000000;fill-opacity:1;stroke:none"
         id="flowRoot1136"
         xml:space="preserve"><flowRegion
           style="text-align:center;text-anchor:middle"
           id="flowRegion1138"><rect
             style="text-align:center;text-anchor:middle"
             y="165.89928"
             x="76.510597"
             height="26.264818"
             width="301.47464"
             id="rect1140" /></flowRegion><flowPara
           style="font-style:normal;font-variant:normal;font-weight:bold;font-stretch:normal;font-size:18.66666603px;font-family:'Lucida Sans';-inkscape-font-specification:'Lucida Sans Bold';text-align:center;text-anchor:middle"
           id="flowPara1142">S_AAA P_AAA</flowPara></flowRoot>      <flowRoot
         transform="matrix(0.64075787,0,0,0.64075787,-66.031641,207.43736)"
         style="font-style:normal;font-variant:normal;font-weight:bold;font-stretch:normal;font-size:16px;line-height:1.25;font-family:'Bauhaus 93';-inkscape-font-specification:'Bauhaus 93 Bold';letter-spacing:0px;word-spacing:0px;fill:#000000;fill-opacity:1;stroke:none"
         id="flowRoot1014"
         xml:space="preserve"><flowRegion
           id="flowRegion1016"><rect
             y="57.695759"
             x="27.858061"
             height="51.274982"
             width="280.5993"
             id="rect1018" /></flowRegion><flowPara
           style="font-style:normal;font-variant:normal;font-weight:bold;font-stretch:normal;font-size:22.02253342px;font-family:'Lucida Sans';-inkscape-font-specification:'Lucida Sans Bold';text-align:center;text-anchor:middle"
           id="flowPara1020">NAME_CCC</flowPara><flowPara
           id="flowPara1022"
           style="font-style:normal;font-variant:normal;font-weight:bold;font-stretch:normal;font-size:22.02253342px;font-family:'Lucida Sans';-inkscape-font-specification:'Lucida Sans Bold';text-align:center;text-anchor:middle" /></flowRoot>      <flowRoot
         transform="matrix(0.26458333,0,0,0.26458333,-18.074671,223.26135)"
         style="font-style:normal;font-variant:normal;font-weight:bold;font-stretch:normal;font-size:16px;line-height:1.25;font-family:'Bauhaus 93';-inkscape-font-specification:'Bauhaus 93 Bold';text-align:center;letter-spacing:0px;word-spacing:0px;text-anchor:middle;display:inline;fill:#000000;fill-opacity:1;stroke:none"
         id="flowRoot1136-7"
         xml:space="preserve"><flowRegion
           style="text-align:center;text-anchor:middle"
           id="flowRegion1138-9"><rect
             style="text-align:center;text-anchor:middle"
             y="165.89928"
             x="76.510597"
             height="26.264818"
             width="301.47464"
             id="rect1140-3" /></flowRegion><flowPara
           style="font-style:normal;font-variant:normal;font-weight:bold;font-stretch:normal;font-size:18.66666603px;font-family:'Lucida Sans';-inkscape-font-specification:'Lucida Sans Bold';text-align:center;text-anchor:middle"
           id="flowPara1142-7">S_BBB P_BBB</flowPara></flowRoot>    </g>
  </g>
</svg>
