<?xml version="1.0" encoding="UTF-8" standalone="no"?>
<!-- Created with Inkscape (http://www.inkscape.org/) -->

<svg
   xmlns:dc="http://purl.org/dc/elements/1.1/"
   xmlns:cc="http://creativecommons.org/ns#"
   xmlns:rdf="http://www.w3.org/1999/02/22-rdf-syntax-ns#"
   xmlns:svg="http://www.w3.org/2000/svg"
   xmlns="http://www.w3.org/2000/svg"
   xmlns:sodipodi="http://sodipodi.sourceforge.net/DTD/sodipodi-0.dtd"
   xmlns:inkscape="http://www.inkscape.org/namespaces/inkscape"
   width="210mm"
   height="297mm"
   viewBox="0 0 210 297"
   version="1.1"
   id="svg8"
   inkscape:version="0.92.2 (5c3e80d, 2017-08-06)"
   sodipodi:docname="tulipas_clip_art.svg">
  <defs
     id="defs2" />
  <sodipodi:namedview
     id="base"
     pagecolor="#ffffff"
     bordercolor="#666666"
     borderopacity="1.0"
     inkscape:pageopacity="0.0"
     inkscape:pageshadow="2"
     inkscape:zoom="0.065670013"
     inkscape:cx="-2160.4057"
     inkscape:cy="1578.9935"
     inkscape:document-units="mm"
     inkscape:current-layer="layer1"
     showgrid="false"
     inkscape:window-width="1920"
     inkscape:window-height="1002"
     inkscape:window-x="-6"
     inkscape:window-y="-6"
     inkscape:window-maximized="1" />
  <metadata
     id="metadata5">
    <rdf:RDF>
      <cc:Work
         rdf:about="">
        <dc:format>image/svg+xml</dc:format>
        <dc:type
           rdf:resource="http://purl.org/dc/dcmitype/StillImage" />
        <dc:title></dc:title>
      </cc:Work>
    </rdf:RDF>
  </metadata>
  <g
     inkscape:label="Layer 1"
     inkscape:groupmode="layer"
     id="layer1">
    <g
       id="g1064"
       transform="translate(57.030815,4.0289663)">
      <g
         transform="translate(0,2.6228904)"
         id="g1045">
        <path
           style="fill:#1be16a;fill-opacity:1;stroke:#000000;stroke-width:3;stroke-miterlimit:4;stroke-dasharray:none;stroke-opacity:1"
           d="m -431.58223,694.28694 c 0.5732,-0.3275 1.4396,-0.8903 1.9254,-1.2508 0.8505,-0.6312 3.7642,-3.4966 4.3355,-4.2637 0.7144,-0.9591 2.5147,-3.6879 3.0089,-4.5604 0.3026,-0.5343 0.807,-1.418 1.1209,-1.9637 2.2005,-3.8249 4.2014,-7.8283 5.8517,-11.7078 0.2167,-0.5093 0.5767,-1.3428 0.7999,-1.8521 0.2233,-0.5093 0.7247,-1.7595 1.1141,-2.7781 0.3894,-1.0187 0.8041,-2.0902 0.9216,-2.3813 0.1174,-0.291 0.3566,-0.9458 0.5315,-1.4552 0.1749,-0.5093 0.4189,-1.1641 0.5422,-1.4552 0.3551,-0.8384 2.5122,-7.4376 3.2863,-10.0541 0.3875,-1.3097 0.9182,-3.0957 1.1793,-3.9688 0.261,-0.8731 0.7414,-2.5995 1.0674,-3.8365 0.326,-1.2369 0.6967,-2.5466 0.8237,-2.9104 0.1934,-0.554 3.4117,-13.6355 4.1984,-17.0656 0.4765,-2.0775 0.8497,-3.7201 1.0816,-4.7625 1.0989,-4.9372 2.9263,-13.7674 4.6544,-22.48964 0.8072,-4.07458 2.366,-11.87317 3.464,-17.33018 1.0979,-5.457 2.0847,-10.3981 2.1927,-10.98021 0.6888,-3.7116 2.8267,-11.96713 4.7621,-18.38854 0.4606,-1.52799 0.9466,-3.1651 1.0802,-3.6381 0.1335,-0.47289 0.352,-1.24679 0.4856,-1.71979 0.1335,-0.47292 0.7386,-2.52672 1.3446,-4.56401 0.6061,-2.03729 1.2112,-4.09109 1.3448,-4.56409 0.1335,-0.47291 0.3521,-1.24679 0.4855,-1.71982 0.1337,-0.47289 0.6196,-2.10999 1.0803,-3.63799 0.4605,-1.528 0.9465,-3.1651 1.08,-3.63799 0.1335,-0.473 0.3687,-1.30641 0.5224,-1.85211 0.1536,-0.54571 0.3802,-1.34941 0.5036,-1.78589 0.1233,-0.43661 0.7254,-2.4607 1.3381,-4.49799 0.6127,-2.03722 1.2196,-4.09112 1.3484,-4.56401 0.2164,-0.79399 0.4274,-1.54821 1.0177,-3.638 0.1232,-0.43661 0.7254,-2.4607 1.3382,-4.49799 0.6127,-2.03722 1.2195,-4.09112 1.3484,-4.56401 0.1289,-0.473 0.3534,-1.27662 0.499,-1.78599 0.1455,-0.50933 0.3746,-1.31292 0.509,-1.78592 0.1346,-0.47289 0.6226,-2.10999 1.0847,-3.63799 0.4619,-1.528 0.9472,-3.1651 1.0783,-3.63799 0.5111,-1.8442 0.7618,-2.70651 1.8259,-6.28391 0.606,-2.03729 1.2012,-4.0613 1.3228,-4.49792 0.1216,-0.43659 0.5978,-2.04388 1.0585,-3.57187 0.4605,-1.52792 0.9403,-3.13532 1.0662,-3.5719 0.126,-0.43651 0.6014,-2.04391 1.0566,-3.57183 0.4551,-1.52799 0.9277,-3.13528 1.0503,-3.5719 0.1225,-0.43659 0.4805,-1.62719 0.7956,-2.64578 0.315,-1.0187 0.6722,-2.2093 0.7937,-2.64591 0.1215,-0.43648 0.4787,-1.62719 0.7938,-2.64581 0.315,-1.0187 0.671,-2.2093 0.7911,-2.64578 0.3623,-1.31702 1.0725,-3.63881 1.4568,-4.7625 0.1991,-0.58211 0.563,-1.77271 0.8088,-2.64591 0.2457,-0.8731 0.654,-2.24229 0.9072,-3.04268 0.2533,-0.80031 0.7317,-2.34821 1.0631,-3.43961 0.3315,-1.09141 0.8077,-2.6392 1.0584,-3.43951 0.2506,-0.80039 0.7277,-2.3482 1.0602,-3.43961 0.3325,-1.09138 0.8181,-2.6393 1.0791,-3.43958 0.2611,-0.80042 0.9701,-3.06261 1.5756,-5.02711 0.6056,-1.9645 1.4286,-4.58391 1.829,-5.82081 0.4005,-1.23698 1.2415,-3.8563 1.8691,-5.82088 1.8758,-5.8719 11.1102,-33.6921 11.3732,-34.26352 0.134,-0.29109 0.6596,-1.77929 1.1681,-3.30729 1.4048,-4.22156 2.8049,-8.27294 3.063,-8.86354 0.1272,-0.29104 0.485,-1.30307 0.7952,-2.24896 0.3101,-0.94589 0.6691,-1.95792 0.7978,-2.24896 0.1286,-0.29104 0.4109,-1.06495 0.6274,-1.71979 0.6214,-1.87979 1.7654,-5.10823 2.0157,-5.68854 0.1255,-0.29104 0.38,-1.00542 0.5655,-1.5875 0.1855,-0.58208 0.41,-1.1774 0.499,-1.32292 0.089,-0.14552 0.3237,-0.80036 0.5217,-1.45521 0.1979,-0.65484 0.442,-1.30968 0.5423,-1.4552 0.1004,-0.14553 0.3253,-0.74084 0.4999,-1.32292 0.1747,-0.58208 0.4163,-1.29646 0.537,-1.5875 0.1207,-0.29104 0.3625,-0.94589 0.5374,-1.45521 0.1749,-0.50932 0.4135,-1.16417 0.5301,-1.45521 0.1166,-0.29104 0.4734,-1.24354 0.7928,-2.11666 0.3194,-0.87313 0.6762,-1.82563 0.7929,-2.11667 0.1166,-0.29104 0.3552,-0.94589 0.5301,-1.45521 0.1748,-0.50932 0.4134,-1.16417 0.53,-1.45521 0.1167,-0.29104 0.4735,-1.24354 0.7929,-2.11666 0.3194,-0.87313 0.6766,-1.82563 0.7937,-2.11667 0.1172,-0.29104 0.4744,-1.24354 0.7938,-2.11667 0.3194,-0.87312 0.6882,-1.85539 0.8195,-2.18281 0.1314,-0.32742 0.3463,-0.8632 0.4776,-1.19063 0.1313,-0.32742 0.5001,-1.30968 0.8195,-2.18281 0.3194,-0.87312 0.7042,-1.88515 0.855,-2.24896 0.3325,-0.80205 0.3959,-0.96612 1.7909,-4.6302 0.6094,-1.60073 1.2159,-3.17831 1.3477,-3.50573 0.1319,-0.32743 0.3588,-0.89297 0.5044,-1.25677 0.1455,-0.36381 0.3836,-0.95912 0.5291,-1.32292 0.1455,-0.3638 0.3837,-0.95912 0.5292,-1.32292 0.1455,-0.3638 0.3677,-0.92935 0.4938,-1.25677 0.126,-0.32742 0.3801,-0.9525 0.5645,-1.38906 0.3685,-0.87204 0.7413,-1.79634 1.0938,-2.71198 0.126,-0.32742 0.3482,-0.89297 0.4937,-1.25677 0.1455,-0.3638 0.3837,-0.95912 0.5292,-1.32292 0.1455,-0.3638 0.3718,-0.92935 0.5028,-1.25677 0.131,-0.32742 0.4882,-1.15956 0.7937,-1.8492 0.3056,-0.68963 0.5556,-1.31601 0.5556,-1.39194 0,-0.0759 0.2499,-0.70231 0.5555,-1.39195 0.3056,-0.68964 0.6509,-1.49201 0.7674,-1.78305 0.1165,-0.29105 0.4618,-1.09342 0.7674,-1.78306 0.3055,-0.68963 0.5555,-1.31601 0.5555,-1.39194 0,-0.13044 0.2191,-0.6421 1.5564,-3.63514 0.3081,-0.68964 0.5603,-1.31601 0.5603,-1.39195 0,-0.0759 0.252,-0.70231 0.5599,-1.39194 0.308,-0.68964 0.7122,-1.61108 0.8981,-2.04764 0.186,-0.43656 0.6015,-1.38906 0.9232,-2.11667 0.3218,-0.7276 0.7511,-1.70987 0.954,-2.18281 0.2029,-0.47294 0.535,-1.24685 0.7379,-1.71979 0.2029,-0.47295 0.6322,-1.45521 0.954,-2.18281 0.3217,-0.72761 0.7634,-1.73964 0.9815,-2.24896 0.218,-0.50933 0.6389,-1.46183 0.9353,-2.11667 0.5866,-1.29614 1.1722,-2.61329 2.029,-4.56406 0.8455,-1.92471 1.4894,-3.36452 2.2186,-4.96094 0.3656,-0.80036 0.9254,-2.05052 1.2439,-2.77812 0.3185,-0.72761 0.8655,-1.948 1.2156,-2.71198 0.3501,-0.76399 0.9211,-2.01414 1.2689,-2.77813 0.6154,-1.35189 1.4479,-3.16233 3.0717,-6.68073 0.4366,-0.94588 1.151,-2.4937 1.5875,-3.43958 0.4366,-0.94589 1.1634,-2.52347 1.6151,-3.50573 0.4517,-0.98227 1.2256,-2.64914 1.7198,-3.70417 0.4941,-1.05502 1.3018,-2.78143 1.7947,-3.83646 0.4929,-1.05502 1.3859,-2.96002 1.9844,-4.23333 0.5985,-1.27331 1.5774,-3.3569 2.1753,-4.63021 0.598,-1.2733 1.5966,-3.38666 2.2191,-4.69635 0.6225,-1.30969 1.8109,-3.81 2.6409,-5.55625 0.83,-1.74625 1.9036,-4.00844 2.3858,-5.02708 0.4821,-1.01865 1.4698,-3.10224 2.1946,-4.63021 0.7249,-1.52797 1.8538,-3.90922 2.5086,-5.29167 0.6548,-1.38245 1.8132,-3.82323 2.5742,-5.42396 1.9035,-4.00388 3.5784,-7.5425 4.7591,-10.05419 1.7752,-3.77645 3.09,-6.56857 4.1736,-8.86352 0.5841,-1.23692 1.4921,-3.17169 2.0178,-4.2995 2.2469,-4.82037 2.9087,-6.2429 3.6309,-7.80521 0.4205,-0.90948 1.1368,-2.45729 1.5918,-3.43956 1.2473,-2.6925 2.2165,-4.79975 2.9511,-6.41614 0.3638,-0.80037 1.0193,-2.22912 1.4567,-3.175 0.4374,-0.94589 1.0582,-2.31511 1.3795,-3.04271 0.3212,-0.72763 0.915,-2.03732 1.3194,-2.91042 0.4044,-0.87315 0.9403,-2.06375 1.1907,-2.64583 0.2504,-0.58211 0.681,-1.56435 0.957,-2.18284 0.2759,-0.61844 0.7397,-1.66026 1.0308,-2.31508 0.291,-0.65484 0.7673,-1.72643 1.0583,-2.38125 0.291,-0.65484 0.7549,-1.69664 1.0308,-2.3151 0.2759,-0.61849 0.6785,-1.5412 0.8947,-2.05055 0.7015,-1.65304 1.2948,-3.02083 1.7787,-4.10104 0.2607,-0.58206 0.6651,-1.50482 0.8985,-2.05052 1.0402,-2.43171 1.3233,-3.07544 2.0418,-4.64209 0.4201,-0.91604 0.7638,-1.78083 0.7638,-1.9218 0,-0.14097 0.1083,-0.46305 0.2406,-0.71575 0.5963,-1.13901 1.8761,-4.07993 1.8761,-4.31136 0,-0.14092 0.1091,-0.46302 0.2423,-0.7157 0.346,-0.65593 0.914,-1.99792 1.8744,-4.4282 0.46,-1.16414 1.0175,-2.53336 1.2389,-3.04268 0.2214,-0.50935 0.5094,-1.19396 0.6401,-1.52138 0.1307,-0.32742 0.3448,-0.86318 0.4758,-1.1906 0.1311,-0.32742 0.4883,-1.15959 0.7938,-1.8492 0.3056,-0.68966 0.5555,-1.37586 0.5555,-1.52498 0,-0.14904 0.1052,-0.47778 0.2337,-0.73046 0.1286,-0.2527 0.3508,-0.75708 0.4938,-1.12088 0.143,-0.36383 0.3839,-0.95914 0.5352,-1.32294 0.1513,-0.36378 0.7738,-1.97115 1.3832,-3.57188 0.6094,-1.60073 1.2318,-3.20807 1.3831,-3.57187 0.3662,-0.88019 0.573,-1.42211 1.2627,-3.30727 0.3194,-0.87315 0.6778,-1.82565 0.7964,-2.11669 0.1186,-0.29104 0.4801,-1.24354 0.8034,-2.11667 0.3232,-0.87312 0.6788,-1.82562 0.7901,-2.11664 0.1114,-0.29104 0.3456,-0.94591 0.5205,-1.45523 0.1749,-0.5093 0.413,-1.16417 0.5292,-1.45521 0.1161,-0.29104 0.3543,-0.94589 0.5292,-1.45521 0.1748,-0.50932 0.4165,-1.16417 0.537,-1.45521 0.2969,-0.71718 1.4659,-4.05828 2.268,-6.48229 0.3612,-1.09141 0.7662,-2.2225 0.9001,-2.51354 0.2062,-0.44823 1.1894,-3.40482 5.0041,-15.04691 0.2799,-0.85423 0.415,-1.44952 0.3002,-1.32292 -0.3672,0.405 -3.9824,5.89537 -3.9824,6.04806 0,0.0808 -1.3097,2.10622 -2.9104,4.50096 -1.6007,2.39469 -2.9104,4.41672 -2.9104,4.49334 0,0.0766 -1.3494,2.1926 -2.9987,4.70215 -7.6295,11.60891 -8.643,13.16744 -8.643,13.29161 0,0.0729 -1.3097,2.09277 -2.9104,4.4886 -1.6007,2.39578 -2.9104,4.42296 -2.9104,4.50477 0,0.0818 -1.3097,2.10812 -2.9104,4.50284 -1.6007,2.39474 -2.9104,4.41878 -2.9104,4.49794 0,0.0791 -1.3097,2.1032 -2.9104,4.49789 -1.6008,2.39472 -2.9105,4.41878 -2.9105,4.49792 0,0.0791 -1.3097,2.1032 -2.9104,4.49794 -1.6007,2.39472 -2.9104,4.41878 -2.9104,4.49792 0,0.0791 -1.3097,2.10317 -2.9104,4.49789 -1.6007,2.39474 -2.9104,4.41878 -2.9104,4.49794 0,0.0791 -1.3097,2.1032 -2.9104,4.49792 -1.6008,2.39469 -2.9105,4.41674 -2.9105,4.49334 0,0.0766 -1.3494,2.1926 -2.9987,4.70217 -7.6295,11.60889 -8.6429,13.16744 -8.6429,13.29161 0,0.0729 -1.3097,2.09275 -2.9104,4.48858 -1.6008,2.3958 -2.9105,4.42296 -2.9105,4.50479 0,0.0818 -1.3097,2.1081 -2.9104,4.50284 -1.6007,2.39472 -2.9104,4.41878 -2.9104,4.49792 0,0.0791 -1.3097,2.1032 -2.9104,4.49789 -1.6007,2.39474 -2.9104,4.41878 -2.9104,4.49794 0,0.0791 -1.3097,2.1032 -2.9104,4.49792 -1.6008,2.39472 -2.9105,4.41878 -2.9105,4.49791 0,0.0791 -1.3097,2.10318 -2.9104,4.49792 -1.6007,2.39472 -2.9104,4.41878 -2.9104,4.49792 0,0.0791 -1.3097,2.1032 -2.9104,4.49791 -1.6007,2.39472 -2.9104,4.41675 -2.9104,4.49337 0,0.0766 -1.3495,2.1926 -2.9988,4.70215 -7.652,11.64325 -8.6429,13.16797 -8.6429,13.29928 0,0.0771 -0.9385,1.53625 -2.0856,3.24252 -1.1471,1.70625 -2.3378,3.54875 -2.6459,4.09446 -0.3081,0.5457 -0.7983,1.4089 -1.0893,1.91823 -0.2911,0.50932 -0.7673,1.34276 -1.0584,1.85208 -0.291,0.50932 -0.786,1.37252 -1.0999,1.91823 -0.7076,1.22991 -1.8861,3.33687 -2.553,4.56406 -1.7781,3.27229 -2.1485,3.94462 -2.6971,4.89479 -0.6927,1.19991 -1.7083,3.06266 -3.2458,5.95313 -0.5805,1.0914 -1.5343,2.87734 -2.1194,3.96875 -6.4016,11.94072 -15.5919,30.32043 -21.4323,42.8625 -0.5082,1.0914 -1.4021,2.9964 -1.9864,4.23333 -0.5843,1.23693 -1.3234,2.84427 -1.6424,3.57188 -0.3189,0.7276 -0.8525,1.91822 -1.1858,2.64583 -0.3333,0.7276 -0.9857,2.15635 -1.4498,3.175 -0.4641,1.01864 -1.0629,2.32833 -1.3306,2.91042 -0.2677,0.58208 -0.7352,1.62388 -1.0388,2.3151 -0.3036,0.69122 -0.8052,1.82232 -1.1147,2.51354 -0.3095,0.69122 -0.6609,1.4949 -0.781,1.78594 -0.1201,0.29104 -0.7004,1.58279 -1.2894,2.87054 -0.5891,1.28776 -1.0711,2.43033 -1.0711,2.53905 0,0.10869 -0.1671,0.54337 -0.3715,0.96591 -0.5579,1.1538 -2.0528,4.56854 -2.5372,5.79533 -0.1148,0.29104 -0.5789,1.33818 -1.0314,2.32699 -0.4522,0.9888 -0.8223,1.94725 -0.8223,2.12989 0,0.18264 -0.1012,0.44519 -0.2249,0.58343 -0.1235,0.13825 -0.431,0.78714 -0.6832,1.44198 -0.2521,0.65485 -0.6392,1.60735 -0.8604,2.11667 -0.2213,0.50932 -0.497,1.16417 -0.6128,1.45521 -0.1158,0.29104 -0.3922,0.94588 -0.6138,1.45521 -0.2218,0.50932 -0.6599,1.58088 -0.9737,2.38125 -0.3138,0.80036 -0.752,1.87192 -0.9737,2.38125 -0.2218,0.50932 -0.4982,1.16416 -0.6144,1.45521 -0.1163,0.29104 -0.4612,1.09341 -0.7668,1.78305 -0.3056,0.68964 -0.5556,1.37586 -0.5556,1.52495 0,0.14907 -0.1052,0.47779 -0.2336,0.73049 -0.2599,0.51059 -0.9116,2.08875 -1.583,3.83286 -0.1261,0.32742 -0.3642,0.92273 -0.5292,1.32292 -0.1649,0.40018 -0.4191,1.02526 -0.5645,1.38906 -0.1455,0.3638 -0.3836,0.95911 -0.5292,1.32292 -0.1456,0.3638 -0.3837,0.95911 -0.5292,1.32291 -0.1456,0.3638 -0.3725,0.92935 -0.5044,1.25677 -0.1317,0.32742 -0.7382,1.905 -1.3476,3.50573 -0.6095,1.60073 -1.216,3.17831 -1.3479,3.50573 -0.1317,0.32742 -0.3473,0.8632 -0.4791,1.19063 -0.1316,0.32742 -0.6191,1.60734 -1.0835,2.84427 -0.4642,1.23692 -0.9405,2.48708 -1.0584,2.7781 -0.2948,0.72858 -1.7908,4.71379 -2.4333,6.48229 -0.2908,0.80039 -0.6245,1.69338 -0.7417,1.9844 -0.1171,0.29099 -0.4743,1.24349 -0.7937,2.11669 -0.3194,0.8731 -0.6762,1.8256 -0.7929,2.11662 -0.1166,0.29109 -0.3551,0.94588 -0.53,1.45518 -0.1749,0.5094 -0.413,1.16419 -0.5291,1.45531 -0.1162,0.29099 -0.3543,0.94578 -0.5293,1.45518 -0.1749,0.50933 -0.419,1.16412 -0.5425,1.45521 -0.1234,0.29099 -0.4017,1.0649 -0.6181,1.71979 -0.6444,1.94921 -1.7704,5.1208 -2.0199,5.68852 -0.1278,0.29109 -0.4118,1.065 -0.6309,1.71979 -0.2193,0.65479 -1.0039,2.917 -1.7435,5.02711 -0.7398,2.11 -1.8804,5.4438 -2.5348,7.40828 -0.6543,1.96451 -1.3015,3.81 -1.438,4.10112 -0.2625,0.5593 -3.2975,9.74871 -6.0734,18.38849 -0.9117,2.83771 -1.871,5.81419 -2.1318,6.61461 -0.2608,0.80029 -0.9703,3.0625 -1.5766,5.02708 -0.6064,1.96451 -1.2051,3.86951 -1.3305,4.23331 -0.1253,0.3638 -0.6004,1.91161 -1.0558,3.43961 -0.4553,1.528 -0.9269,3.07578 -1.0479,3.43958 -0.121,0.36381 -0.4786,1.5544 -0.7947,2.64581 -0.3161,1.09141 -0.6719,2.282 -0.7906,2.64581 -0.1187,0.3638 -0.3625,1.19729 -0.5418,1.85211 -0.1793,0.65489 -0.4272,1.48828 -0.551,1.85208 -0.237,0.6967 -3.6144,12.49741 -4.3541,15.21352 -0.2378,0.87317 -0.5329,1.94468 -0.6558,2.38127 -0.3128,1.11141 -1.225,4.53501 -1.8154,6.81302 -0.7895,3.04671 -1.0018,3.37349 -2.1912,3.37349 h -1.0158 v -1.78599 c 0,-0.98221 0.1179,-4.70299 0.2588,-8.2682 5.8036,-146.85269 6.294,-317.89944 1.3238,-461.69797 -0.7418,-21.46231 -1.8338,-49.41837 -2.2815,-58.40677 l -0.1745,-3.50573 -1.7475,-0.005 c -2.1868,-0.006 -7.4836,-0.84042 -10.5403,-1.66055 l -1.3846,-0.37153 -0.1229,0.82 c -0.068,0.45098 -0.2527,5.58247 -0.4111,11.4033 -0.1585,5.82081 -0.4011,14.27427 -0.5391,18.78542 -3.1007,101.31192 -4.646,226.52887 -3.9958,323.77706 0.4234,63.32566 1.2028,113.85576 2.4151,156.57406 0.1425,5.02042 0.3388,12.90831 0.4363,17.52859 l 0.1772,8.40053 h -0.9687 c -0.7923,0 -0.9687,-0.096 -0.9687,-0.52912 0,-0.29109 -0.1014,-0.52919 -0.2254,-0.52919 -0.1239,0 -0.4341,-0.8037 -0.6894,-1.78591 -0.4094,-1.57488 -0.7144,-2.70539 -1.7311,-6.4162 -0.1395,-0.5093 -0.4967,-1.81899 -0.7937,-2.91039 -0.9565,-3.5147 -1.1161,-4.08919 -1.3229,-4.7625 -0.1118,-0.3638 -0.3499,-1.19721 -0.5292,-1.85211 -0.1793,-0.65479 -0.4174,-1.48828 -0.5292,-1.85208 -0.1117,-0.36381 -0.3351,-1.13771 -0.4962,-1.71982 -0.1612,-0.58198 -0.5237,-1.83219 -0.8055,-2.7781 -0.2819,-0.94589 -0.7715,-2.61279 -1.0881,-3.70419 -0.3165,-1.09141 -0.6701,-2.28201 -0.7855,-2.64581 -0.1155,-0.3638 -0.4089,-1.37578 -0.652,-2.24888 -0.243,-0.8732 -0.6026,-2.0638 -0.7991,-2.64591 -0.1964,-0.58211 -0.6196,-1.9513 -0.9404,-3.04271 -0.3207,-1.09138 -0.7921,-2.63919 -1.0474,-3.43958 -0.2553,-0.80032 -0.8478,-2.70532 -1.3167,-4.23331 -0.4689,-1.528 -1.0657,-3.433 -1.3261,-4.23331 -0.2605,-0.80039 -1.0991,-3.41979 -1.8637,-5.82088 -2.0455,-6.42382 -7.6408,-23.3312 -7.9242,-23.94482 -0.1345,-0.29099 -0.732,-2.0174 -1.328,-3.83638 -0.5959,-1.81901 -1.1921,-3.54542 -1.3247,-3.83651 -0.1327,-0.29099 -0.4841,-1.3031 -0.7808,-2.24891 -0.2968,-0.94588 -0.651,-1.95799 -0.7872,-2.24898 -0.1362,-0.29102 -0.5013,-1.3031 -0.8115,-2.24901 -0.3101,-0.94581 -0.6691,-1.95789 -0.7978,-2.24891 -0.1286,-0.29109 -0.4106,-1.065 -0.6266,-1.71979 -0.216,-0.6549 -0.7684,-2.20271 -1.2276,-3.43961 -0.4591,-1.2369 -0.9292,-2.54659 -1.0446,-2.91039 -0.1154,-0.3638 -0.4141,-1.19721 -0.6636,-1.85211 -0.2495,-0.65479 -0.6918,-1.8455 -0.9829,-2.64578 -0.2911,-0.80042 -0.6251,-1.69341 -0.7423,-1.9844 -0.1171,-0.29102 -0.4743,-1.24352 -0.7937,-2.11672 -0.3194,-0.8731 -0.6766,-1.8256 -0.7938,-2.11659 -0.1171,-0.29109 -0.4743,-1.24359 -0.7937,-2.11669 -0.3194,-0.8731 -0.6766,-1.8256 -0.7938,-2.11672 -0.1171,-0.29099 -0.4743,-1.24349 -0.7937,-2.11659 -0.6879,-1.88031 -0.8955,-2.42419 -1.2623,-3.30737 -0.1512,-0.3638 -0.6547,-1.67349 -1.119,-2.91039 -0.4643,-1.23695 -0.9678,-2.54664 -1.1189,-2.91044 -0.1512,-0.36381 -0.3779,-0.92935 -0.504,-1.25678 -0.2327,-0.60446 -0.5638,-1.43737 -0.9992,-2.51354 -0.1324,-0.32742 -1.2737,-3.21468 -2.5362,-6.41614 -1.2625,-3.20146 -2.4759,-6.23755 -2.6965,-6.74688 -0.2207,-0.50932 -0.5081,-1.19393 -0.6388,-1.52135 -0.1307,-0.32742 -0.3567,-0.89297 -0.5022,-1.25677 -0.1455,-0.3638 -0.3715,-0.92935 -0.5022,-1.25677 -0.1307,-0.32743 -0.4191,-1.01203 -0.6408,-1.52136 -0.2218,-0.50932 -0.6599,-1.58088 -0.9737,-2.38125 -0.6886,-1.7567 -1.2825,-3.1464 -1.6097,-3.76671 -0.1333,-0.25271 -0.2424,-0.57478 -0.2424,-0.71573 0,-0.14097 -0.3437,-1.00578 -0.7638,-1.92182 -0.4201,-0.91604 -0.9559,-2.11201 -1.1906,-2.65772 -0.9377,-2.17987 -1.2835,-2.99979 -1.4786,-3.50573 -0.1122,-0.29104 -0.4449,-1.06494 -0.7392,-1.71979 -0.2944,-0.65484 -0.7262,-1.63711 -0.9596,-2.18281 -0.2334,-0.5457 -0.6154,-1.43867 -0.8488,-1.98438 -0.2334,-0.5457 -0.6377,-1.46843 -0.8985,-2.05052 -0.2608,-0.58208 -0.6526,-1.47505 -0.8706,-1.98437 -0.3675,-0.85831 -0.6946,-1.60004 -2.1001,-4.7625 -0.2911,-0.65484 -0.765,-1.72641 -1.0532,-2.38125 -0.2882,-0.65484 -0.8104,-1.8157 -1.1605,-2.57969 -1.2486,-2.72502 -2.0335,-4.45272 -2.6743,-5.88698 -0.9159,-2.04983 -2.615,-5.69288 -5.3679,-11.50937 -6.5564,-13.85266 -16.8619,-34.22743 -22.9845,-45.44219 -0.4568,-0.83674 -1.1694,-2.14643 -1.5834,-2.91042 -0.4141,-0.76398 -1.0278,-1.86531 -1.3639,-2.44739 -0.336,-0.58209 -0.9313,-1.65365 -1.3229,-2.38125 -0.3916,-0.72761 -0.9684,-1.7694 -1.282,-2.31511 -0.3135,-0.5457 -0.8082,-1.4089 -1.0992,-1.91823 -0.2911,-0.50932 -0.7673,-1.34276 -1.0584,-1.85208 -0.291,-0.50932 -0.7672,-1.34276 -1.0583,-1.85208 -1.3985,-2.44735 -1.7087,-2.99294 -2.3229,-4.08525 -0.3634,-0.64614 -1.061,-1.73193 -1.5502,-2.41284 -0.4891,-0.68091 -0.8894,-1.31792 -0.8894,-1.41557 0,-0.0977 -1.3097,-2.13776 -2.9104,-4.53356 -1.6007,-2.3958 -2.9104,-4.41986 -2.9104,-4.49792 0,-0.078 -1.3097,-2.10211 -2.9104,-4.49791 -1.6008,-2.39581 -2.9105,-4.41765 -2.9105,-4.493 0,-0.0753 -1.3096,-2.09632 -2.9104,-4.49104 -1.6007,-2.39471 -2.9104,-4.41878 -2.9104,-4.49791 0,-0.0791 -1.3097,-2.1032 -2.9104,-4.49792 -1.6007,-2.39472 -2.9104,-4.41878 -2.9104,-4.49792 0,-0.0791 -1.3097,-2.1032 -2.9104,-4.49791 -1.6008,-2.39472 -2.9105,-4.41878 -2.9105,-4.49792 0,-0.0791 -1.3096,-2.1032 -2.9104,-4.49792 -1.6007,-2.39471 -2.9104,-4.41878 -2.9104,-4.49791 0,-0.0791 -1.3097,-2.1032 -2.9104,-4.49792 -1.6007,-2.39472 -2.9104,-4.41878 -2.9104,-4.49792 0,-0.0791 -1.3097,-2.1032 -2.9104,-4.49791 -1.6008,-2.39472 -2.9105,-4.421 -2.9105,-4.50284 0,-0.0818 -1.3096,-2.10899 -2.9104,-4.5048 -1.6007,-2.3958 -2.9104,-4.41986 -2.9104,-4.49791 0,-0.078 -1.3097,-2.10212 -2.9104,-4.49792 -1.6007,-2.3958 -2.9104,-4.41764 -2.9104,-4.493 0,-0.0753 -1.3097,-2.09632 -2.9104,-4.49103 -1.6008,-2.39472 -2.9104,-4.41878 -2.9104,-4.49792 0,-0.0791 -1.3097,-2.1032 -2.9105,-4.49792 -1.6007,-2.39471 -2.9104,-4.41878 -2.9104,-4.49791 0,-0.0791 -1.3097,-2.1032 -2.9104,-4.49792 -1.6007,-2.39472 -2.9104,-4.41878 -2.9104,-4.49792 0,-0.0791 -1.3097,-2.1032 -2.9104,-4.49791 -1.6008,-2.39472 -2.9104,-4.41878 -2.9104,-4.49792 0,-0.0791 -1.3097,-2.1032 -2.9105,-4.49792 -1.6007,-2.39471 -2.9104,-4.41878 -2.9104,-4.49791 0,-0.0791 -1.3097,-2.1032 -2.9104,-4.49792 -1.6007,-2.39472 -2.9104,-4.421 -2.9104,-4.50284 0,-0.0818 -1.3097,-2.10899 -2.9104,-4.50479 -1.6008,-2.39581 -2.9104,-4.41987 -2.9104,-4.49792 0,-0.0781 -1.3097,-2.10211 -2.9105,-4.49792 -1.6007,-2.3958 -2.9104,-4.41764 -2.9104,-4.49299 0,-0.0753 -1.3097,-2.09632 -2.9104,-4.49104 -1.6007,-2.39472 -2.9104,-4.41878 -2.9104,-4.49792 0,-0.0791 -1.2882,-2.07602 -2.8626,-4.43756 -1.5745,-2.36151 -2.9465,-4.51908 -3.049,-4.79457 -0.1024,-0.27548 -0.2375,-0.44963 -0.3002,-0.38698 -0.063,0.0627 0.2239,1.12152 0.6369,2.35299 0.413,1.23148 1.4133,4.2631 2.2229,6.73696 0.8096,2.47385 2.0803,6.22432 2.8238,8.33437 0.7436,2.11005 1.5739,4.4913 1.8453,5.29167 0.2713,0.80036 0.8705,2.46724 1.3315,3.70417 0.461,1.23692 0.9326,2.54661 1.0481,2.91041 0.2034,0.64125 0.8925,2.49307 1.3292,3.57188 0.1178,0.29104 0.4755,1.24354 0.7949,2.11666 0.3194,0.87313 0.6766,1.82563 0.7938,2.11667 0.1171,0.29104 0.4743,1.24354 0.7937,2.11667 0.7289,1.99244 0.9058,2.45239 1.3229,3.43958 0.1845,0.43656 0.4279,1.03188 0.5409,1.32292 1.1018,2.83699 5.9462,15.02828 6.2557,15.74271 0.4875,1.12545 0.8794,2.07205 1.15,2.77812 0.1115,0.29104 0.4528,1.09342 0.7583,1.78305 0.3056,0.68964 0.5556,1.31602 0.5556,1.39195 0,0.0759 0.2381,0.67255 0.5291,1.3258 0.2911,0.65326 0.7673,1.72223 1.0584,2.37548 0.291,0.65326 0.5291,1.24987 0.5291,1.3258 0,0.0759 0.252,0.70231 0.56,1.39195 0.308,0.68964 0.7105,1.61107 0.8946,2.04764 0.7598,1.80192 1.7207,4.02648 2.5142,5.82083 0.3217,0.7276 0.7634,1.73964 0.9815,2.24896 0.218,0.50932 0.6098,1.40229 0.8706,1.98437 0.2607,0.58209 0.6651,1.50482 0.8985,2.05052 0.8639,2.01978 1.1816,2.74567 1.8235,4.16719 0.3614,0.80037 0.9201,2.05052 1.2415,2.77813 0.3214,0.7276 0.8835,1.97776 1.2491,2.77812 0.3656,0.80037 0.8774,1.93146 1.1374,2.51354 0.4475,1.00225 0.9451,2.10257 2.5424,5.6224 0.3798,0.83674 1.0497,2.29526 1.4888,3.24115 0.4391,0.94588 1.1556,2.49369 1.5922,3.43958 0.4365,0.94588 1.1509,2.4937 1.5875,3.43958 0.4365,0.94589 1.1226,2.43417 1.5246,3.30729 1.85,4.01828 5.6678,12.17536 7.7397,16.53646 0.6567,1.38245 1.6973,3.58511 2.3123,4.89479 0.615,1.30969 1.7132,3.63141 2.4405,5.15938 1.5968,3.35507 3.3171,6.97868 4.8359,10.18646 0.6201,1.30968 1.7225,3.6314 2.4497,5.15937 0.7273,1.52797 1.8264,3.84969 2.4426,5.15938 0.6162,1.30968 1.7153,3.6314 2.4426,5.15937 2.6197,5.50408 5.2027,10.97182 6.6557,14.08906 1.6537,3.54746 2.778,5.9553 3.7064,7.9375 0.4942,1.05503 1.2681,2.72191 1.7198,3.70417 0.4518,0.98227 1.1785,2.55985 1.6151,3.50573 2.3504,5.09259 3.3513,7.27636 4.3656,9.525 0.6413,1.42177 1.5997,3.52608 2.6209,5.75469 0.35,0.76398 0.8994,1.98437 1.2207,2.71198 0.5958,1.34898 1.1681,2.63988 2.1115,4.7625 0.2911,0.65484 0.7538,1.69664 1.0282,2.3151 0.2745,0.61847 0.7508,1.69003 1.0584,2.38125 0.3076,0.69123 0.8088,1.82232 1.1138,2.51354 0.305,0.69123 0.7217,1.60248 0.926,2.02502 0.2044,0.42254 0.3715,0.85722 0.3715,0.96591 0,0.10872 0.482,1.2513 1.0711,2.53905 0.5891,1.28775 1.1725,2.5795 1.2965,2.87054 0.1241,0.29105 0.4755,1.09342 0.7811,1.78306 0.3055,0.68963 0.5555,1.31601 0.5555,1.39194 0,0.0759 0.252,0.70231 0.56,1.39195 0.7838,1.75527 1.9304,4.43206 2.3504,5.48722 0.1159,0.29104 0.3916,0.94589 0.6128,1.45521 0.2212,0.50932 0.6084,1.46182 0.8605,2.11667 0.2521,0.65484 0.5596,1.30373 0.6832,1.44197 0.1236,0.13825 0.2248,0.40744 0.2248,0.5982 0,0.19077 0.25,0.91109 0.5555,1.60073 0.3056,0.68964 0.6506,1.49201 0.7668,1.78305 0.1162,0.29105 0.3925,0.94589 0.6141,1.45521 0.2216,0.50933 1.3136,3.24776 2.4267,6.08542 2.386,6.08293 2.3508,5.99411 2.7806,7.01146 0.4033,0.9543 0.5061,1.21989 1.5875,4.10104 1.0273,2.73685 1.177,3.12592 1.5263,3.96875 0.1508,0.3638 0.5356,1.37583 0.855,2.24896 0.6849,1.87222 0.8935,2.41908 1.2617,3.30729 0.1508,0.3638 0.5355,1.37583 0.8549,2.24896 0.3195,0.87312 0.6766,1.82562 0.7938,2.11666 0.1172,0.29105 0.4627,1.21378 0.768,2.05052 0.3052,0.83675 0.8047,2.20597 1.1099,3.04271 0.3052,0.83675 0.6508,1.75948 0.7679,2.05052 0.3138,0.77952 1.1984,3.18188 1.9486,5.29167 0.3622,1.01865 1.0351,2.86412 1.4953,4.10104 0.4602,1.23693 0.9345,2.54662 1.054,2.91042 0.1196,0.3638 0.5931,1.67349 1.0522,2.91042 0.4591,1.23695 1.0116,2.78474 1.2276,3.43958 0.216,0.65487 0.498,1.42875 0.6266,1.71979 0.1287,0.29107 0.4877,1.30307 0.7978,2.24896 0.3102,0.94588 0.668,1.95792 0.7952,2.24896 0.2172,0.4971 1.1318,3.11515 2.9114,8.3344 0.4218,1.2369 1.7276,5.0469 2.9018,8.46672 2.6426,7.69609 5.4188,16.0215 7.9405,23.8125 1.0598,3.27419 2.3744,7.32229 2.9214,8.99578 0.5471,1.67351 1.4945,4.6501 2.1055,6.61461 0.6109,1.9645 1.3232,4.22669 1.5827,5.02711 0.2596,0.80028 0.8534,2.70528 1.3196,4.23328 0.4662,1.52799 0.9495,3.07581 1.074,3.43961 0.1244,0.3638 0.5988,1.91159 1.0542,3.43961 0.4553,1.52789 0.9316,3.07578 1.0583,3.43958 0.1267,0.3638 0.6054,1.91162 1.0636,3.43951 1.2231,4.0781 1.2745,4.24569 1.7438,5.68859 0.2367,0.7276 0.5255,1.6801 0.6418,2.11672 0.1162,0.43648 0.4691,1.62708 0.7841,2.64578 0.3151,1.01862 0.6723,2.2093 0.7938,2.64581 0.1215,0.43659 0.4787,1.62718 0.7937,2.64591 0.3151,1.01859 0.6723,2.20919 0.7938,2.64578 0.1216,0.43651 0.5978,2.04391 1.0583,3.5719 0.4605,1.52792 0.9368,3.13531 1.0583,3.5718 0.1216,0.43661 0.5979,2.0439 1.0584,3.5719 0.4605,1.52802 0.9367,3.13531 1.0583,3.5719 0.1216,0.43651 0.5978,2.04391 1.0583,3.5719 0.4606,1.52792 0.9533,3.19482 1.0951,3.70412 0.4309,1.54828 0.6695,2.36569 1.8154,6.21768 0.606,2.03732 1.2111,4.0912 1.3446,4.56411 0.1336,0.47289 0.3521,1.2468 0.4857,1.71979 0.1335,0.47292 0.7386,2.5268 1.3447,4.56412 0.606,2.03719 1.2044,4.0613 1.3297,4.49789 0.49,1.70651 0.7675,2.68309 1.0148,3.5718 0.1418,0.5094 0.7536,2.59299 1.3596,4.63031 0.6061,2.03719 1.2179,4.12078 1.3596,4.63018 0.1418,0.5093 0.3634,1.2832 0.4925,1.71982 0.1291,0.43648 0.3507,1.21039 0.4925,1.71969 0.1418,0.5094 0.7536,2.59299 1.3596,4.63031 1.1458,3.85199 1.3845,4.66939 1.8154,6.21768 0.1417,0.5093 0.6345,2.1762 1.095,3.70412 0.4605,1.52799 0.9533,3.19489 1.095,3.70419 0.4477,1.60859 0.6916,2.44081 1.5508,5.29169 0.7864,2.6089 0.9574,3.1949 1.5642,5.35781 0.1327,0.47289 0.5506,1.93141 0.9288,3.2411 0.3782,1.30971 0.8061,2.79799 0.9508,3.30729 1.0713,3.76925 2.3911,10.09475 8.3083,39.81984 0.6663,3.34693 1.5696,7.81173 2.0073,9.92183 0.4378,2.11 0.9065,4.3723 1.0417,5.0272 0.1352,0.6547 0.8627,3.9289 1.6168,7.2759 0.754,3.347 1.4719,6.5617 1.5954,7.1438 0.2406,1.1343 3.0977,12.4477 3.8086,15.0812 0.9259,3.4299 2.1866,7.7359 3.0211,10.3188 0.2821,0.8731 0.8942,2.8376 1.3603,4.3656 0.4661,1.528 0.9274,2.8973 1.0252,3.0428 0.098,0.1454 0.3303,0.7408 0.5165,1.3228 0.3403,1.0635 1.2046,3.4547 1.6496,4.5642 0.1313,0.3274 0.3419,0.8632 0.468,1.1906 0.3785,0.9831 0.9035,2.2362 2.0511,4.8947 0.6643,1.5389 4.2741,8.79 5.0383,10.1204 2.0248,3.5251 5.293,7.8771 7.498,9.9844 0.6549,0.6259 1.4288,1.3661 1.7198,1.645 0.6932,0.6642 0.9733,0.6574 2.2187,-0.054 z"
           id="path847-7"
           inkscape:connector-curvature="0"
           sodipodi:nodetypes="ccccccccccccccccccccccccccccccccccccccccccccccccccccccccccccccccccsscccsssccccccccccccccsscccssscssccscscccsccccccccccccccscssccscccccccccccccccccccscscccsccscccsccsccccccccscscssscscscscscscscscscscscscscscsccccccccccsccccssscscccscccsccccssccccccccccccccccccccccccccccccccsccccccscsssccccccccscccsssccccccccccccccccccccccccccscccccscccccccscssccccsscccsccccscccccccccccccssscscssscscssscscssscscssscscssscscsssccccccccccccccccccsccsscccccccccccccccccscccccccccccccccssccsccsccscccccccccccccccccccccccccccccccsccccccccccccccccccccccccccccccccccccccsccccsccccc" />
        <path
           style="fill:#fff20d;fill-opacity:1;stroke:#000000;stroke-width:3;stroke-miterlimit:4;stroke-dasharray:none;stroke-opacity:1"
           d="m -424.48773,-34.04499 c 2.2653,-0.38497 5.0767,-1.07151 9.6573,-2.35839 2.7054,-0.76004 9.3353,-3.4675 13.5477,-5.53249 21.31,-10.44633 40.7062,-27.35445 58.2374,-50.7665 20.435,-27.29 34.3182,-58.4746 41.0428,-92.19067 2.8312,-14.19533 5.7365,-36.70139 7.0113,-54.31294 0.8084,-11.16824 1.0152,-19.21611 0.8629,-33.58524 -0.1975,-18.63729 -1.1184,-33.20097 -3.506,-55.44706 -1.1705,-10.90677 -3.1969,-27.6715 -3.3579,-27.78117 -0.037,-0.0251 -1.0194,0.98007 -2.1836,2.23368 -15.325,16.50238 -55.351,58.55016 -67.5762,70.98968 -4.856,4.94107 -5.1893,5.22553 -6.1234,5.22553 h -0.988 l -30.8697,-60.12658 c -15.29982,-29.80068 -17.41124,-33.99089 -31.54628,-63.3922 -18.14438,38.39237 -21.451,47.05273 -29.75912,63.93297 l -30.0695,61.04102 -1.0629,0.0803 -1.0629,0.0803 -30.1171,-33.27744 c -14.32157,-15.77294 -28.55626,-31.62481 -42.8969,-47.38044 -0.81955,8.2082 -1.4759,16.43956 -2.029,24.67009 -1.9757,29.88974 -1.8558,54.21704 0.4009,81.35939 5.9594,71.67569 24.3418,127.58516 54.1961,164.83543 14.4266,18.00061 32.3234,32.19394 51.9308,41.1844 7.3873,3.38728 19.7832,7.85832 22.7795,8.21624 0.6912,0.0826 1.2568,0.25263 1.2568,0.37788 0,0.12526 0.4692,0.22773 1.0427,0.22773 0.5735,0 1.1163,0.11906 1.2062,0.26458 0.09,0.14552 0.5662,0.26458 1.0584,0.26458 0.4921,0 0.9684,0.11907 1.0583,0.26459 0.09,0.14552 0.5662,0.26458 1.0583,0.26458 0.4922,0 0.9684,0.11906 1.0584,0.26458 0.09,0.14553 0.6922,0.26459 1.3385,0.26459 0.6463,0 1.175,0.11538 1.175,0.25643 0,0.28385 5.2422,0.50819 8.599,0.36801 1.1641,-0.0486 3.2477,-0.28059 4.6302,-0.51554 z"
           id="path837-4"
           inkscape:connector-curvature="0"
           sodipodi:nodetypes="cccccscccccsccccccccccssccsscscscssccc" />
      </g>
      <g
         transform="translate(68.114108,-470.81861)"
         id="g1049">
        <path
           style="fill:#1be16a;fill-opacity:1;stroke:#000000;stroke-width:3;stroke-miterlimit:4;stroke-dasharray:none;stroke-opacity:1"
           d="m -19.868767,1167.7285 c 0.57319,-0.3275 1.4396,-0.8903 1.9254,-1.2508 0.8505,-0.6312 3.7642,-3.4966 4.33549,-4.2637 0.71441,-0.9591 2.51471,-3.6879 3.0089,-4.5604 0.30261,-0.5343 0.8070099,-1.418 1.1209099,-1.9637 2.2005,-3.8249 4.20139,-7.8283 5.8517,-11.7078 0.2167,-0.5093 0.5767,-1.3428 0.7999,-1.8521 0.2233,-0.5093 0.7247,-1.7595 1.11409,-2.7781 0.38941,-1.0187 0.80410998,-2.0902 0.92160998,-2.3813 0.1174,-0.291 0.3566,-0.9458 0.5315,-1.4552 0.1749,-0.5093 0.4189,-1.1641 0.5422,-1.4552 0.3551,-0.8384 2.51219002,-7.4376 3.28630002,-10.0541 0.38749,-1.3097 0.91819,-3.0957 1.17928,-3.9688 0.26102,-0.8731 0.74142,-2.5995 1.06741,-3.8365 0.326,-1.2369 0.6967,-2.5466 0.8237,-2.9104 0.19341,-0.554 3.4117001,-13.6355 4.1984101,-17.0656 0.47649,-2.0775 0.84968,-3.7201 1.08159,-4.7625 1.0989,-4.9372 2.92629,-13.7674 4.65439,-22.4896 0.80722,-4.0746 2.36601,-11.8732 3.46401,-17.3302 1.09791,-5.457 2.0847,-10.3981 2.19271,-10.9803 0.68879,-3.7116 2.8267,-11.9671 4.7621,-18.3885 0.46059,-1.528 0.9466,-3.1651 1.08019,-3.6381 0.13351,-0.4729 0.352,-1.2468 0.48561,-1.7198 0.13349,-0.4729 0.73859,-2.5267 1.34459,-4.564 0.60611,-2.0373 1.21121,-4.0911 1.3448,-4.5641 0.13351,-0.4729 0.3521,-1.2468 0.48551,-1.7198 0.13369,-0.4729 0.6196,-2.11 1.08029,-3.638 0.46051,-1.528 0.94649,-3.16511 1.08,-3.638 0.13351,-0.47299 0.3687,-1.3064 0.5224,-1.85211 0.15361,-0.5457 0.3802,-1.3494 0.5036,-1.78588 0.1233,-0.43662 0.72541,-2.46071 1.33811,-4.498 0.61269,-2.03721 1.2196,-4.09112 1.34839,-4.56401 0.21641,-0.79398 0.42741,-1.54821 1.0177,-3.63799 0.12321,-0.43662 0.72541,-2.46071 1.33821,-4.498 0.61269,-2.03721 1.21949,-4.09112 1.34839,-4.56401 0.12891,-0.47299 0.35341,-1.27661 0.49901,-1.78599 0.14549,-0.50932 0.37459,-1.31291 0.509,-1.78591 0.1346,-0.47289 0.62259,-2.11 1.08469,-3.63799 0.46191,-1.528 0.94721,-3.16511 1.07831,-3.638 0.51109,-1.8442 0.76179,-2.7065 1.82589,-6.2839 0.606,-2.0373 1.20121,-4.06131 1.32281,-4.49792 0.1216,-0.43659 0.5978,-2.04388 1.05849,-3.57188 0.46051,-1.52791 0.9403,-3.13531 1.06622,-3.5719 0.12599,-0.43651 0.6014,-2.0439 1.05659,-3.57182 0.45511,-1.52799 0.9277,-3.13529 1.05029,-3.5719 0.1225,-0.43659 0.48051,-1.62719 0.7956,-2.64578 0.31501,-1.0187 0.6722,-2.2093 0.7937,-2.64591 0.12152,-0.43649 0.47871,-1.62719 0.7938,-2.64581 0.31501,-1.0187 0.67101,-2.2093 0.7911,-2.64578 0.3623,-1.31702 1.07252,-3.63882 1.4568,-4.7625 0.1991,-0.58211 0.563,-1.77271 0.8088,-2.64591 0.24569,-0.8731 0.654,-2.24229 0.90721,-3.04269 0.25331,-0.80031 0.7317,-2.3482 1.06309,-3.43961 0.3315,-1.0914 0.8077,-2.63919 1.05841,-3.4395 0.25059,-0.80039 0.72769,-2.3482 1.06019,-3.43961 0.3325,-1.09138 0.81812,-2.6393 1.0791,-3.43958 0.26109,-0.80042 0.9701,-3.06261 1.5756,-5.02711 0.6056,-1.96451 1.42861,-4.58391 1.82901,-5.82081 0.4005,-1.23698 1.2415,-3.8563 1.86909,-5.82089 1.87579,-5.87189 11.1102,-33.69209 11.3732,-34.26351 0.13401,-0.2911 0.6596,-1.7793 1.16811,-3.30729 1.4048,-4.22156 2.8049,-8.27294 3.063,-8.86354 0.12718,-0.29105 0.48501,-1.30308 0.7952,-2.24896 0.3101,-0.94589 0.66911,-1.95792 0.7978,-2.24896 0.12859,-0.29104 0.4109,-1.06495 0.62741,-1.71979 0.6214,-1.87979 1.76538,-5.10823 2.01567,-5.68854 0.12552,-0.29105 0.38003,-1.00542 0.56552,-1.5875 0.1855,-0.58209 0.41,-1.1774 0.49901,-1.32292 0.089,-0.14552 0.32369,-0.80037 0.52168,-1.45521 0.19791,-0.65484 0.44201,-1.30969 0.54231,-1.45521 0.10039,-0.14552 0.32531,-0.74083 0.49991,-1.32291 0.17468,-0.58209 0.41629,-1.29646 0.537,-1.5875 0.1207,-0.29105 0.36248,-0.94589 0.53739,-1.45521 0.17489,-0.50933 0.41349,-1.16417 0.53009,-1.45521 0.11661,-0.29104 0.4734,-1.24354 0.7928,-2.11667 0.31941,-0.87312 0.6762,-1.82562 0.79291,-2.11666 0.1166,-0.29105 0.3552,-0.94589 0.53009,-1.45521 0.17481,-0.50933 0.41341,-1.16417 0.53001,-1.45521 0.11671,-0.29104 0.4735,-1.24354 0.7929,-2.11667 0.31941,-0.87312 0.6766,-1.82562 0.7937,-2.11666 0.11719,-0.29105 0.4744,-1.24355 0.7938,-2.11667 0.31941,-0.87313 0.68819,-1.85539 0.8195,-2.18281 0.13139,-0.32742 0.34629,-0.86321 0.4776,-1.19063 0.13128,-0.32742 0.50009,-1.30969 0.81949,-2.18281 0.31941,-0.87313 0.70422,-1.88516 0.855,-2.24896 0.332497,-0.80206 0.395897,-0.96612 1.790907,-4.63021 0.60939,-1.60073 1.2159,-3.1783 1.34769,-3.50573 0.13192,-0.32742 0.3588,-0.89297 0.5044,-1.25677 0.14552,-0.3638 0.38362,-0.95911 0.52911,-1.32291 0.1455,-0.36381 0.3837,-0.95912 0.52919,-1.32292 0.1455,-0.3638 0.3677,-0.92935 0.4938,-1.25677 0.12602,-0.32742 0.3801,-0.9525 0.56451,-1.38906 0.36849,-0.87204 0.74128,-1.79634 1.09379,-2.71198 0.12599,-0.32742 0.34822,-0.89297 0.49371,-1.25677 0.1455,-0.36381 0.3837,-0.95912 0.52919,-1.32292 0.1455,-0.3638 0.3718,-0.92935 0.50282,-1.25677 0.13099,-0.32742 0.48818,-1.15956 0.7937,-1.8492 0.30559,-0.68964 0.55559,-1.31601 0.55559,-1.39195 0,-0.0759 0.2499,-0.70231 0.5555,-1.39194 0.30559,-0.68964 0.6509,-1.49202 0.76739,-1.78306 0.1165,-0.29104 0.46181,-1.09341 0.7674,-1.78305 0.30552,-0.68964 0.5555,-1.31601 0.5555,-1.39195 0,-0.13044 0.2191,-0.64209 1.55641,-3.63513 0.3081,-0.68964 0.5603,-1.31602 0.5603,-1.39195 0,-0.0759 0.25199,-0.70231 0.55989,-1.39195 0.308,-0.68963 0.7122,-1.61107 0.8981,-2.04763 0.186,-0.43657 0.6015,-1.38907 0.92321,-2.11667 0.32179,-0.7276 0.7511,-1.70987 0.95401,-2.18281 0.20288,-0.47295 0.53499,-1.24685 0.7379,-1.71979 0.20288,-0.47297 0.63219,-1.45521 0.95398,-2.18282 0.3217,-0.7276 0.7634,-1.73963 0.9815,-2.24896 0.21801,-0.50932 0.63891,-1.46182 0.9353,-2.11666 0.58661,-1.29614 1.17221,-2.61329 2.02901,-4.56406 0.8455,-1.92472 1.48939,-3.36453 2.21861,-4.96094 0.36557,-0.80037 0.92538,-2.05052 1.24388,-2.77813 0.31851,-0.7276 0.86551,-1.94799 1.21561,-2.71198 0.35009,-0.76398 0.92109,-2.01414 1.26889,-2.77812 0.61542,-1.35189 1.4479,-3.16235 3.0717,-6.68073 0.43662,-0.94589 1.15102,-2.4937 1.5875,-3.43958 0.43662,-0.94589 1.1634,-2.52349 1.6151,-3.50573 0.45169,-0.98227 1.2256,-2.64914 1.71982,-3.70417 0.49408,-1.05503 1.3018,-2.78143 1.79469,-3.83648 0.49289,-1.055 1.38589,-2.96 1.9844,-4.23331 0.59849,-1.27331 1.5774,-3.3569 2.1753,-4.63021 0.59799,-1.27331 1.5966,-3.38667 2.21909,-4.69635 0.62251,-1.30969 1.81091,-3.81 2.64091,-5.55625 0.83,-1.74625 1.9036,-4.00844 2.3858,-5.02709 0.4821,-1.01864 1.46979,-3.10224 2.19459,-4.63021 0.7249,-1.52796 1.8538,-3.90921 2.50862,-5.29166 0.65479,-1.38245 1.81319,-3.82323 2.57418,-5.42396 1.90352,-4.00389 3.57841,-7.5425 4.75912,-10.05419 1.77519,-3.77645 3.08998,-6.56858 4.17359,-8.86352 0.58409,-1.23693 1.49209,-3.17169 2.01779,-4.2995 2.24692,-4.8204 2.90872,-6.2429 3.6309,-7.80521 0.4205,-0.90948 1.13681,-2.45729 1.59181,-3.43956 1.2473,-2.69251 2.2165,-4.79975 2.95109,-6.41615 0.3638,-0.80036 1.0193,-2.22911 1.45671,-3.175 0.43739,-0.94588 1.0582,-2.3151 1.37949,-3.0427 0.3212,-0.72763 0.91501,-2.03732 1.3194,-2.91042 0.40441,-0.87315 0.9403,-2.06375 1.1907,-2.64583 0.2504,-0.58211 0.68101,-1.56435 0.957,-2.18284 0.27591,-0.61844 0.73972,-1.66026 1.03081,-2.31508 0.29099,-0.65484 0.7673,-1.72643 1.05829,-2.38125 0.29101,-0.65484 0.7549,-1.69664 1.03081,-2.3151 0.27591,-0.61849 0.6785,-1.5412 0.89469,-2.05055 0.70152,-1.65304 1.29482,-3.02086 1.77871,-4.10104 0.2607,-0.58206 0.66509,-1.50482 0.8985,-2.05052 1.04019,-2.43171 1.32329,-3.07544 2.04179,-4.64209 0.42011,-0.91604 0.7638,-1.78083 0.7638,-1.9218 0,-0.14097 0.1083,-0.46305 0.24061,-0.71575 0.5963,-1.13904 1.87609,-4.07993 1.87609,-4.31136 0,-0.14092 0.10911,-0.46302 0.2423,-0.7157 0.346,-0.65593 0.914,-1.99792 1.87441,-4.4282 0.46001,-1.16414 1.01749,-2.53339 1.23889,-3.04268 0.2214,-0.50935 0.5094,-1.19396 0.64011,-1.52138 0.1307,-0.32742 0.3448,-0.86321 0.4758,-1.1906 0.1311,-0.32742 0.48828,-1.15959 0.7938,-1.8492 0.30559,-0.68966 0.55549,-1.37586 0.55549,-1.52498 0,-0.14907 0.1052,-0.47778 0.23371,-0.73046 0.12859,-0.2527 0.35081,-0.75708 0.49379,-1.12088 0.14301,-0.36383 0.38391,-0.95914 0.5352,-1.32295 0.15131,-0.36377 0.7738,-1.97114 1.38321,-3.57187 0.60939,-1.60076 1.2318,-3.20807 1.38309,-3.57188 0.36621,-0.88018 0.57301,-1.4221 1.2627,-3.30726 0.3194,-0.87315 0.6778,-1.82565 0.79642,-2.11669 0.11858,-0.29105 0.48008,-1.24355 0.80338,-2.11667 0.32321,-0.87313 0.67881,-1.82563 0.7901,-2.11664 0.11141,-0.29104 0.3456,-0.94591 0.52051,-1.45524 0.17489,-0.50929 0.41299,-1.16416 0.52919,-1.4552 0.1161,-0.29105 0.35431,-0.94592 0.5292,-1.45521 0.17481,-0.50932 0.41651,-1.1642 0.537,-1.45521 0.29691,-0.71718 1.46592,-4.05829 2.268,-6.48229 0.36121,-1.09143 0.76621,-2.2225 0.90012,-2.51354 0.20619,-0.44823 1.18938,-3.40482 5.00409,-15.04691 0.2799,-0.85423 0.415,-1.44952 0.30019,-1.32294 -0.36718,0.40499 -3.9824,5.89539 -3.9824,6.04805 0,0.0808 -1.30969,2.10625 -2.91039,4.50099 -1.6007,2.39466 -2.91041,4.41672 -2.91041,4.49334 0,0.0766 -1.34938,2.19257 -2.99869,4.70215 -7.6295,11.60891 -8.64301,13.16744 -8.64301,13.29161 0,0.0729 -1.30969,2.09274 -2.91039,4.4886 -1.6007,2.39577 -2.91041,4.42296 -2.91041,4.50477 0,0.0818 -1.30969,2.10812 -2.9104,4.50284 -1.6007,2.39474 -2.91039,4.41878 -2.91039,4.49794 0,0.0791 -1.30971,2.1032 -2.91041,4.49789 -1.60078,2.39472 -2.9105,4.41878 -2.9105,4.49792 0,0.0791 -1.30969,2.1032 -2.91039,4.49794 -1.6007,2.39472 -2.91041,4.41878 -2.91041,4.49792 0,0.0791 -1.30969,2.10317 -2.9104,4.49789 -1.6007,2.39474 -2.91039,4.41878 -2.91039,4.49794 0,0.0791 -1.30971,2.1032 -2.91041,4.49792 -1.60078,2.39469 -2.9105,4.41674 -2.9105,4.49334 0,0.0766 -1.3494,2.1926 -2.99868,4.70217 -7.62952,11.60889 -8.64291,13.16744 -8.64291,13.29161 0,0.0729 -1.30971,2.09275 -2.91041,4.48858 -1.60078,2.3958 -2.9105,4.42296 -2.9105,4.50477 0,0.0818 -1.30969,2.10812 -2.91039,4.50286 -1.6007,2.39472 -2.91041,4.41878 -2.91041,4.49792 0,0.0791 -1.30969,2.1032 -2.9104,4.49789 -1.6007,2.39474 -2.91039,4.41878 -2.91039,4.49794 0,0.0791 -1.30971,2.1032 -2.91041,4.49792 -1.60078,2.39471 -2.9105,4.41878 -2.9105,4.49789 0,0.0791 -1.30969,2.1032 -2.91039,4.49794 -1.6007,2.39472 -2.91041,4.41878 -2.91041,4.49792 0,0.0791 -1.30969,2.1032 -2.9104,4.49789 -1.6007,2.39474 -2.91039,4.41677 -2.91039,4.49339 0,0.0766 -1.3495,2.1926 -2.99881,4.70215 -7.65199,11.64325 -8.6429,13.16797 -8.6429,13.29928 0,0.0771 -0.93848,1.53625 -2.08558,3.24252 -1.1471,1.70625 -2.337807,3.54875 -2.645917,4.09445 -0.3081,0.54571 -0.7983,1.40891 -1.08929,1.91823 -0.29109,0.50933 -0.76731,1.34276 -1.05841,1.85209 -0.29099,0.50932 -0.786,1.3725 -1.0999,1.91823 -0.7076,1.22991 -1.88611,3.33687 -2.55299,4.56406 -1.7781,3.27229 -2.14849,3.94462 -2.69711,4.89479 -0.6927,1.19991 -1.70828,3.06266 -3.2458,5.95312 -0.5805,1.09141 -1.53429,2.87735 -2.11939,3.96875 -6.4016,11.94073 -15.5919,30.32043 -21.43231,42.8625 -0.50819,1.09141 -1.40208,2.99641 -1.98639,4.23334 -0.5843,1.23692 -1.32342,2.84427 -1.6424,3.57187 -0.3189,0.72761 -0.85251,1.91823 -1.18581,2.64584 -0.33329,0.7276 -0.9857,2.15635 -1.44978,3.175 -0.46411,1.01864 -1.06291,2.32833 -1.33062,2.91041 -0.2677,0.58209 -0.7352,1.62388 -1.0388,2.31511 -0.30359,0.69122 -0.80518,1.82231 -1.11469,2.51354 -0.30951,0.69122 -0.66091,1.49489 -0.781,1.78594 -0.1201,0.29104 -0.70041,1.58279 -1.2894,2.87054 -0.58912,1.28775 -1.07111,2.43033 -1.07111,2.53905 0,0.10869 -0.16708,0.54337 -0.3715,0.96591 -0.5579,1.1538 -2.0528,4.56854 -2.53719,5.79533 -0.11481,0.29104 -0.57891,1.33818 -1.0314,2.32698 -0.4522,0.9888 -0.8223,1.94726 -0.8223,2.1299 0,0.18264 -0.10121,0.44519 -0.2249,0.58343 -0.12351,0.13825 -0.431,0.78714 -0.68321,1.44198 -0.25209,0.65484 -0.6392,1.60734 -0.86039,2.11667 -0.2213,0.50932 -0.497,1.16416 -0.61281,1.45521 -0.1158,0.29104 -0.39219,0.94588 -0.6138,1.4552 -0.2218,0.50933 -0.6599,1.58089 -0.9737,2.38125 -0.31379,0.80037 -0.75199,1.87193 -0.97369,2.38125 -0.2218,0.50933 -0.49821,1.16417 -0.61441,1.45521 -0.11629,0.29104 -0.4612,1.09342 -0.76679,1.78306 -0.3056,0.68963 -0.5556,1.37586 -0.5556,1.52495 0,0.14907 -0.1052,0.47778 -0.2336,0.73049 -0.2599,0.51059 -0.9116,2.08875 -1.583,3.83286 -0.1261,0.32742 -0.3642,0.92273 -0.5292,1.32291 -0.16491,0.40019 -0.4191,1.02526 -0.56451,1.38907 -0.1455,0.3638 -0.38359,0.95911 -0.5292,1.32291 -0.1456,0.3638 -0.38369,0.95912 -0.52919,1.32292 -0.1456,0.3638 -0.37251,0.92935 -0.5044,1.25677 -0.13171,0.32742 -0.73821,1.905 -1.3476,3.50573 -0.6095,1.60073 -1.216,3.17831 -1.3479,3.50573 -0.13171,0.32742 -0.34731,0.8632 -0.4791,1.19062 -0.13161,0.32743 -0.6191,1.60735 -1.0835,2.84427 -0.46421,1.23693 -0.94051,2.48709 -1.05841,2.7781 -0.2948,0.72859 -1.79081,4.71379 -2.43329,6.48229 -0.29081,0.8004 -0.6245,1.69339 -0.74171,1.98441 -0.11711,0.29098 -0.47429,1.24348 -0.7937,2.11669 -0.3194,0.8731 -0.67619,1.8256 -0.7929,2.11661 -0.1166,0.2911 -0.3551,0.94589 -0.52999,1.45518 -0.17491,0.50941 -0.41301,1.1642 -0.52911,1.45532 -0.11621,0.29099 -0.35431,0.94578 -0.5293,1.45518 -0.17489,0.50932 -0.419,1.16411 -0.5425,1.45521 -0.1234,0.29099 -0.40169,1.06489 -0.6181,1.71979 -0.64439,1.94921 -1.7704,5.1208 -2.0199,5.68852 -0.1278,0.29109 -0.4118,1.065 -0.6309,1.71979 -0.21929,0.65479 -1.00389,2.917 -1.7435,5.02711 -0.7398,2.11 -1.8804,5.4438 -2.53479,7.40828 -0.65431,1.9645 -1.30151,3.81 -1.43801,4.10112 -0.26249,0.5593 -3.2975,9.7487 -6.0734001,18.38849 -0.91171,2.83771 -1.87101,5.81419 -2.13181,6.61461 -0.26079,0.80028 -0.97028,3.0625 -1.57659,5.02708 -0.60639,1.96451 -1.20509,3.86951 -1.33049,4.23331 -0.1253,0.3638 -0.6004,1.91161 -1.0558,3.43961 -0.4553,1.52799 -0.92690002,3.07578 -1.04791002,3.43958 -0.12099,0.3638 -0.47859,1.5544 -0.7947,2.64581 -0.31609,1.0914 -0.67189,2.282 -0.79059,2.6458 -0.1187,0.36381 -0.36249998,1.1973 -0.54179998,1.85211 -0.1793,0.6549 -0.4272,1.48829 -0.551,1.85209 -0.23701,0.6967 -3.6144,12.49741 -4.3541,15.21351 -0.2378,0.87318 -0.5329,1.94469 -0.6558,2.38128 -0.3128,1.11141 -1.225,4.53501 -1.8154,6.81302 -0.7895,3.0467 -1.0018,3.37349 -2.1911999,3.37349 h -1.0158 v -1.78599 c 0,-0.98221 0.11789,-4.70299 0.2588,-8.2682 5.8035999,-146.8527 6.2939999,-317.89944 1.3238,-461.69797 -0.74181,-21.46231 -1.8338,-49.41837 -2.2815,-58.40677 l -0.1745,-3.50573 -1.74751,-0.005 c -2.18679,-0.006 -7.48359,-0.84042 -10.54029,-1.66055 l -1.38461,-0.37153 -0.12289,0.82 c -0.068,0.45098 -0.25271,5.58247 -0.4111,11.4033 -0.1585,5.82081 -0.4011,14.27427 -0.53911,18.78542 -3.10069,101.31192 -4.64599,226.52887 -3.99579,323.77705 0.4234,63.32567 1.20279,113.85577 2.41509,156.57407 0.14251,5.02042 0.33881,12.90831 0.43631,17.52859 l 0.17719,8.40052 h -0.96869 c -0.7923,0 -0.9687,-0.096 -0.9687,-0.52911 0,-0.2911 -0.10141,-0.52919 -0.2254,-0.52919 -0.1239,0 -0.4341,-0.8037 -0.6894,-1.78591 -0.4094,-1.57488 -0.7144,-2.7054 -1.7311,-6.4162 -0.1395,-0.5093 -0.49671,-1.81899 -0.79371,-2.91039 -0.95649,-3.5147 -1.1161,-4.08919 -1.32289,-4.7625 -0.1118,-0.36381 -0.3499,-1.19722 -0.5292,-1.85211 -0.17931,-0.65479 -0.4174,-1.48828 -0.5292,-1.85209 -0.11171,-0.3638 -0.3351,-1.13771 -0.49621,-1.71981 -0.1612,-0.58198 -0.52369,-1.83219 -0.8055,-2.7781 -0.28189,-0.94589 -0.77149,-2.61279 -1.08809,-3.7042 -0.3165,-1.0914 -0.6701,-2.282 -0.7855,-2.6458 -0.1155,-0.36381 -0.40891,-1.37578 -0.652,-2.24888 -0.24301,-0.87321 -0.6026,-2.06381 -0.7991,-2.64592 -0.1964,-0.5821 -0.61961,-1.9513 -0.9404,-3.0427 -0.3207,-1.09138 -0.7921,-2.6392 -1.04741,-3.43959 -0.25529,-0.80031 -0.84779,-2.70531 -1.31669,-4.2333 -0.4689,-1.528 -1.0657,-3.433 -1.3261,-4.23331 -0.2605,-0.80039 -1.0991,-3.41979 -1.86371,-5.82089 -2.04549,-6.42382 -7.64079,-23.33119 -7.92419,-23.94481 -0.13451,-0.29099 -0.732,-2.0174 -1.328,-3.83638 -0.5959,-1.81901 -1.19211,-3.54542 -1.3247,-3.83652 -0.13271,-0.29098 -0.4841,-1.30309 -0.78081,-2.2489 -0.29679,-0.94589 -0.65099,-1.958 -0.78719,-2.24899 -0.1362,-0.29101 -0.5013,-1.30309 -0.81151,-2.24901 -0.31009,-0.9458 -0.66909,-1.95789 -0.7978,-2.2489 -0.12859,-0.2911 -0.41059,-1.065 -0.6266,-1.71979 -0.216,-0.6549 -0.7684,-2.20271 -1.2276,-3.43961 -0.4591,-1.2369 -0.92919,-2.54659 -1.04459,-2.91039 -0.11541,-0.36381 -0.4141,-1.19722 -0.6636,-1.85211 -0.24951,-0.65479 -0.6918,-1.8455 -0.9829,-2.64578 -0.2911,-0.80042 -0.62511,-1.69342 -0.74231,-1.98441 -0.1171,-0.29101 -0.4743,-1.24351 -0.7937,-2.11671 -0.3194,-0.8731 -0.6766,-1.8256 -0.7938,-2.11659 -0.1171,-0.2911 -0.4743,-1.2436 -0.7937,-2.1167 -0.3194,-0.87309 -0.6766,-1.82559 -0.7938,-2.11671 -0.1171,-0.29099 -0.4743,-1.24349 -0.7937,-2.11659 -0.68789,-1.88032 -0.89549,-2.42419 -1.26229,-3.30737 -0.15121,-0.36381 -0.6547,-1.67349 -1.11901,-2.91039 -0.46429,-1.23696 -0.96779,-2.54664 -1.11889,-2.91045 -0.1512,-0.3638 -0.3779,-0.92935 -0.504,-1.25677 -0.23271,-0.60446 -0.56381,-1.43737 -0.99921,-2.51354 -0.13239,-0.32742 -1.27369,-3.21469 -2.53619,-6.41614 -1.26251,-3.20146 -2.47591,-6.23756 -2.69651,-6.74688 -0.22069,-0.50932 -0.5081,-1.19393 -0.63879,-1.52135 -0.13071,-0.32743 -0.35671,-0.89297 -0.5022,-1.25677 -0.1455,-0.36381 -0.3715,-0.92935 -0.50221,-1.25678 -0.13069,-0.32742 -0.4191,-1.01203 -0.64079,-1.52135 -0.22181,-0.50932 -0.6599,-1.58089 -0.97371,-2.38125 -0.6886,-1.7567 -1.28249,-3.1464 -1.60969,-3.76671 -0.1333,-0.25271 -0.24241,-0.57478 -0.24241,-0.71573 0,-0.14097 -0.34369,-1.00579 -0.76379,-1.92183 -0.4201,-0.91604 -0.9559,-2.11201 -1.19061,-2.65771 -0.93769,-2.17987 -1.28349,-2.99979 -1.4786,-3.50573 -0.11219,-0.29104 -0.4449,-1.06495 -0.73919,-1.71979 -0.29441,-0.65484 -0.72621,-1.63711 -0.95961,-2.18281 -0.23339,-0.54571 -0.61539,-1.43867 -0.84879,-1.98438 -0.2334,-0.5457 -0.63771,-1.46843 -0.89851,-2.05052 -0.2608,-0.58208 -0.6526,-1.47505 -0.87059,-1.98437 -0.3675,-0.85831 -0.6946,-1.60004 -2.1001,-4.7625 -0.2911,-0.65485 -0.76501,-1.72641 -1.05321,-2.38125 -0.2882,-0.65485 -0.8104,-1.81571 -1.16049,-2.57969 -1.24861,-2.72502 -2.03351,-4.45273 -2.674303,-5.88698 -0.9159,-2.04983 -2.61501,-5.69288 -5.36791,-11.50937 -6.55639,-13.85266 -16.86189,-34.22743 -22.9845,-45.44219 -0.4568,-0.83675 -1.1694,-2.14643 -1.58339,-2.91042 -0.41411,-0.76398 -1.0278,-1.86531 -1.36391,-2.44739 -0.33599,-0.58209 -0.9313,-1.65365 -1.3229,-2.38125 -0.3916,-0.72761 -0.96839,-1.76941 -1.28199,-2.31511 -0.3135,-0.5457 -0.80821,-1.40891 -1.09921,-1.91823 -0.2911,-0.50932 -0.7673,-1.34276 -1.0584,-1.85208 -0.29099,-0.50932 -0.7672,-1.34276 -1.0583,-1.85208 -1.3985,-2.44735 -1.70869,-2.99295 -2.3229,-4.08525 -0.3634,-0.64614 -1.061,-1.73194 -1.55019,-2.41284 -0.48911,-0.68091 -0.88941,-1.31792 -0.88941,-1.41558 0,-0.0977 -1.30969,-2.13775 -2.91039,-4.53355 -1.6007,-2.3958 -2.91041,-4.41987 -2.91041,-4.49792 0,-0.078 -1.3097,-2.10211 -2.9104,-4.49792 -1.6008,-2.3958 -2.9105,-4.41764 -2.9105,-4.49299 0,-0.0753 -1.3096,-2.09632 -2.9104,-4.49104 -1.6007,-2.39472 -2.9104,-4.41878 -2.9104,-4.49791 0,-0.0791 -1.30969,-2.1032 -2.91039,-4.49792 -1.6007,-2.39472 -2.9104,-4.41878 -2.9104,-4.49792 0,-0.0791 -1.3097,-2.1032 -2.9104,-4.49791 -1.6008,-2.39472 -2.9105,-4.41878 -2.9105,-4.49792 0,-0.0791 -1.3096,-2.1032 -2.9104,-4.49792 -1.6007,-2.39472 -2.9104,-4.41878 -2.9104,-4.49791 0,-0.0791 -1.3097,-2.1032 -2.9104,-4.49792 -1.6007,-2.39472 -2.9104,-4.41878 -2.9104,-4.49792 0,-0.0791 -1.3097,-2.1032 -2.9104,-4.49791 -1.6008,-2.39472 -2.9105,-4.42101 -2.9105,-4.50284 0,-0.0818 -1.3096,-2.109 -2.9104,-4.5048 -1.6007,-2.3958 -2.9104,-4.41986 -2.9104,-4.49792 0,-0.078 -1.3097,-2.10211 -2.9104,-4.49791 -1.6007,-2.3958 -2.9104,-4.41764 -2.9104,-4.493 0,-0.0753 -1.3097,-2.09632 -2.9104,-4.49103 -1.6008,-2.39472 -2.9104,-4.41878 -2.9104,-4.49792 0,-0.0791 -1.3097,-2.1032 -2.9105,-4.49792 -1.6007,-2.39472 -2.9104,-4.41878 -2.9104,-4.49791 0,-0.0791 -1.3097,-2.1032 -2.9104,-4.49792 -1.60071,-2.39472 -2.9104,-4.41878 -2.9104,-4.49792 0,-0.0791 -1.3097,-2.1032 -2.9104,-4.49791 -1.6008,-2.39472 -2.9104,-4.41878 -2.9104,-4.49792 0,-0.0791 -1.3097,-2.1032 -2.9105,-4.49792 -1.6007,-2.39472 -2.9104,-4.41878 -2.9104,-4.49791 0,-0.0791 -1.3097,-2.1032 -2.9104,-4.49792 -1.60071,-2.39472 -2.9104,-4.421 -2.9104,-4.50284 0,-0.0818 -1.3097,-2.10899 -2.9104,-4.5048 -1.6008,-2.3958 -2.9104,-4.41986 -2.9104,-4.49791 0,-0.0781 -1.3097,-2.10212 -2.9105,-4.49792 -1.6007,-2.3958 -2.9104,-4.41764 -2.9104,-4.49299 0,-0.0753 -1.3097,-2.09632 -2.9104,-4.49104 -1.6007,-2.39472 -2.9104,-4.41878 -2.9104,-4.49792 0,-0.0791 -1.2882,-2.07602 -2.8626,-4.43756 -1.5745,-2.36152 -2.9465,-4.51909 -3.049,-4.79457 -0.1024,-0.27549 -0.2375,-0.44963 -0.3002,-0.38698 -0.063,0.0627 0.2239,1.12152 0.6369,2.35299 0.413,1.23148 1.4133,4.2631 2.2229,6.73696 0.8096,2.47385 2.0803,6.22432 2.8238,8.33437 0.7436,2.11005 1.5739,4.4913 1.8453,5.29167 0.2713,0.80036 0.8705,2.46724 1.3315,3.70416 0.461,1.23693 0.9326,2.54662 1.0481,2.91042 0.2034,0.64124 0.8925,2.49306 1.3292,3.57188 0.1178,0.29104 0.4755,1.24354 0.7949,2.11666 0.3194,0.87313 0.6766,1.82563 0.7938,2.11667 0.1171,0.29104 0.4743,1.24354 0.7937,2.11667 0.7289,1.99244 0.9058,2.45239 1.3229,3.43958 0.1845,0.43656 0.4279,1.03187 0.5409,1.32292 1.1018,2.83699 5.9462,15.02828 6.2557,15.7427 0.4875,1.12546 0.8794,2.07206 1.15,2.77813 0.1115,0.29104 0.4528,1.09342 0.7583,1.78305 0.3056,0.68964 0.5556,1.31601 0.5556,1.39195 0,0.0759 0.2381,0.67254 0.5291,1.3258 0.2911,0.65326 0.7673,1.72222 1.0584,2.37548 0.29099,0.65326 0.5291,1.24987 0.5291,1.3258 0,0.0759 0.252,0.70231 0.56,1.39195 0.308,0.68963 0.7105,1.61107 0.8946,2.04764 0.7598,1.80191 1.72069,4.02648 2.5142,5.82083 0.3217,0.7276 0.7634,1.73963 0.9815,2.24896 0.218,0.50932 0.6098,1.40229 0.8706,1.98437 0.2607,0.58209 0.6651,1.50482 0.8985,2.05052 0.8639,2.01978 1.1816,2.74566 1.8235,4.16719 0.3614,0.80036 0.9201,2.05052 1.2415,2.77813 0.3214,0.7276 0.8835,1.97776 1.2491,2.77812 0.3656,0.80036 0.8774,1.93146 1.1374,2.51354 0.4475,1.00224 0.94509,2.10257 2.5424,5.6224 0.3798,0.83674 1.0497,2.29526 1.48879,3.24114 0.43911,0.94589 1.15561,2.4937 1.59221,3.43959 0.4365,0.94588 1.1509,2.49369 1.5875,3.43958 0.4365,0.94589 1.1226,2.43417 1.5246,3.30729 1.85,4.01828 5.6678,12.17536 7.7397,16.53646 0.6567,1.38245 1.6973,3.5851 2.3123,4.89479 0.615,1.30969 1.7132,3.63141 2.4405,5.15938 1.5968,3.35507 3.3171,6.97867 4.8359,10.18646 0.6201,1.30968 1.7225,3.6314 2.4497,5.15937 0.7273,1.52797 1.8264,3.84969 2.4426,5.15938 0.6162,1.30968 1.7153,3.6314 2.4426,5.15937 2.6197,5.50407 5.2027,10.97182 6.6557,14.08906 1.6537,3.54746 2.778,5.9553 3.7064,7.9375 0.4942,1.05503 1.2681,2.7219 1.7198,3.70417 0.4518,0.98226 1.1785,2.55984 1.6151,3.50573 2.3504,5.09259 3.3513,7.27636 4.3656,9.525 0.6413,1.42176 1.5997,3.52607 2.6209,5.75469 0.35,0.76398 0.8994,1.98437 1.2207,2.71198 0.5958,1.34897 1.1681,2.63988 2.1115,4.7625 0.2911,0.65484 0.7538,1.69664 1.0282,2.3151 0.2745,0.61846 0.7508,1.69003 1.0584,2.38125 0.3076,0.69122 0.80879,1.82232 1.11379,2.51354 0.30501,0.69122 0.72171,1.60248 0.926,2.02502 0.2044,0.42254 0.3715,0.85722 0.3715,0.96591 0,0.10872 0.482,1.25129 1.0711,2.53905 0.5891,1.28775 1.17251,2.5795 1.29651,2.87054 0.1241,0.29104 0.47549,1.09342 0.7811,1.78306 0.30549,0.68963 0.55549,1.31601 0.55549,1.39194 0,0.0759 0.252,0.70231 0.56,1.39195 0.7838,1.75527 1.9304,4.43206 2.3504,5.48722 0.1159,0.29104 0.3916,0.94588 0.61281,1.45521 0.2212,0.50932 0.60839,1.46182 0.86049,2.11666 0.2521,0.65485 0.5596,1.30374 0.6832,1.44198 0.1236,0.13825 0.2248,0.40743 0.2248,0.5982 0,0.19076 0.25,0.91109 0.55551,1.60073 0.30559,0.68963 0.65059,1.49201 0.76679,1.78305 0.1162,0.29104 0.3925,0.94589 0.61411,1.45521 0.22159,0.50932 1.31359,3.24776 2.4267,6.08542 2.38599,6.08293 2.35079,5.99411 2.78059,7.01146 0.4033,0.95429 0.5061,1.21988 1.5875,4.10104 1.0273,2.73685 1.17701,3.12592 1.5263,3.96875 0.15081,0.3638 0.5356,1.37583 0.855,2.24896 0.6849,1.87221 0.8935,2.41908 1.2617,3.30729 0.1508,0.3638 0.53551,1.37583 0.8549,2.24896 0.31951,0.87312 0.67661,1.82562 0.79381,2.11666 0.1172,0.29104 0.46269,1.21378 0.76799,2.05052 0.30521,0.83675 0.8047,2.20597 1.1099,3.04271 0.3052,0.83675 0.6508,1.75948 0.7679,2.05052 0.31381,0.77952 1.19841,3.18188 1.9486,5.29167 0.3622,1.01864 1.03511,2.86411 1.49531,4.10104 0.4602,1.23693 0.9345,2.54661 1.05399,2.91042 0.1196,0.3638 0.59311,1.67349 1.05221,2.91041 0.45909,1.23696 1.0116,2.78474 1.2276,3.43959 0.21599,0.65487 0.49799,1.42875 0.6266,1.71979 0.12869,0.29107 0.48769,1.30307 0.79779,2.24896 0.3102,0.94588 0.668,1.95791 0.79521,2.24896 0.21719,0.49709 1.13179,3.11515 2.91139,8.3344 0.42181,1.2369 1.7276,5.0469 2.90181,8.46672 2.64259,7.69609 5.41879,16.0215 7.94049,23.8125 1.05981,3.27419 2.3744,7.32229 2.92141,8.99578 0.5471,1.67351 1.49449,4.6501 2.10549,6.61461 0.6109,1.9645 1.3232,4.22669 1.5827,5.02711 0.2596,0.80028 0.85341,2.70528 1.3196,4.23328 0.4662,1.52799 0.94951,3.0758 1.07401,3.43961 0.12439,0.3638 0.5988,1.91158 1.05419,3.43961 0.455303,1.52789 0.931603,3.07578 1.058313,3.43958 0.1267,0.3638 0.60539,1.91161 1.06359,3.4395 1.2231,4.07811 1.2745,4.24569 1.7438,5.6886 0.23671,0.7276 0.52551,1.6801 0.64181,2.11672 0.1162,0.43648 0.46909,1.62708 0.78409,2.64578 0.3151,1.01862 0.67231,2.2093 0.7938,2.64581 0.1215,0.43658 0.4787,1.62718 0.7937,2.64591 0.3151,1.01859 0.67231,2.20919 0.7938,2.64578 0.1216,0.43651 0.5978,2.0439 1.05831,3.5719 0.4605,1.52792 0.9368,3.13531 1.05829,3.5718 0.1216,0.43661 0.59791,2.0439 1.0584,3.5719 0.4605,1.52802 0.93671,3.13531 1.05831,3.5719 0.1216,0.43651 0.5978,2.0439 1.05829,3.5719 0.4606,1.52792 0.9533,3.19482 1.0951,3.70411 0.43091,1.54829 0.6695,2.3657 1.81541,6.21769 0.606,2.03731 1.21109,4.09119 1.3446,4.56411 0.13359,0.47289 0.3521,1.2468 0.48569,1.71979 0.1335,0.47292 0.7386,2.5268 1.34471,4.56412 0.606,2.03718 1.2044,4.0613 1.32969,4.49789 0.49,1.70651 0.7675,2.68308 1.01481,3.57179 0.1418,0.50941 0.7536,2.593 1.35959,4.63032 0.60611,2.03718 1.21791,4.12078 1.35961,4.63018 0.1418,0.5093 0.3634,1.2832 0.4925,1.71982 0.12909,0.43648 0.3507,1.21039 0.49249,1.71968 0.1418,0.50941 0.75361,2.593 1.35961,4.6303 1.14579,3.852 1.3845,4.6694 1.81539,6.2177 0.1417,0.5093 0.6345,2.1762 1.09501,3.7041 0.4605,1.528 0.9533,3.1949 1.095,3.7042 0.44769,1.6086 0.69159,2.4408 1.55079,5.2917 0.7864,2.6089 0.9574,3.1949 1.56421,5.3578 0.13269,0.4729 0.5506,1.9314 0.92879,3.2411 0.37821,1.3097 0.80611,2.798 0.95081,3.3073 1.0713,3.7693 2.3911,10.0948 8.3083,39.8198 0.6663,3.347 1.56959,7.8117 2.00729,9.9219 0.43781,2.11 0.90651,4.3722 1.04171,5.0272 0.1352,0.6547 0.8627,3.9288 1.6168,7.2759 0.754,3.347 1.47189,6.5616 1.5954,7.1438 0.2406,1.1343 3.0977,12.4476 3.80859,15.0812 0.92591,3.4299 2.18661,7.7359 3.02111,10.3188 0.2821,0.8731 0.8942,2.8376 1.3603,4.3656 0.46609,1.5279 0.9274,2.8972 1.0252,3.0428 0.098,0.1454 0.3303,0.7407 0.51649,1.3228 0.34031,1.0634 1.2046,3.4547 1.6496,4.5641 0.13131,0.3275 0.3419,0.8632 0.468,1.1906 0.3785,0.9832 0.90351,2.2363 2.05111,4.8948 0.6643,1.5389 4.2741,8.7899 5.0383,10.1203 2.02479,3.5251 5.29299,7.8771 7.49799,9.9844 0.65491,0.626 1.42881,1.3662 1.7198,1.6451 0.6932,0.6641 0.97331,0.6573 2.21871,-0.054 z"
           id="path847-7-3"
           inkscape:connector-curvature="0"
           sodipodi:nodetypes="ccccccccccccccccccccccccccccccccccccccccccccccccccccccccccccccccccsscccsssccccccccccccccsscccssscssccscscccsccccccccccccccscssccscccccccccccccccccccscscccsccscccsccsccccccccscscssscscscscscscscscscscscscscscsccccccccccsccccssscscccscccsccccssccccccccccccccccccccccccccccccccsccccccscsssccccccccscccsssccccccccccccccccccccccccccscccccscccccccscssccccsscccsccccscccccccccccccssscscssscscssscscssscscssscscssscscsssccccccccccccccccccsccsscccccccccccccccccscccccccccccccccssccsccsccscccccccccccccccccccccccccccccccsccccccccccccccccccccccccccccccccccccccsccccsccccc" />
        <path
           style="fill:#ff43aa;fill-opacity:1;stroke:#000000;stroke-width:3;stroke-miterlimit:4;stroke-dasharray:none;stroke-opacity:1"
           d="m -12.774267,439.39654 c 2.2653,-0.385 5.0766999,-1.07151 9.6572999,-2.35839 2.70538998,-0.76004 9.3353,-3.46753 13.5477001,-5.53249 21.30999,-10.44633 40.7062,-27.35445 58.23739,-50.76651 20.43501,-27.28999 34.318197,-58.47461 41.042797,-92.19067 2.8312,-14.19534 5.73651,-36.7014 7.0113,-54.31295 0.80841,-11.16824 1.0152,-19.21611 0.86291,-33.58524 -0.19751,-18.63729 -1.11839,-33.20096 -3.50599,-55.44706 -1.17052,-10.90676 -3.19691,-27.67149 -3.35791,-27.78116 -0.037,-0.0251 -1.01941,0.98007 -2.18361,2.23367 -15.324977,16.50238 -55.350987,58.55016 -67.576187,70.98968 -4.85601,4.94107 -5.1893,5.22553 -6.12341,5.22553 h -0.98798 L 2.9803329,135.74437 C -12.319487,105.94369 -14.430907,101.75349 -28.565947,72.352175 c -18.14439,38.392365 -21.451,47.052725 -29.75913,63.932975 l -30.06949,61.04101 -1.0629,0.0803 -1.0629,0.0803 -30.117103,-33.27743 c -14.32157,-15.77295 -28.55627,-31.62482 -42.8969,-47.38044 -0.81955,8.20819 -1.4759,16.43956 -2.029,24.67008 -1.9757,29.88974 -1.8558,54.21704 0.4009,81.35939 5.9594,71.67569 24.34179,127.58516 54.1961,164.83545 14.426603,18.00061 32.323403,32.19391 51.930803,41.18438 7.38729,3.3873 19.7832,7.85833 22.7795,8.21623 0.6912,0.0826 1.2568,0.25266 1.2568,0.37788 0,0.12528 0.4692,0.22776 1.0427,0.22776 0.5735,0 1.1163,0.11906 1.2062,0.26455 0.09,0.14552 0.5662,0.26459 1.0584,0.26459 0.49209,0 0.96839,0.11909 1.05829,0.26461 0.09,0.14552 0.56621,0.26455 1.05831,0.26455 0.4922,0 0.9684,0.11907 1.0584,0.26459 0.09,0.14554 0.6922,0.26461 1.3385,0.26461 0.6463,0 1.175,0.11535 1.175,0.2564 0,0.28388 5.2422,0.50822 8.599,0.36801 1.1641,-0.0486 3.2477,-0.28056 4.6302,-0.51551 z"
           id="path837-4-7"
           inkscape:connector-curvature="0"
           sodipodi:nodetypes="cccccscccccsccccccccccssccsscscscssccc" />
      </g>
      <g
         transform="translate(-76.550636,44.891167)"
         id="g1053">
        <path
           style="fill:#1be16a;fill-opacity:1;stroke:#000000;stroke-width:3;stroke-miterlimit:4;stroke-dasharray:none;stroke-opacity:1"
           d="m 604.62352,643.96074 c 0.57319,-0.3275 1.4396,-0.8903 1.9254,-1.2508 0.8505,-0.6312 3.7642,-3.4966 4.33549,-4.2637 0.71441,-0.9591 2.51471,-3.6879 3.0089,-4.5604 0.30261,-0.5343 0.80701,-1.418 1.12091,-1.9637 2.2005,-3.8249 4.20139,-7.8283 5.8517,-11.7078 0.2167,-0.5093 0.5767,-1.3428 0.7999,-1.8521 0.2233,-0.5093 0.7247,-1.7595 1.11409,-2.7781 0.38941,-1.0187 0.80411,-2.0902 0.92161,-2.3813 0.1174,-0.291 0.3566,-0.9458 0.5315,-1.4552 0.1749,-0.5093 0.4189,-1.1641 0.5422,-1.4552 0.3551,-0.8384 2.51219,-7.4376 3.2863,-10.0541 0.38749,-1.3097 0.91819,-3.0957 1.17928,-3.9688 0.26102,-0.8731 0.74142,-2.5995 1.06741,-3.8365 0.326,-1.2369 0.6967,-2.5466 0.8237,-2.9104 0.19341,-0.554 3.4117,-13.6355 4.19841,-17.0656 0.47649,-2.0775 0.84968,-3.7201 1.08159,-4.7625 1.0989,-4.9372 2.92629,-13.7674 4.65439,-22.4896 0.80722,-4.0746 2.36601,-11.8732 3.46401,-17.3302 1.09791,-5.457 2.0847,-10.3981 2.19271,-10.9802 0.68879,-3.7116 2.8267,-11.9672 4.7621,-18.3886 0.46059,-1.528 0.9466,-3.1651 1.08019,-3.6381 0.13351,-0.4729 0.352,-1.2468 0.48561,-1.7198 0.13349,-0.4729 0.73859,-2.5267 1.34459,-4.564 0.60611,-2.0373 1.21121,-4.0911 1.3448,-4.56405 0.13351,-0.47292 0.3521,-1.2468 0.48551,-1.71982 0.13369,-0.47289 0.6196,-2.11 1.08029,-3.63799 0.46051,-1.528 0.94649,-3.16511 1.08,-3.638 0.13351,-0.47299 0.3687,-1.3064 0.5224,-1.85211 0.15361,-0.5457 0.3802,-1.3494 0.5036,-1.78588 0.1233,-0.43662 0.72541,-2.46071 1.33811,-4.498 0.61269,-2.03721 1.2196,-4.09112 1.34839,-4.56401 0.21641,-0.79398 0.42741,-1.54821 1.0177,-3.63799 0.12321,-0.43662 0.72541,-2.46071 1.33821,-4.498 0.61269,-2.03721 1.21949,-4.09112 1.34839,-4.56401 0.12891,-0.47299 0.35341,-1.27661 0.49901,-1.78599 0.14549,-0.50932 0.37459,-1.31291 0.509,-1.78591 0.1346,-0.47289 0.62259,-2.11 1.08469,-3.63799 0.46191,-1.528 0.94721,-3.16511 1.07831,-3.638 0.51109,-1.8442 0.76179,-2.7065 1.82589,-6.2839 0.606,-2.0373 1.20121,-4.06131 1.32281,-4.49792 0.1216,-0.43659 0.5978,-2.04388 1.05849,-3.57188 0.46051,-1.52791 0.9403,-3.13531 1.06622,-3.5719 0.12599,-0.43651 0.6014,-2.0439 1.05659,-3.57182 0.45511,-1.52799 0.9277,-3.13529 1.05029,-3.5719 0.1225,-0.43659 0.48051,-1.62719 0.7956,-2.64578 0.31501,-1.0187 0.6722,-2.2093 0.7937,-2.64591 0.12152,-0.43649 0.47871,-1.62719 0.7938,-2.64581 0.31501,-1.0187 0.67101,-2.2093 0.7911,-2.64578 0.3623,-1.31702 1.07252,-3.63882 1.4568,-4.7625 0.1991,-0.58211 0.563,-1.77271 0.8088,-2.64591 0.24569,-0.8731 0.654,-2.24229 0.90721,-3.04269 0.25331,-0.80031 0.7317,-2.3482 1.06309,-3.43961 0.3315,-1.0914 0.8077,-2.63919 1.05841,-3.4395 0.25059,-0.80039 0.72769,-2.3482 1.06019,-3.43961 0.3325,-1.09138 0.81812,-2.6393 1.0791,-3.43958 0.26109,-0.80042 0.9701,-3.06261 1.5756,-5.02711 0.6056,-1.96451 1.42861,-4.58391 1.82901,-5.82081 0.4005,-1.23698 1.2415,-3.8563 1.86909,-5.82089 1.87579,-5.87189 11.1102,-33.69209 11.3732,-34.26351 0.13401,-0.2911 0.6596,-1.7793 1.16811,-3.30729 1.4048,-4.22156 2.8049,-8.27294 3.063,-8.86354 0.12718,-0.29105 0.48501,-1.30308 0.7952,-2.24896 0.3101,-0.94589 0.66911,-1.95792 0.7978,-2.24896 0.12859,-0.29104 0.4109,-1.06495 0.62741,-1.71979 0.6214,-1.87979 1.76538,-5.10823 2.01567,-5.68854 0.12552,-0.29105 0.38003,-1.00542 0.56552,-1.5875 0.1855,-0.58209 0.41,-1.1774 0.49901,-1.32292 0.089,-0.14552 0.32369,-0.80037 0.52168,-1.45521 0.19791,-0.65484 0.44201,-1.30969 0.54231,-1.45521 0.10039,-0.14552 0.32531,-0.74083 0.49991,-1.32291 0.17468,-0.58209 0.41629,-1.29646 0.537,-1.5875 0.1207,-0.29105 0.36248,-0.94589 0.53739,-1.45521 0.17489,-0.50933 0.41349,-1.16417 0.53009,-1.45521 0.11661,-0.29104 0.4734,-1.24354 0.7928,-2.11667 0.31941,-0.87312 0.6762,-1.82562 0.79291,-2.11666 0.1166,-0.29105 0.3552,-0.94589 0.53009,-1.45521 0.17481,-0.50933 0.41341,-1.16417 0.53001,-1.45521 0.11671,-0.29104 0.4735,-1.24354 0.7929,-2.11667 0.31941,-0.87312 0.6766,-1.82562 0.7937,-2.11666 0.11719,-0.29105 0.4744,-1.24355 0.7938,-2.11667 0.31941,-0.87313 0.68819,-1.85539 0.8195,-2.18281 0.13139,-0.32742 0.34629,-0.86321 0.4776,-1.19063 0.13128,-0.32742 0.50009,-1.30969 0.81949,-2.18281 0.31941,-0.87313 0.70422,-1.88516 0.855,-2.24896 0.3325,-0.80206 0.3959,-0.96612 1.79091,-4.63021 0.60939,-1.60073 1.2159,-3.1783 1.34769,-3.50573 0.13192,-0.32742 0.3588,-0.89297 0.5044,-1.25677 0.14552,-0.3638 0.38362,-0.95911 0.52911,-1.32291 0.1455,-0.36381 0.3837,-0.95912 0.52919,-1.32292 0.1455,-0.3638 0.3677,-0.92935 0.4938,-1.25677 0.12602,-0.32742 0.3801,-0.9525 0.56451,-1.38906 0.36849,-0.87204 0.74128,-1.79634 1.09379,-2.71198 0.12599,-0.32742 0.34822,-0.89297 0.49371,-1.25677 0.1455,-0.36381 0.3837,-0.95912 0.52919,-1.32292 0.1455,-0.3638 0.3718,-0.92935 0.50282,-1.25677 0.13099,-0.32742 0.48818,-1.15956 0.7937,-1.8492 0.30559,-0.68964 0.55559,-1.31601 0.55559,-1.39195 0,-0.0759 0.2499,-0.70231 0.5555,-1.39194 0.30559,-0.68964 0.6509,-1.49202 0.76739,-1.78306 0.1165,-0.29104 0.46181,-1.09341 0.7674,-1.78305 0.30552,-0.68964 0.5555,-1.31601 0.5555,-1.39195 0,-0.13044 0.2191,-0.64209 1.55641,-3.63513 0.3081,-0.68964 0.5603,-1.31602 0.5603,-1.39195 0,-0.0759 0.25199,-0.70231 0.55989,-1.39195 0.308,-0.68963 0.7122,-1.61107 0.8981,-2.04763 0.186,-0.43657 0.6015,-1.38907 0.92321,-2.11667 0.32179,-0.7276 0.7511,-1.70987 0.95401,-2.18281 0.20288,-0.47295 0.53499,-1.24685 0.7379,-1.71979 0.20288,-0.47297 0.63219,-1.45521 0.95398,-2.18282 0.3217,-0.7276 0.7634,-1.73963 0.9815,-2.24896 0.21801,-0.50932 0.63891,-1.46182 0.9353,-2.11666 0.58661,-1.29614 1.17221,-2.61329 2.02901,-4.56406 0.8455,-1.92472 1.48939,-3.36453 2.21861,-4.96094 0.36557,-0.80037 0.92538,-2.05052 1.24388,-2.77813 0.31851,-0.7276 0.86551,-1.94799 1.21561,-2.71198 0.35009,-0.76398 0.92109,-2.01414 1.26889,-2.77812 0.61542,-1.35189 1.4479,-3.16235 3.0717,-6.68073 0.43662,-0.94589 1.15102,-2.4937 1.5875,-3.43958 0.43662,-0.94589 1.1634,-2.52349 1.6151,-3.50573 0.45169,-0.98227 1.2256,-2.64914 1.71982,-3.70417 0.49408,-1.05503 1.3018,-2.78143 1.79469,-3.83648 0.49289,-1.055 1.38589,-2.96 1.9844,-4.23331 0.59849,-1.27331 1.5774,-3.3569 2.1753,-4.63021 0.59799,-1.27331 1.5966,-3.38667 2.21909,-4.69635 0.62251,-1.30969 1.81091,-3.81 2.64091,-5.55625 0.83,-1.74625 1.9036,-4.00844 2.3858,-5.02709 0.4821,-1.01864 1.46979,-3.10224 2.19459,-4.63021 0.7249,-1.52796 1.8538,-3.90921 2.50862,-5.29166 0.65479,-1.38245 1.81319,-3.82323 2.57418,-5.42396 1.90352,-4.00389 3.57841,-7.5425 4.75912,-10.05419 1.77519,-3.77645 3.08998,-6.56858 4.17359,-8.86352 0.58409,-1.23693 1.49209,-3.17169 2.01779,-4.2995 2.24692,-4.8204 2.90872,-6.2429 3.6309,-7.80521 0.4205,-0.90948 1.13681,-2.45729 1.59181,-3.43956 1.2473,-2.69251 2.2165,-4.79975 2.95109,-6.416152 0.3638,-0.80036 1.0193,-2.22911 1.45671,-3.175 0.43739,-0.94588 1.0582,-2.3151 1.37949,-3.0427 0.3212,-0.72763 0.91501,-2.03732 1.3194,-2.91042 0.40441,-0.87315 0.9403,-2.06375 1.1907,-2.64583 0.2504,-0.58211 0.68101,-1.56435 0.957,-2.18284 0.27591,-0.61844 0.73972,-1.66026 1.03081,-2.31508 0.29099,-0.65484 0.7673,-1.72643 1.05829,-2.38125 0.29101,-0.65484 0.7549,-1.69664 1.03081,-2.3151 0.27591,-0.61849 0.6785,-1.5412 0.89469,-2.05055 0.70152,-1.65304 1.29482,-3.02086 1.77871,-4.10104 0.2607,-0.58206 0.66509,-1.50482 0.8985,-2.05052 1.04019,-2.43171 1.32329,-3.07544 2.04179,-4.64209 0.42011,-0.91604 0.7638,-1.78083 0.7638,-1.9218 0,-0.14097 0.1083,-0.46305 0.24061,-0.71575 0.5963,-1.13904 1.87609,-4.07993 1.87609,-4.31136 0,-0.14092 0.10911,-0.46302 0.2423,-0.7157 0.346,-0.65593 0.914,-1.99792 1.87441,-4.4282 0.46001,-1.16414 1.01749,-2.53339 1.23889,-3.04268 0.2214,-0.50935 0.5094,-1.19396 0.64011,-1.52138 0.1307,-0.32742 0.3448,-0.86321 0.4758,-1.1906 0.1311,-0.32742 0.48828,-1.15959 0.7938,-1.8492 0.30559,-0.68966 0.55549,-1.37586 0.55549,-1.52498 0,-0.14907 0.1052,-0.47778 0.23371,-0.73046 0.12859,-0.2527 0.35081,-0.75708 0.49379,-1.12088 0.14301,-0.36383 0.38391,-0.95914 0.5352,-1.32295 0.15131,-0.36377 0.7738,-1.97114 1.38321,-3.57187 0.60939,-1.60076 1.2318,-3.20807 1.38309,-3.57188 0.36621,-0.88018 0.57301,-1.4221 1.2627,-3.30726 0.3194,-0.87315 0.6778,-1.82565 0.79642,-2.11669 0.11858,-0.29105 0.48008,-1.24355 0.80338,-2.11667 0.32321,-0.87313 0.67881,-1.82563 0.7901,-2.11664 0.11141,-0.29104 0.3456,-0.94591 0.52051,-1.45524 0.17489,-0.50929 0.41299,-1.16416 0.52919,-1.4552 0.1161,-0.29105 0.35431,-0.94592 0.5292,-1.45521 0.17481,-0.50932 0.41651,-1.1642 0.537,-1.45521 0.29691,-0.71718 1.46592,-4.05829 2.268,-6.48229 0.36121,-1.09143 0.76621,-2.2225 0.90012,-2.51354 0.20619,-0.44823 1.18938,-3.40482 5.00409,-15.04691 0.2799,-0.85423 0.415,-1.44952 0.30019,-1.32294 -0.36718,0.40499 -3.9824,5.89539001 -3.9824,6.04805001 0,0.0808 -1.30969,2.10624999 -2.91039,4.50098999 -1.6007,2.39466 -2.91041,4.41672 -2.91041,4.49334 0,0.0766 -1.34938,2.19257 -2.99869,4.70215 -7.6295,11.60891 -8.64301,13.16744 -8.64301,13.29161 0,0.0729 -1.30969,2.09274 -2.91039,4.4886 -1.6007,2.39577 -2.91041,4.42296 -2.91041,4.50477 0,0.0818 -1.30969,2.10812 -2.9104,4.50284 -1.6007,2.39474 -2.91039,4.41878 -2.91039,4.49794 0,0.0791 -1.30971,2.1032 -2.91041,4.49789 -1.60078,2.39472 -2.9105,4.41878 -2.9105,4.49792 0,0.0791 -1.30969,2.1032 -2.91039,4.49794 -1.6007,2.39472 -2.91041,4.41878 -2.91041,4.49792 0,0.0791 -1.30969,2.10317 -2.9104,4.49789 -1.6007,2.39474 -2.91039,4.41878 -2.91039,4.49794 0,0.0791 -1.30971,2.1032 -2.91041,4.49792 -1.60078,2.39469 -2.9105,4.41674 -2.9105,4.49334 0,0.0766 -1.3494,2.1926 -2.99868,4.70217 -7.62952,11.60889 -8.64291,13.16744 -8.64291,13.29161 0,0.0729 -1.30971,2.092752 -2.91041,4.488582 -1.60078,2.3958 -2.9105,4.42296 -2.9105,4.50477 0,0.0818 -1.30969,2.10812 -2.91039,4.50286 -1.6007,2.39472 -2.91041,4.41878 -2.91041,4.49792 0,0.0791 -1.30969,2.1032 -2.9104,4.49789 -1.6007,2.39474 -2.91039,4.41878 -2.91039,4.49794 0,0.0791 -1.30971,2.1032 -2.91041,4.49792 -1.60078,2.39471 -2.9105,4.41878 -2.9105,4.49789 0,0.0791 -1.30969,2.1032 -2.91039,4.49794 -1.6007,2.39472 -2.91041,4.41878 -2.91041,4.49792 0,0.0791 -1.30969,2.1032 -2.9104,4.49789 -1.6007,2.39474 -2.91039,4.41677 -2.91039,4.49339 0,0.0766 -1.3495,2.1926 -2.99881,4.70215 -7.65199,11.64325 -8.6429,13.16797 -8.6429,13.29928 0,0.0771 -0.93848,1.53625 -2.08558,3.24252 -1.1471,1.70625 -2.33781,3.54875 -2.64592,4.09445 -0.3081,0.54571 -0.7983,1.40891 -1.08929,1.91823 -0.29109,0.50933 -0.76731,1.34276 -1.05841,1.85209 -0.29099,0.50932 -0.786,1.3725 -1.0999,1.91823 -0.7076,1.22991 -1.88611,3.33687 -2.55299,4.56406 -1.7781,3.27229 -2.14849,3.94462 -2.69711,4.89479 -0.6927,1.19991 -1.70828,3.06266 -3.2458,5.95312 -0.5805,1.09141 -1.53429,2.87735 -2.11939,3.96875 -6.4016,11.94073 -15.5919,30.32043 -21.43231,42.8625 -0.50819,1.09141 -1.40208,2.99641 -1.98639,4.23334 -0.5843,1.23692 -1.32342,2.84427 -1.6424,3.57187 -0.3189,0.72761 -0.85251,1.91823 -1.18581,2.64584 -0.33329,0.7276 -0.9857,2.15635 -1.44978,3.175 -0.46411,1.01864 -1.06291,2.32833 -1.33062,2.91041 -0.2677,0.58209 -0.7352,1.62388 -1.0388,2.31511 -0.30359,0.69122 -0.80518,1.82231 -1.11469,2.51354 -0.30951,0.69122 -0.66091,1.49489 -0.781,1.78594 -0.1201,0.29104 -0.70041,1.58279 -1.2894,2.87054 -0.58912,1.28775 -1.07111,2.43033 -1.07111,2.53905 0,0.10869 -0.16708,0.54337 -0.3715,0.96591 -0.5579,1.1538 -2.0528,4.56854 -2.53719,5.79533 -0.11481,0.29104 -0.57891,1.33818 -1.0314,2.32698 -0.4522,0.9888 -0.8223,1.94726 -0.8223,2.1299 0,0.18264 -0.10121,0.44519 -0.2249,0.58343 -0.12351,0.13825 -0.431,0.78714 -0.68321,1.44198 -0.25209,0.65484 -0.6392,1.60734 -0.86039,2.11667 -0.2213,0.50932 -0.497,1.16416 -0.61281,1.45521 -0.1158,0.29104 -0.39219,0.94588 -0.6138,1.4552 -0.2218,0.50933 -0.6599,1.58089 -0.9737,2.38125 -0.31379,0.80037 -0.75199,1.87193 -0.97369,2.38125 -0.2218,0.50933 -0.49821,1.16417 -0.61441,1.45521 -0.11629,0.29104 -0.4612,1.09342 -0.76679,1.78306 -0.3056,0.68963 -0.5556,1.37586 -0.5556,1.52495 0,0.14907 -0.1052,0.47778 -0.2336,0.73049 -0.2599,0.51059 -0.9116,2.08875 -1.583,3.83286 -0.1261,0.32742 -0.3642,0.92273 -0.5292,1.32291 -0.16491,0.40019 -0.4191,1.02526 -0.56451,1.38907 -0.1455,0.3638 -0.38359,0.95911 -0.5292,1.32291 -0.1456,0.3638 -0.38369,0.95912 -0.52919,1.32292 -0.1456,0.3638 -0.37251,0.92935 -0.5044,1.25677 -0.13171,0.32742 -0.73821,1.905 -1.3476,3.50573 -0.6095,1.60073 -1.216,3.17831 -1.3479,3.50573 -0.13171,0.32742 -0.34731,0.8632 -0.4791,1.19062 -0.13161,0.32743 -0.6191,1.60735 -1.0835,2.84427 -0.46421,1.23693 -0.94051,2.48709 -1.05841,2.7781 -0.2948,0.72859 -1.79081,4.71379 -2.43329,6.48229 -0.29081,0.8004 -0.6245,1.69339 -0.74171,1.98441 -0.11711,0.29098 -0.47429,1.24348 -0.7937,2.11669 -0.3194,0.8731 -0.67619,1.8256 -0.7929,2.11661 -0.1166,0.2911 -0.3551,0.94589 -0.52999,1.45518 -0.17491,0.50941 -0.41301,1.1642 -0.52911,1.45532 -0.11621,0.29099 -0.35431,0.94578 -0.5293,1.45518 -0.17489,0.50932 -0.419,1.16411 -0.5425,1.45521 -0.1234,0.29099 -0.40169,1.06489 -0.6181,1.71979 -0.64439,1.94921 -1.7704,5.1208 -2.0199,5.68852 -0.1278,0.29109 -0.4118,1.065 -0.6309,1.71979 -0.21929,0.65479 -1.00389,2.917 -1.7435,5.02711 -0.7398,2.11 -1.8804,5.4438 -2.53479,7.40828 -0.65431,1.9645 -1.30151,3.81 -1.43801,4.10112 -0.26249,0.5593 -3.2975,9.7487 -6.0734,18.38849 -0.91171,2.83771 -1.87101,5.81419 -2.13181,6.61461 -0.26079,0.80028 -0.97028,3.0625 -1.57659,5.02708 -0.60639,1.96451 -1.20509,3.86951 -1.33049,4.23331 -0.1253,0.3638 -0.6004,1.91161 -1.0558,3.43961 -0.4553,1.52799 -0.9269,3.07578 -1.04791,3.43958 -0.12099,0.3638 -0.47859,1.5544 -0.7947,2.64581 -0.31609,1.0914 -0.67189,2.282 -0.79059,2.6458 -0.1187,0.36381 -0.3625,1.1973 -0.5418,1.85211 -0.1793,0.6549 -0.4272,1.48829 -0.551,1.85209 -0.23701,0.6967 -3.6144,12.49741 -4.3541,15.21351 -0.2378,0.87318 -0.5329,1.94469 -0.6558,2.38128 -0.3128,1.11141 -1.225,4.53501 -1.8154,6.81302 -0.7895,3.0467 -1.0018,3.37349 -2.1912,3.37349 h -1.0158 v -1.78599 c 0,-0.98221 0.11789,-4.70299 0.2588,-8.2682 5.8036,-146.8527 6.294,-317.89944 1.3238,-461.697972 -0.74181,-21.46231 -1.8338,-49.41837 -2.2815,-58.40677 l -0.1745,-3.50573 -1.74751,-0.005 c -2.18679,-0.006 -7.48359,-0.84042 -10.54029,-1.66055 l -1.38461,-0.37153 -0.12289,0.82 c -0.068,0.45098 -0.25271,5.58247 -0.4111,11.4033 -0.1585,5.82081 -0.4011,14.27427 -0.53911,18.78542 -3.10069,101.31192 -4.64599,226.528872 -3.99579,323.777052 0.4234,63.32567 1.20279,113.85577 2.41509,156.57407 0.14251,5.02042 0.33881,12.90831 0.43631,17.52859 l 0.17719,8.40052 h -0.96869 c -0.7923,0 -0.9687,-0.096 -0.9687,-0.52911 0,-0.2911 -0.10141,-0.52919 -0.2254,-0.52919 -0.1239,0 -0.4341,-0.8037 -0.6894,-1.78591 -0.4094,-1.57488 -0.7144,-2.7054 -1.7311,-6.4162 -0.1395,-0.5093 -0.49671,-1.81899 -0.79371,-2.91039 -0.95649,-3.5147 -1.1161,-4.08919 -1.32289,-4.7625 -0.1118,-0.36381 -0.3499,-1.19722 -0.5292,-1.85211 -0.17931,-0.65479 -0.4174,-1.48828 -0.5292,-1.85209 -0.11171,-0.3638 -0.3351,-1.13771 -0.49621,-1.71981 -0.1612,-0.58198 -0.52369,-1.83219 -0.8055,-2.7781 -0.28189,-0.94589 -0.77149,-2.61279 -1.08809,-3.7042 -0.3165,-1.0914 -0.6701,-2.282 -0.7855,-2.6458 -0.1155,-0.36381 -0.40891,-1.37578 -0.652,-2.24888 -0.24301,-0.87321 -0.6026,-2.06381 -0.7991,-2.64592 -0.1964,-0.5821 -0.61961,-1.9513 -0.9404,-3.0427 -0.3207,-1.09138 -0.7921,-2.6392 -1.04741,-3.43959 -0.25529,-0.80031 -0.84779,-2.70531 -1.31669,-4.2333 -0.4689,-1.528 -1.0657,-3.433 -1.3261,-4.23331 -0.2605,-0.80039 -1.0991,-3.41979 -1.86371,-5.82089 -2.04549,-6.42382 -7.64079,-23.33119 -7.92419,-23.94481 -0.13451,-0.29099 -0.732,-2.0174 -1.328,-3.83638 -0.5959,-1.81901 -1.19211,-3.54542 -1.3247,-3.83652 -0.13271,-0.29098 -0.4841,-1.30309 -0.78081,-2.2489 -0.29679,-0.94589 -0.65099,-1.958 -0.78719,-2.24899 -0.1362,-0.29101 -0.5013,-1.30309 -0.81151,-2.24901 -0.31009,-0.9458 -0.66909,-1.95789 -0.7978,-2.2489 -0.12859,-0.2911 -0.41059,-1.065 -0.6266,-1.71979 -0.216,-0.6549 -0.7684,-2.20271 -1.2276,-3.43961 -0.4591,-1.2369 -0.92919,-2.54659 -1.04459,-2.91039 -0.11541,-0.36381 -0.4141,-1.19722 -0.6636,-1.85211 -0.24951,-0.65479 -0.6918,-1.8455 -0.9829,-2.64578 -0.2911,-0.80042 -0.62511,-1.69342 -0.74231,-1.98441 -0.1171,-0.29101 -0.4743,-1.24351 -0.7937,-2.11671 -0.3194,-0.8731 -0.6766,-1.8256 -0.7938,-2.11659 -0.1171,-0.2911 -0.4743,-1.2436 -0.7937,-2.1167 -0.3194,-0.87309 -0.6766,-1.82559 -0.7938,-2.11671 -0.1171,-0.29099 -0.4743,-1.24349 -0.7937,-2.11659 -0.68789,-1.88032 -0.89549,-2.42419 -1.26229,-3.30737 -0.15121,-0.36381 -0.6547,-1.67349 -1.11901,-2.91039 -0.46429,-1.23696 -0.96779,-2.54664 -1.11889,-2.91045 -0.1512,-0.3638 -0.3779,-0.92935 -0.504,-1.25677 -0.23271,-0.60446 -0.56381,-1.43737 -0.99921,-2.51354 -0.13239,-0.32742 -1.27369,-3.21469 -2.53619,-6.41614 -1.26251,-3.20146 -2.47591,-6.23756 -2.69651,-6.74688 -0.22069,-0.50932 -0.5081,-1.19393 -0.63879,-1.52135 -0.13071,-0.32743 -0.35671,-0.89297 -0.5022,-1.25677 -0.1455,-0.36381 -0.3715,-0.92935 -0.50221,-1.25678 -0.13069,-0.32742 -0.4191,-1.01203 -0.64079,-1.52135 -0.22181,-0.50932 -0.6599,-1.58089 -0.97371,-2.38125 -0.6886,-1.7567 -1.28249,-3.1464 -1.60969,-3.76671 -0.1333,-0.25271 -0.24241,-0.57478 -0.24241,-0.71573 0,-0.14097 -0.34369,-1.00579 -0.76379,-1.92183 -0.4201,-0.91604 -0.9559,-2.11201 -1.19061,-2.65771 -0.93769,-2.17987 -1.28349,-2.99979 -1.4786,-3.50573 -0.11219,-0.29104 -0.4449,-1.06495 -0.73919,-1.71979 -0.29441,-0.65484 -0.72621,-1.63711 -0.95961,-2.18281 -0.23339,-0.54571 -0.61539,-1.43867 -0.84879,-1.98438 -0.2334,-0.5457 -0.63771,-1.46843 -0.89851,-2.05052 -0.2608,-0.58208 -0.6526,-1.47505 -0.87059,-1.98437 -0.3675,-0.85831 -0.6946,-1.60004 -2.1001,-4.7625 -0.2911,-0.65485 -0.76501,-1.72641 -1.05321,-2.38125 -0.2882,-0.65485 -0.8104,-1.81571 -1.16049,-2.57969 -1.24861,-2.72502 -2.03351,-4.45273 -2.6743,-5.88698 -0.9159,-2.04983 -2.61501,-5.69288 -5.36791,-11.50937 -6.55639,-13.85266 -16.86189,-34.22743 -22.9845,-45.44219 -0.4568,-0.83675 -1.1694,-2.14643 -1.58339,-2.91042 -0.41411,-0.76398 -1.0278,-1.86531 -1.36391,-2.44739 -0.33599,-0.58209 -0.9313,-1.65365 -1.3229,-2.38125 -0.3916,-0.72761 -0.96839,-1.76941 -1.28199,-2.31511 -0.3135,-0.5457 -0.80821,-1.40891 -1.09921,-1.91823 -0.2911,-0.50932 -0.7673,-1.34276 -1.0584,-1.85208 -0.29099,-0.50932 -0.7672,-1.34276 -1.0583,-1.85208 -1.3985,-2.44735 -1.70869,-2.99295 -2.3229,-4.08525 -0.3634,-0.64614 -1.061,-1.73194 -1.55019,-2.41284 -0.48911,-0.68091 -0.88941,-1.31792 -0.88941,-1.41558 0,-0.0977 -1.30969,-2.13775 -2.91039,-4.53355 -1.6007,-2.3958 -2.91041,-4.41987 -2.91041,-4.49792 0,-0.078 -1.3097,-2.10211 -2.9104,-4.49792 -1.6008,-2.3958 -2.9105,-4.41764 -2.9105,-4.49299 0,-0.0753 -1.3096,-2.09632 -2.9104,-4.49104 -1.6007,-2.39472 -2.9104,-4.41878 -2.9104,-4.49791 0,-0.0791 -1.30969,-2.1032 -2.91039,-4.49792 -1.6007,-2.39472 -2.9104,-4.41878 -2.9104,-4.49792 0,-0.0791 -1.3097,-2.1032 -2.9104,-4.49791 -1.6008,-2.39472 -2.9105,-4.41878 -2.9105,-4.49792 0,-0.0791 -1.3096,-2.1032 -2.9104,-4.49792 -1.6007,-2.39472 -2.9104,-4.41878 -2.9104,-4.49791 0,-0.0791 -1.3097,-2.1032 -2.9104,-4.49792 -1.6007,-2.39472 -2.9104,-4.41878 -2.9104,-4.49792 0,-0.0791 -1.3097,-2.1032 -2.9104,-4.49791 -1.6008,-2.39472 -2.9105,-4.42101 -2.9105,-4.50284 0,-0.0818 -1.3096,-2.109 -2.9104,-4.504802 -1.6007,-2.3958 -2.9104,-4.41986 -2.9104,-4.49792 0,-0.078 -1.3097,-2.10211 -2.9104,-4.49791 -1.6007,-2.3958 -2.9104,-4.41764 -2.9104,-4.493 0,-0.0753 -1.3097,-2.09632 -2.9104,-4.49103 -1.6008,-2.39472 -2.9104,-4.41878 -2.9104,-4.49792 0,-0.0791 -1.3097,-2.1032 -2.9105,-4.49792 -1.6007,-2.39472 -2.9104,-4.41878 -2.9104,-4.49791 0,-0.0791 -1.3097,-2.1032 -2.9104,-4.49792 -1.60071,-2.39472 -2.9104,-4.41878 -2.9104,-4.49792 0,-0.0791 -1.3097,-2.1032 -2.9104,-4.49791 -1.6008,-2.39472 -2.9104,-4.41878 -2.9104,-4.49792 0,-0.0791 -1.3097,-2.1032 -2.9105,-4.49792 -1.6007,-2.39472 -2.9104,-4.41878 -2.9104,-4.49791 0,-0.0791 -1.3097,-2.1032 -2.9104,-4.49792 -1.60071,-2.39472 -2.9104,-4.421 -2.9104,-4.50284 0,-0.0818 -1.3097,-2.10899 -2.9104,-4.5048 -1.6008,-2.3958 -2.9104,-4.41986 -2.9104,-4.49791 0,-0.0781 -1.3097,-2.10212 -2.9105,-4.49792 -1.6007,-2.3958 -2.9104,-4.41764 -2.9104,-4.49299 0,-0.0753 -1.3097,-2.09632 -2.9104,-4.49104 -1.6007,-2.39472 -2.9104,-4.41878 -2.9104,-4.49792 0,-0.0791 -1.2882,-2.07602 -2.8626,-4.43755999 -1.5745,-2.36152001 -2.9465,-4.51909001 -3.049,-4.79457001 -0.1024,-0.27549 -0.2375,-0.44963 -0.3002,-0.38698 -0.063,0.0627 0.2239,1.12152 0.6369,2.35299 0.413,1.23148 1.4133,4.2631 2.2229,6.73696 0.8096,2.47385 2.0803,6.22432 2.8238,8.33437 0.7436,2.11005 1.5739,4.4913 1.8453,5.29167 0.2713,0.80036 0.8705,2.46724 1.3315,3.70416 0.461,1.23693 0.9326,2.54662 1.0481,2.91042 0.2034,0.64124 0.8925,2.49306 1.3292,3.57188 0.1178,0.29104 0.4755,1.24354 0.7949,2.11666 0.3194,0.87313 0.6766,1.82563 0.7938,2.11667 0.1171,0.29104 0.4743,1.24354 0.7937,2.11667 0.7289,1.99244 0.9058,2.45239 1.3229,3.43958 0.1845,0.43656 0.4279,1.03187 0.5409,1.32292 1.1018,2.83699 5.9462,15.02828 6.2557,15.7427 0.4875,1.12546 0.8794,2.07206 1.15,2.77813 0.1115,0.29104 0.4528,1.09342 0.7583,1.78305 0.3056,0.68964 0.5556,1.31601 0.5556,1.39195 0,0.0759 0.2381,0.67254 0.5291,1.3258 0.2911,0.65326 0.7673,1.72222 1.0584,2.37548 0.29099,0.65326 0.5291,1.24987 0.5291,1.3258 0,0.0759 0.252,0.70231 0.56,1.39195 0.308,0.68963 0.7105,1.61107 0.8946,2.04764 0.7598,1.80191 1.72069,4.02648 2.5142,5.82083 0.3217,0.7276 0.7634,1.73963 0.9815,2.24896 0.218,0.50932 0.6098,1.40229 0.8706,1.98437 0.2607,0.58209 0.6651,1.50482 0.8985,2.05052 0.8639,2.01978 1.1816,2.74566 1.8235,4.16719 0.3614,0.80036 0.9201,2.05052 1.2415,2.77813 0.3214,0.7276 0.8835,1.97776 1.2491,2.77812 0.3656,0.80036 0.8774,1.93146 1.1374,2.51354 0.4475,1.00224 0.94509,2.10257 2.5424,5.6224 0.3798,0.83674 1.0497,2.295262 1.48879,3.241142 0.43911,0.94589 1.15561,2.4937 1.59221,3.43959 0.4365,0.94588 1.1509,2.49369 1.5875,3.43958 0.4365,0.94589 1.1226,2.43417 1.5246,3.30729 1.85,4.01828 5.6678,12.17536 7.7397,16.53646 0.6567,1.38245 1.6973,3.5851 2.3123,4.89479 0.615,1.30969 1.7132,3.63141 2.4405,5.15938 1.5968,3.35507 3.3171,6.97867 4.8359,10.18646 0.6201,1.30968 1.7225,3.6314 2.4497,5.15937 0.7273,1.52797 1.8264,3.84969 2.4426,5.15938 0.6162,1.30968 1.7153,3.6314 2.4426,5.15937 2.6197,5.50407 5.2027,10.97182 6.6557,14.08906 1.6537,3.54746 2.778,5.9553 3.7064,7.9375 0.4942,1.05503 1.2681,2.7219 1.7198,3.70417 0.4518,0.98226 1.1785,2.55984 1.6151,3.50573 2.3504,5.09259 3.3513,7.27636 4.3656,9.525 0.6413,1.42176 1.5997,3.52607 2.6209,5.75469 0.35,0.76398 0.8994,1.98437 1.2207,2.71198 0.5958,1.34897 1.1681,2.63988 2.1115,4.7625 0.2911,0.65484 0.7538,1.69664 1.0282,2.3151 0.2745,0.61846 0.7508,1.69003 1.0584,2.38125 0.3076,0.69122 0.80879,1.82232 1.11379,2.51354 0.30501,0.69122 0.72171,1.60248 0.926,2.02502 0.2044,0.42254 0.3715,0.85722 0.3715,0.96591 0,0.10872 0.482,1.25129 1.0711,2.53905 0.5891,1.28775 1.17251,2.5795 1.29651,2.87054 0.1241,0.29104 0.47549,1.09342 0.7811,1.78306 0.30549,0.68963 0.55549,1.31601 0.55549,1.39194 0,0.0759 0.252,0.70231 0.56,1.39195 0.7838,1.75527 1.9304,4.43206 2.3504,5.48722 0.1159,0.29104 0.3916,0.94588 0.61281,1.45521 0.2212,0.50932 0.60839,1.46182 0.86049,2.11666 0.2521,0.65485 0.5596,1.30374 0.6832,1.44198 0.1236,0.13825 0.2248,0.40743 0.2248,0.5982 0,0.19076 0.25,0.91109 0.55551,1.60073 0.30559,0.68963 0.65059,1.49201 0.76679,1.78305 0.1162,0.29104 0.3925,0.94589 0.61411,1.45521 0.22159,0.50932 1.31359,3.24776 2.4267,6.08542 2.38599,6.08293 2.35079,5.99411 2.78059,7.01146 0.4033,0.95429 0.5061,1.21988 1.5875,4.10104 1.0273,2.73685 1.17701,3.12592 1.5263,3.96875 0.15081,0.3638 0.5356,1.37583 0.855,2.24896 0.6849,1.87221 0.8935,2.41908 1.2617,3.30729 0.1508,0.3638 0.53551,1.37583 0.8549,2.24896 0.31951,0.87312 0.67661,1.82562 0.79381,2.11666 0.1172,0.29104 0.46269,1.21378 0.76799,2.05052 0.30521,0.83675 0.8047,2.20597 1.1099,3.04271 0.3052,0.83675 0.6508,1.75948 0.7679,2.05052 0.31381,0.77952 1.19841,3.18188 1.9486,5.29167 0.3622,1.01864 1.03511,2.86411 1.49531,4.10104 0.4602,1.23693 0.9345,2.54661 1.05399,2.91042 0.1196,0.3638 0.59311,1.67349 1.05221,2.91041 0.45909,1.23696 1.0116,2.78474 1.2276,3.43959 0.21599,0.65487 0.49799,1.42875 0.6266,1.71979 0.12869,0.29107 0.48769,1.30307 0.79779,2.24896 0.3102,0.94588 0.668,1.95791 0.79521,2.24896 0.21719,0.49709 1.13179,3.11515 2.91139,8.3344 0.42181,1.2369 1.7276,5.0469 2.90181,8.46672 2.64259,7.69609 5.41879,16.0215 7.94049,23.8125 1.05981,3.27419 2.3744,7.32229 2.92141,8.99578 0.5471,1.67351 1.49449,4.6501 2.10549,6.61461 0.6109,1.9645 1.3232,4.22669 1.5827,5.02711 0.2596,0.80028 0.85341,2.70528 1.3196,4.23328 0.4662,1.52799 0.94951,3.0758 1.07401,3.43961 0.12439,0.3638 0.5988,1.91158 1.05419,3.43961 0.4553,1.52789 0.9316,3.07578 1.05831,3.43958 0.1267,0.3638 0.60539,1.91161 1.06359,3.4395 1.2231,4.07811 1.2745,4.24569 1.7438,5.6886 0.23671,0.7276 0.52551,1.6801 0.64181,2.11672 0.1162,0.43648 0.46909,1.62708 0.78409,2.64578 0.3151,1.01862 0.67231,2.2093 0.7938,2.64581 0.1215,0.43658 0.4787,1.62718 0.7937,2.64591 0.3151,1.01859 0.67231,2.20919 0.7938,2.64578 0.1216,0.43651 0.5978,2.0439 1.05831,3.5719 0.4605,1.52792 0.9368,3.13531 1.05829,3.5718 0.1216,0.43661 0.59791,2.0439 1.0584,3.5719 0.4605,1.52802 0.93671,3.13531 1.05831,3.5719 0.1216,0.43651 0.5978,2.0439 1.05829,3.5719 0.4606,1.52792 0.9533,3.19482 1.0951,3.70411 0.43091,1.54829 0.6695,2.3657 1.81541,6.21769 0.606,2.03731 1.21109,4.09119 1.3446,4.56411 0.13359,0.47289 0.3521,1.2468 0.48569,1.71979 0.1335,0.47292 0.7386,2.5268 1.34471,4.56412 0.606,2.03718 1.2044,4.0613 1.32969,4.49789 0.49,1.70651 0.7675,2.68308 1.01481,3.57179 0.1418,0.50941 0.7536,2.593 1.35959,4.63032 0.60611,2.03718 1.21791,4.12078 1.35961,4.63018 0.1418,0.5093 0.3634,1.2832 0.4925,1.71982 0.12909,0.43648 0.3507,1.21039 0.49249,1.71968 0.1418,0.50941 0.75361,2.593 1.35961,4.63032 1.14579,3.85199 1.3845,4.66939 1.81539,6.21768 0.1417,0.5093 0.6345,2.17616 1.09501,3.70406 0.4605,1.528 0.9533,3.1949 1.095,3.7042 0.44769,1.6086 0.69159,2.4408 1.55079,5.2917 0.7864,2.6089 0.9574,3.1949 1.56421,5.3578 0.13269,0.4729 0.5506,1.9315 0.92879,3.2411 0.37821,1.3098 0.80611,2.798 0.95081,3.3073 1.0713,3.7693 2.3911,10.0948 8.3083,39.8198 0.6663,3.347 1.56959,7.8117 2.00729,9.9219 0.43781,2.11 0.90651,4.3722 1.04171,5.0272 0.1352,0.6547 0.8627,3.9288 1.6168,7.2759 0.754,3.347 1.47189,6.5616 1.5954,7.1438 0.2406,1.1343 3.0977,12.4476 3.80859,15.0812 0.92591,3.4299 2.18661,7.7359 3.02111,10.3188 0.2821,0.8731 0.8942,2.8376 1.3603,4.3656 0.46609,1.5279 0.9274,2.8972 1.0252,3.0428 0.098,0.1454 0.3303,0.7407 0.51649,1.3228 0.34031,1.0634 1.2046,3.4547 1.6496,4.5641 0.13131,0.3275 0.3419,0.8632 0.468,1.1906 0.3785,0.9832 0.90351,2.2363 2.05111,4.8948 0.6643,1.5389 4.2741,8.7899 5.0383,10.1203 2.02479,3.5251 5.29299,7.8771 7.49799,9.9844 0.65491,0.626 1.42881,1.3662 1.7198,1.6451 0.6932,0.6641 0.97331,0.6573 2.21871,-0.054 z"
           id="path847-7-4"
           inkscape:connector-curvature="0"
           sodipodi:nodetypes="ccccccccccccccccccccccccccccccccccccccccccccccccccccccccccccccccccsscccsssccccccccccccccsscccssscssccscscccsccccccccccccccscssccscccccccccccccccccccscscccsccscccsccsccccccccscscssscscscscscscscscscscscscscscsccccccccccsccccssscscccscccsccccssccccccccccccccccccccccccccccccccsccccccscsssccccccccscccsssccccccccccccccccccccccccccscccccscccccccscssccccsscccsccccscccccccccccccssscscssscscssscscssscscssscscssscscsssccccccccccccccccccsccsscccccccccccccccccscccccccccccccccssccsccsccscccccccccccccccccccccccccccccccsccccccccccccccccccccccccccccccccccccccsccccsccccc" />
        <path
           style="fill:#ff9a48;fill-opacity:1;stroke:#000000;stroke-width:3;stroke-miterlimit:4;stroke-dasharray:none;stroke-opacity:1"
           d="m 611.71802,-84.371182 c 2.2653,-0.385 5.0767,-1.07151 9.6573,-2.35839 2.70539,-0.76004 9.3353,-3.46753 13.5477,-5.53249 21.30999,-10.446328 40.7062,-27.354448 58.23739,-50.766508 20.43501,-27.28999 34.3182,-58.47461 41.0428,-92.19067 2.8312,-14.19534 5.73651,-36.7014 7.0113,-54.31295 0.80841,-11.16824 1.0152,-19.21611 0.86291,-33.58524 -0.19751,-18.63729 -1.11839,-33.20097 -3.50599,-55.44706 -1.17052,-10.90677 -3.19691,-27.6715 -3.35791,-27.78117 -0.037,-0.0251 -1.01941,0.98007 -2.18361,2.23368 -15.32498,16.50238 -55.35099,58.55016 -67.57619,70.98968 -4.85601,4.94107 -5.1893,5.22553 -6.12341,5.22553 h -0.98798 l -30.86971,-60.12658 c -15.29982,-29.80068 -17.41124,-33.99089 -31.54628,-63.3922 -18.14439,38.39237 -21.451,47.05273 -29.75913,63.93297 l -30.06949,61.04102 -1.0629,0.0803 -1.0629,0.0803 -30.1171,-33.27744 c -14.32157,-15.77294 -28.55627,-31.62481 -42.8969,-47.38044 -0.81955,8.2082 -1.4759,16.43956 -2.029,24.67009 -1.9757,29.88974 -1.8558,54.21704 0.4009,81.35939 5.9594,71.67569 24.34179,127.58516 54.1961,164.83545 14.4266,18.00061 32.3234,32.19391 51.9308,41.184378 7.38729,3.3873 19.7832,7.85833 22.7795,8.21623 0.6912,0.0826 1.2568,0.25266 1.2568,0.37788 0,0.12528 0.4692,0.22776 1.0427,0.22776 0.5735,0 1.1163,0.11906 1.2062,0.26455 0.09,0.14552 0.5662,0.26459 1.0584,0.26459 0.49209,0 0.96839,0.11909 1.05829,0.26461 0.09,0.14552 0.56621,0.26455 1.05831,0.26455 0.4922,0 0.9684,0.11907 1.0584,0.26459 0.09,0.14554 0.6922,0.26461 1.3385,0.26461 0.6463,0 1.175,0.11535 1.175,0.2564 0,0.28388 5.2422,0.50822 8.599,0.36801 1.1641,-0.0486 3.2477,-0.28056 4.6302,-0.51551 z"
           id="path837-4-74"
           inkscape:connector-curvature="0"
           sodipodi:nodetypes="cccccscccccsccccccccccssccsscscscssccc" />
      </g>
    </g>
  </g>
</svg>
